<svg width="147" height="266" viewBox="0 0 147 266" fill="none" xmlns="http://www.w3.org/2000/svg">
<mask id="path-1-outside-1_89_546" maskUnits="userSpaceOnUse" x="-0.0693359" y="-0.895874" width="147" height="267" fill="black">
<rect fill="white" x="-0.0693359" y="-0.895874" width="147" height="267"/>
<path d="M63.3333 2.80002C58.9333 4.26669 50.2666 5.86666 44 6.26666C33.3333 7.06666 32.4 7.33334 28.1333 11.6C24.2666 15.4667 23.7333 16.6667 24.4 20.8C24.8 23.3334 26.9333 27.6 29.0666 30.4L33.0666 35.3333L29.4666 39.4667C27.4666 41.8667 23.6 44.2667 20.1333 45.2C12.6666 47.3333 7.19997 52.6667 5.59997 59.4667C3.86664 66.9333 1.06664 85.2 0.933305 90.2667C0.799972 96.2667 5.73331 101.333 11.4666 101.333C14.5333 101.333 16.4 102.133 17.3333 104C18.1333 105.467 21.2 107.867 24.2666 109.467C28.9333 111.867 31.4666 112.267 40.5333 111.733C52.5333 111.067 59.3333 108.267 67.8666 100.667C70.6666 98.1334 73.6 96 74.2666 96C76 96 79.6 108.667 81.3333 121.333C82.4 128.533 82.2666 134.133 81.2 141.2C80 149.733 80 151.333 81.7333 152.667C83.4666 154 83.2 155.333 79.2 163.333C73.4666 175.067 71.4666 188.4 72.5333 205.333C73.7333 221.067 71.4666 241.333 67.3333 254.533C65.6 260 64.4 264.8 64.6666 265.067C65.7333 266.133 71.8666 244.133 73.2 234.133C74 228.533 74.6666 214.667 74.6666 203.467C74.6666 180.933 76.4 171.6 82.4 160.8C85.7333 155.067 86.9333 154.133 93.6 152C97.6 150.8 104.4 147.867 108.667 145.6C115.867 141.733 117.467 141.333 128.667 141.333C137.467 141.333 141.6 140.8 143.733 139.2C147.2 136.8 147.333 135.6 144.533 132.8C140 128.267 115.067 131.6 101.2 138.667C98.4 140.133 93.7333 143.867 90.8 146.8C83.7333 154.267 80.6666 153.333 82.2666 144.4C84.4 131.6 82.8 114.267 77.8666 98.5334C77.4666 96.9334 79.2 95.7334 84.9333 93.6C90 91.7334 95.2 88.4 100.133 83.7334C104.133 79.8667 112.8 73.6 119.2 70C139.467 58.4 139.467 58.8 119.6 58.6667H102.533L106.533 53.6C115.733 42.1333 121.2 21.2 117.467 11.6C114.667 4.53334 104.4 3.06667 91.6 7.86667C88.2666 9.2 87.7333 8.93333 86.6666 6C84.1333 -0.533334 76.5333 -1.59998 63.3333 2.80002ZM82.4 3.46667C86.5333 6.26667 86.1333 8.8 80.8 13.7333C75.0666 19.2 72.9333 26.8 74.4 36.4C75.4666 43.0667 75.2 44.8 70.8 55.7334C65.4666 69.2 64.4 70.6667 63.2 67.6C62.8 66.4 63.6 62.8 65.2 59.6C74.2666 41.0667 59.6 25.3333 39.3333 32C34.9333 33.4667 34.1333 33.3333 31.2 30.5333C26.6666 26.2667 24.9333 19.3333 27.3333 14.6667C29.6 10.2667 35.3333 8 44.5333 8C48.2666 7.86667 56.8 6.40002 63.3333 4.66669C77.7333 0.80002 78.5333 0.800008 82.4 3.46667ZM114.667 10.2667C117.2 13.4667 117.6 15.0667 116.933 22.6667C115.467 40.4 106.267 56.2667 93.8666 62.1333C90 64 84.4 68.1333 81.4666 71.4667L76.2666 77.4667L77.6 71.7334C78.2666 68.5334 78.6666 60.8 78.2666 54.4C77.6 43.3333 77.7333 42.4 82.6666 29.7334C85.6 22.5334 88 15.3333 88 13.6C88 12 88.1333 10.6667 88.4 10.6667C88.5333 10.6667 91.0666 9.73335 94 8.66669C96.9333 7.60002 102.133 6.80002 105.6 6.66669C110.8 6.66669 112.267 7.20001 114.667 10.2667ZM86.6666 13.2C86.6666 14.9333 78.9333 35.7333 77.3333 38.5333C76.4 40 76.1333 37.7333 76 31.0667C76 22.1333 76.2666 21.0667 80.1333 16.6667C84.1333 12.1333 86.6666 10.8 86.6666 13.2ZM61.4666 36.8C66.6666 42 67.7333 48.8 64.6666 56.6667C63.4666 60 62 62.6667 61.3333 62.6667C60.8 62.6667 58.1333 59.8667 55.7333 56.2667C53.2 52.8 48 46.5333 44.1333 42.4C37.8666 35.6 37.4666 34.6667 39.6 33.3333C40.9333 32.5333 45.4666 32.1333 49.7333 32.4C56.2666 32.8 58.1333 33.4667 61.4666 36.8ZM55.8666 59.0667C58.8 63.4667 59.7333 66 58.9333 67.4667C58 69.0667 57.3333 68.4 55.3333 64C51.8666 56.1333 41.6 47.0667 34 45.2L27.8666 43.6L31.6 39.7334L35.3333 35.7334L43.4666 44.4C48 49.0667 53.4666 55.7333 55.8666 59.0667ZM41.3333 50.5333C45.3333 52.9333 48.8 56.5333 51.6 61.3333C55.6 67.8667 55.8666 69.2 55.3333 77.2L54.8 86L47.0666 86.4C36.8 86.8 31.0666 83.7333 26.8 75.4667C23.2 68.4 22.5333 58.2667 25.2 50.4C26.6666 45.7333 27.2 45.4667 31.0666 46.1333C33.4666 46.6667 38 48.5333 41.3333 50.5333ZM23.4666 49.6C20.2666 61.4667 21.8666 73.2 27.6 80.1333L30.9333 84H27.3333C20 84 14.8 88.8 14.6666 95.6C14.6666 99.3334 14.1333 100 11.3333 100C9.46664 100 6.66664 98.6667 5.19997 97.2C2.79997 94.8 2.53331 93.3333 3.06664 87.4667C6.39997 56.9333 7.33331 54 15.0666 49.3333C21.0666 45.6 24.5333 45.7333 23.4666 49.6ZM77.2 59.3333C77.0666 75.8667 71.8666 85.3333 68 76C66.5333 72.2667 66.8 70.6667 70.8 60C75.7333 46.8 77.3333 46.6667 77.2 59.3333ZM130 61.7334C128.533 62.8 123.2 65.8667 118.133 68.6667C113.067 71.4667 105.467 76.9334 101.2 80.8C92.9333 88.4 88.6666 90.9333 81.0666 93.0667C76.2666 94.4 76 94.2667 76 91.6C76.1333 85.8667 78.5333 78 80.8 76.4C82.1333 75.4667 83.3333 73.7333 83.4666 72.5333C83.6 71.3333 84 70.2667 84.2666 70.1333C84.5333 70 86.4 68.5333 88.5333 66.9333C90.6666 65.3333 92.9333 64 93.7333 64C94.5333 64 92.6667 65.8667 89.6 68.1333C86.4 70.4 82.7333 71.1 83 71.5C83.4 71.9 88.4 71.2 92 68.1333C100.533 60.9333 102.933 60.2667 119.333 60.1333C130.8 60 132.267 60.2667 130 61.7334ZM63.3333 70.5333C63.7333 72 63.3333 75.0667 62.2666 77.6L60.4 82L59.4666 77.7334C57.8666 70.6667 61.3333 64.2667 63.3333 70.5333ZM66.8 84.1333C61.4666 89.2 60 87.0667 63.4666 78.9333L65.4666 74L67.6 77.7334C69.4666 81.3334 69.3333 81.7333 66.8 84.1333ZM58.6666 83.0667C58.6666 86.2667 58.2666 86.8 57.3333 85.3333C55.6 82.6667 55.6 76.9333 57.3333 78C58.1333 78.4 58.6666 80.8 58.6666 83.0667ZM75.4666 84.8C74.9333 86.6667 74.2666 88 73.8666 87.6C73.4666 87.3334 73.6 85.3333 74.1333 83.4667C74.5333 81.4667 75.3333 80.1334 75.6 80.5334C76 80.9334 75.8666 82.8 75.4666 84.8ZM70.6666 86C70.6666 87.0667 70.1333 88 69.4666 88C67.7333 88 66.5333 85.8667 67.6 84.8C69.0666 83.3334 70.6666 84 70.6666 86ZM33.0666 86.1333C34.6666 86.6667 36 87.3334 36 87.8667C35.8666 88.9334 17.0666 97.6 16.2666 96.8C14.6666 95.2 17.7333 89.2 21.0666 87.4667C24.9333 85.3333 28.2666 84.9333 33.0666 86.1333ZM59.8666 92.2667C63.7333 96.4 63.8666 96.6667 61.2 97.0667C58.1333 97.6 44 91.2 44 89.2C44 88.5333 46.6666 88 49.8666 88C54.9333 88 56.5333 88.6667 59.8666 92.2667ZM46.8 93.6C51.2 96.2667 56 98 60.1333 98.4C65.7333 98.9333 66.4 99.3333 65.0666 100.933C59.3333 107.867 38.9333 112.667 28.9333 109.467C23.2 107.6 17.3333 103.2 17.3333 100.8C17.3333 98.9334 34.5333 89.8667 38.9333 89.4667C39.4666 89.3333 43.0666 91.2 46.8 93.6ZM68.2666 90.9333C67.0666 92.1333 66.2666 92.1333 65.0666 90.9333C63.8666 89.7333 64.1333 89.3333 66.6666 89.3333C69.2 89.3333 69.4666 89.7333 68.2666 90.9333ZM72 92.6667C71.0666 93.8667 70 94.4 69.7333 94.1333C68.8 93.2 70.6666 90.6667 72.2666 90.6667C73.0666 90.6667 73.0666 91.4667 72 92.6667ZM144.133 134.133C147.333 138 142.267 140 128.8 140C117.467 140 116.133 140.267 106 145.2C100.133 148.133 93.6 150.933 91.3333 151.467L87.3333 152.4L92 147.467C100.267 138.8 117.867 132.267 134.133 132.133C140.133 132 142.8 132.533 144.133 134.133Z"/>
</mask>
<path d="M63.3333 2.80002C58.9333 4.26669 50.2666 5.86666 44 6.26666C33.3333 7.06666 32.4 7.33334 28.1333 11.6C24.2666 15.4667 23.7333 16.6667 24.4 20.8C24.8 23.3334 26.9333 27.6 29.0666 30.4L33.0666 35.3333L29.4666 39.4667C27.4666 41.8667 23.6 44.2667 20.1333 45.2C12.6666 47.3333 7.19997 52.6667 5.59997 59.4667C3.86664 66.9333 1.06664 85.2 0.933305 90.2667C0.799972 96.2667 5.73331 101.333 11.4666 101.333C14.5333 101.333 16.4 102.133 17.3333 104C18.1333 105.467 21.2 107.867 24.2666 109.467C28.9333 111.867 31.4666 112.267 40.5333 111.733C52.5333 111.067 59.3333 108.267 67.8666 100.667C70.6666 98.1334 73.6 96 74.2666 96C76 96 79.6 108.667 81.3333 121.333C82.4 128.533 82.2666 134.133 81.2 141.2C80 149.733 80 151.333 81.7333 152.667C83.4666 154 83.2 155.333 79.2 163.333C73.4666 175.067 71.4666 188.4 72.5333 205.333C73.7333 221.067 71.4666 241.333 67.3333 254.533C65.6 260 64.4 264.8 64.6666 265.067C65.7333 266.133 71.8666 244.133 73.2 234.133C74 228.533 74.6666 214.667 74.6666 203.467C74.6666 180.933 76.4 171.6 82.4 160.8C85.7333 155.067 86.9333 154.133 93.6 152C97.6 150.8 104.4 147.867 108.667 145.6C115.867 141.733 117.467 141.333 128.667 141.333C137.467 141.333 141.6 140.8 143.733 139.2C147.2 136.8 147.333 135.6 144.533 132.8C140 128.267 115.067 131.6 101.2 138.667C98.4 140.133 93.7333 143.867 90.8 146.8C83.7333 154.267 80.6666 153.333 82.2666 144.4C84.4 131.6 82.8 114.267 77.8666 98.5334C77.4666 96.9334 79.2 95.7334 84.9333 93.6C90 91.7334 95.2 88.4 100.133 83.7334C104.133 79.8667 112.8 73.6 119.2 70C139.467 58.4 139.467 58.8 119.6 58.6667H102.533L106.533 53.6C115.733 42.1333 121.2 21.2 117.467 11.6C114.667 4.53334 104.4 3.06667 91.6 7.86667C88.2666 9.2 87.7333 8.93333 86.6666 6C84.1333 -0.533334 76.5333 -1.59998 63.3333 2.80002ZM82.4 3.46667C86.5333 6.26667 86.1333 8.8 80.8 13.7333C75.0666 19.2 72.9333 26.8 74.4 36.4C75.4666 43.0667 75.2 44.8 70.8 55.7334C65.4666 69.2 64.4 70.6667 63.2 67.6C62.8 66.4 63.6 62.8 65.2 59.6C74.2666 41.0667 59.6 25.3333 39.3333 32C34.9333 33.4667 34.1333 33.3333 31.2 30.5333C26.6666 26.2667 24.9333 19.3333 27.3333 14.6667C29.6 10.2667 35.3333 8 44.5333 8C48.2666 7.86667 56.8 6.40002 63.3333 4.66669C77.7333 0.80002 78.5333 0.800008 82.4 3.46667ZM114.667 10.2667C117.2 13.4667 117.6 15.0667 116.933 22.6667C115.467 40.4 106.267 56.2667 93.8666 62.1333C90 64 84.4 68.1333 81.4666 71.4667L76.2666 77.4667L77.6 71.7334C78.2666 68.5334 78.6666 60.8 78.2666 54.4C77.6 43.3333 77.7333 42.4 82.6666 29.7334C85.6 22.5334 88 15.3333 88 13.6C88 12 88.1333 10.6667 88.4 10.6667C88.5333 10.6667 91.0666 9.73335 94 8.66669C96.9333 7.60002 102.133 6.80002 105.6 6.66669C110.8 6.66669 112.267 7.20001 114.667 10.2667ZM86.6666 13.2C86.6666 14.9333 78.9333 35.7333 77.3333 38.5333C76.4 40 76.1333 37.7333 76 31.0667C76 22.1333 76.2666 21.0667 80.1333 16.6667C84.1333 12.1333 86.6666 10.8 86.6666 13.2ZM61.4666 36.8C66.6666 42 67.7333 48.8 64.6666 56.6667C63.4666 60 62 62.6667 61.3333 62.6667C60.8 62.6667 58.1333 59.8667 55.7333 56.2667C53.2 52.8 48 46.5333 44.1333 42.4C37.8666 35.6 37.4666 34.6667 39.6 33.3333C40.9333 32.5333 45.4666 32.1333 49.7333 32.4C56.2666 32.8 58.1333 33.4667 61.4666 36.8ZM55.8666 59.0667C58.8 63.4667 59.7333 66 58.9333 67.4667C58 69.0667 57.3333 68.4 55.3333 64C51.8666 56.1333 41.6 47.0667 34 45.2L27.8666 43.6L31.6 39.7334L35.3333 35.7334L43.4666 44.4C48 49.0667 53.4666 55.7333 55.8666 59.0667ZM41.3333 50.5333C45.3333 52.9333 48.8 56.5333 51.6 61.3333C55.6 67.8667 55.8666 69.2 55.3333 77.2L54.8 86L47.0666 86.4C36.8 86.8 31.0666 83.7333 26.8 75.4667C23.2 68.4 22.5333 58.2667 25.2 50.4C26.6666 45.7333 27.2 45.4667 31.0666 46.1333C33.4666 46.6667 38 48.5333 41.3333 50.5333ZM23.4666 49.6C20.2666 61.4667 21.8666 73.2 27.6 80.1333L30.9333 84H27.3333C20 84 14.8 88.8 14.6666 95.6C14.6666 99.3334 14.1333 100 11.3333 100C9.46664 100 6.66664 98.6667 5.19997 97.2C2.79997 94.8 2.53331 93.3333 3.06664 87.4667C6.39997 56.9333 7.33331 54 15.0666 49.3333C21.0666 45.6 24.5333 45.7333 23.4666 49.6ZM77.2 59.3333C77.0666 75.8667 71.8666 85.3333 68 76C66.5333 72.2667 66.8 70.6667 70.8 60C75.7333 46.8 77.3333 46.6667 77.2 59.3333ZM130 61.7334C128.533 62.8 123.2 65.8667 118.133 68.6667C113.067 71.4667 105.467 76.9334 101.2 80.8C92.9333 88.4 88.6666 90.9333 81.0666 93.0667C76.2666 94.4 76 94.2667 76 91.6C76.1333 85.8667 78.5333 78 80.8 76.4C82.1333 75.4667 83.3333 73.7333 83.4666 72.5333C83.6 71.3333 84 70.2667 84.2666 70.1333C84.5333 70 86.4 68.5333 88.5333 66.9333C90.6666 65.3333 92.9333 64 93.7333 64C94.5333 64 92.6667 65.8667 89.6 68.1333C86.4 70.4 82.7333 71.1 83 71.5C83.4 71.9 88.4 71.2 92 68.1333C100.533 60.9333 102.933 60.2667 119.333 60.1333C130.8 60 132.267 60.2667 130 61.7334ZM63.3333 70.5333C63.7333 72 63.3333 75.0667 62.2666 77.6L60.4 82L59.4666 77.7334C57.8666 70.6667 61.3333 64.2667 63.3333 70.5333ZM66.8 84.1333C61.4666 89.2 60 87.0667 63.4666 78.9333L65.4666 74L67.6 77.7334C69.4666 81.3334 69.3333 81.7333 66.8 84.1333ZM58.6666 83.0667C58.6666 86.2667 58.2666 86.8 57.3333 85.3333C55.6 82.6667 55.6 76.9333 57.3333 78C58.1333 78.4 58.6666 80.8 58.6666 83.0667ZM75.4666 84.8C74.9333 86.6667 74.2666 88 73.8666 87.6C73.4666 87.3334 73.6 85.3333 74.1333 83.4667C74.5333 81.4667 75.3333 80.1334 75.6 80.5334C76 80.9334 75.8666 82.8 75.4666 84.8ZM70.6666 86C70.6666 87.0667 70.1333 88 69.4666 88C67.7333 88 66.5333 85.8667 67.6 84.8C69.0666 83.3334 70.6666 84 70.6666 86ZM33.0666 86.1333C34.6666 86.6667 36 87.3334 36 87.8667C35.8666 88.9334 17.0666 97.6 16.2666 96.8C14.6666 95.2 17.7333 89.2 21.0666 87.4667C24.9333 85.3333 28.2666 84.9333 33.0666 86.1333ZM59.8666 92.2667C63.7333 96.4 63.8666 96.6667 61.2 97.0667C58.1333 97.6 44 91.2 44 89.2C44 88.5333 46.6666 88 49.8666 88C54.9333 88 56.5333 88.6667 59.8666 92.2667ZM46.8 93.6C51.2 96.2667 56 98 60.1333 98.4C65.7333 98.9333 66.4 99.3333 65.0666 100.933C59.3333 107.867 38.9333 112.667 28.9333 109.467C23.2 107.6 17.3333 103.2 17.3333 100.8C17.3333 98.9334 34.5333 89.8667 38.9333 89.4667C39.4666 89.3333 43.0666 91.2 46.8 93.6ZM68.2666 90.9333C67.0666 92.1333 66.2666 92.1333 65.0666 90.9333C63.8666 89.7333 64.1333 89.3333 66.6666 89.3333C69.2 89.3333 69.4666 89.7333 68.2666 90.9333ZM72 92.6667C71.0666 93.8667 70 94.4 69.7333 94.1333C68.8 93.2 70.6666 90.6667 72.2666 90.6667C73.0666 90.6667 73.0666 91.4667 72 92.6667ZM144.133 134.133C147.333 138 142.267 140 128.8 140C117.467 140 116.133 140.267 106 145.2C100.133 148.133 93.6 150.933 91.3333 151.467L87.3333 152.4L92 147.467C100.267 138.8 117.867 132.267 134.133 132.133C140.133 132 142.8 132.533 144.133 134.133Z" fill="black"/>
<path d="M63.3333 2.80002C58.9333 4.26669 50.2666 5.86666 44 6.26666C33.3333 7.06666 32.4 7.33334 28.1333 11.6C24.2666 15.4667 23.7333 16.6667 24.4 20.8C24.8 23.3334 26.9333 27.6 29.0666 30.4L33.0666 35.3333L29.4666 39.4667C27.4666 41.8667 23.6 44.2667 20.1333 45.2C12.6666 47.3333 7.19997 52.6667 5.59997 59.4667C3.86664 66.9333 1.06664 85.2 0.933305 90.2667C0.799972 96.2667 5.73331 101.333 11.4666 101.333C14.5333 101.333 16.4 102.133 17.3333 104C18.1333 105.467 21.2 107.867 24.2666 109.467C28.9333 111.867 31.4666 112.267 40.5333 111.733C52.5333 111.067 59.3333 108.267 67.8666 100.667C70.6666 98.1334 73.6 96 74.2666 96C76 96 79.6 108.667 81.3333 121.333C82.4 128.533 82.2666 134.133 81.2 141.2C80 149.733 80 151.333 81.7333 152.667C83.4666 154 83.2 155.333 79.2 163.333C73.4666 175.067 71.4666 188.4 72.5333 205.333C73.7333 221.067 71.4666 241.333 67.3333 254.533C65.6 260 64.4 264.8 64.6666 265.067C65.7333 266.133 71.8666 244.133 73.2 234.133C74 228.533 74.6666 214.667 74.6666 203.467C74.6666 180.933 76.4 171.6 82.4 160.8C85.7333 155.067 86.9333 154.133 93.6 152C97.6 150.8 104.4 147.867 108.667 145.6C115.867 141.733 117.467 141.333 128.667 141.333C137.467 141.333 141.6 140.8 143.733 139.2C147.2 136.8 147.333 135.6 144.533 132.8C140 128.267 115.067 131.6 101.2 138.667C98.4 140.133 93.7333 143.867 90.8 146.8C83.7333 154.267 80.6666 153.333 82.2666 144.4C84.4 131.6 82.8 114.267 77.8666 98.5334C77.4666 96.9334 79.2 95.7334 84.9333 93.6C90 91.7334 95.2 88.4 100.133 83.7334C104.133 79.8667 112.8 73.6 119.2 70C139.467 58.4 139.467 58.8 119.6 58.6667H102.533L106.533 53.6C115.733 42.1333 121.2 21.2 117.467 11.6C114.667 4.53334 104.4 3.06667 91.6 7.86667C88.2666 9.2 87.7333 8.93333 86.6666 6C84.1333 -0.533334 76.5333 -1.59998 63.3333 2.80002ZM82.4 3.46667C86.5333 6.26667 86.1333 8.8 80.8 13.7333C75.0666 19.2 72.9333 26.8 74.4 36.4C75.4666 43.0667 75.2 44.8 70.8 55.7334C65.4666 69.2 64.4 70.6667 63.2 67.6C62.8 66.4 63.6 62.8 65.2 59.6C74.2666 41.0667 59.6 25.3333 39.3333 32C34.9333 33.4667 34.1333 33.3333 31.2 30.5333C26.6666 26.2667 24.9333 19.3333 27.3333 14.6667C29.6 10.2667 35.3333 8 44.5333 8C48.2666 7.86667 56.8 6.40002 63.3333 4.66669C77.7333 0.80002 78.5333 0.800008 82.4 3.46667ZM114.667 10.2667C117.2 13.4667 117.6 15.0667 116.933 22.6667C115.467 40.4 106.267 56.2667 93.8666 62.1333C90 64 84.4 68.1333 81.4666 71.4667L76.2666 77.4667L77.6 71.7334C78.2666 68.5334 78.6666 60.8 78.2666 54.4C77.6 43.3333 77.7333 42.4 82.6666 29.7334C85.6 22.5334 88 15.3333 88 13.6C88 12 88.1333 10.6667 88.4 10.6667C88.5333 10.6667 91.0666 9.73335 94 8.66669C96.9333 7.60002 102.133 6.80002 105.6 6.66669C110.8 6.66669 112.267 7.20001 114.667 10.2667ZM86.6666 13.2C86.6666 14.9333 78.9333 35.7333 77.3333 38.5333C76.4 40 76.1333 37.7333 76 31.0667C76 22.1333 76.2666 21.0667 80.1333 16.6667C84.1333 12.1333 86.6666 10.8 86.6666 13.2ZM61.4666 36.8C66.6666 42 67.7333 48.8 64.6666 56.6667C63.4666 60 62 62.6667 61.3333 62.6667C60.8 62.6667 58.1333 59.8667 55.7333 56.2667C53.2 52.8 48 46.5333 44.1333 42.4C37.8666 35.6 37.4666 34.6667 39.6 33.3333C40.9333 32.5333 45.4666 32.1333 49.7333 32.4C56.2666 32.8 58.1333 33.4667 61.4666 36.8ZM55.8666 59.0667C58.8 63.4667 59.7333 66 58.9333 67.4667C58 69.0667 57.3333 68.4 55.3333 64C51.8666 56.1333 41.6 47.0667 34 45.2L27.8666 43.6L31.6 39.7334L35.3333 35.7334L43.4666 44.4C48 49.0667 53.4666 55.7333 55.8666 59.0667ZM41.3333 50.5333C45.3333 52.9333 48.8 56.5333 51.6 61.3333C55.6 67.8667 55.8666 69.2 55.3333 77.2L54.8 86L47.0666 86.4C36.8 86.8 31.0666 83.7333 26.8 75.4667C23.2 68.4 22.5333 58.2667 25.2 50.4C26.6666 45.7333 27.2 45.4667 31.0666 46.1333C33.4666 46.6667 38 48.5333 41.3333 50.5333ZM23.4666 49.6C20.2666 61.4667 21.8666 73.2 27.6 80.1333L30.9333 84H27.3333C20 84 14.8 88.8 14.6666 95.6C14.6666 99.3334 14.1333 100 11.3333 100C9.46664 100 6.66664 98.6667 5.19997 97.2C2.79997 94.8 2.53331 93.3333 3.06664 87.4667C6.39997 56.9333 7.33331 54 15.0666 49.3333C21.0666 45.6 24.5333 45.7333 23.4666 49.6ZM77.2 59.3333C77.0666 75.8667 71.8666 85.3333 68 76C66.5333 72.2667 66.8 70.6667 70.8 60C75.7333 46.8 77.3333 46.6667 77.2 59.3333ZM130 61.7334C128.533 62.8 123.2 65.8667 118.133 68.6667C113.067 71.4667 105.467 76.9334 101.2 80.8C92.9333 88.4 88.6666 90.9333 81.0666 93.0667C76.2666 94.4 76 94.2667 76 91.6C76.1333 85.8667 78.5333 78 80.8 76.4C82.1333 75.4667 83.3333 73.7333 83.4666 72.5333C83.6 71.3333 84 70.2667 84.2666 70.1333C84.5333 70 86.4 68.5333 88.5333 66.9333C90.6666 65.3333 92.9333 64 93.7333 64C94.5333 64 92.6667 65.8667 89.6 68.1333C86.4 70.4 82.7333 71.1 83 71.5C83.4 71.9 88.4 71.2 92 68.1333C100.533 60.9333 102.933 60.2667 119.333 60.1333C130.8 60 132.267 60.2667 130 61.7334ZM63.3333 70.5333C63.7333 72 63.3333 75.0667 62.2666 77.6L60.4 82L59.4666 77.7334C57.8666 70.6667 61.3333 64.2667 63.3333 70.5333ZM66.8 84.1333C61.4666 89.2 60 87.0667 63.4666 78.9333L65.4666 74L67.6 77.7334C69.4666 81.3334 69.3333 81.7333 66.8 84.1333ZM58.6666 83.0667C58.6666 86.2667 58.2666 86.8 57.3333 85.3333C55.6 82.6667 55.6 76.9333 57.3333 78C58.1333 78.4 58.6666 80.8 58.6666 83.0667ZM75.4666 84.8C74.9333 86.6667 74.2666 88 73.8666 87.6C73.4666 87.3334 73.6 85.3333 74.1333 83.4667C74.5333 81.4667 75.3333 80.1334 75.6 80.5334C76 80.9334 75.8666 82.8 75.4666 84.8ZM70.6666 86C70.6666 87.0667 70.1333 88 69.4666 88C67.7333 88 66.5333 85.8667 67.6 84.8C69.0666 83.3334 70.6666 84 70.6666 86ZM33.0666 86.1333C34.6666 86.6667 36 87.3334 36 87.8667C35.8666 88.9334 17.0666 97.6 16.2666 96.8C14.6666 95.2 17.7333 89.2 21.0666 87.4667C24.9333 85.3333 28.2666 84.9333 33.0666 86.1333ZM59.8666 92.2667C63.7333 96.4 63.8666 96.6667 61.2 97.0667C58.1333 97.6 44 91.2 44 89.2C44 88.5333 46.6666 88 49.8666 88C54.9333 88 56.5333 88.6667 59.8666 92.2667ZM46.8 93.6C51.2 96.2667 56 98 60.1333 98.4C65.7333 98.9333 66.4 99.3333 65.0666 100.933C59.3333 107.867 38.9333 112.667 28.9333 109.467C23.2 107.6 17.3333 103.2 17.3333 100.8C17.3333 98.9334 34.5333 89.8667 38.9333 89.4667C39.4666 89.3333 43.0666 91.2 46.8 93.6ZM68.2666 90.9333C67.0666 92.1333 66.2666 92.1333 65.0666 90.9333C63.8666 89.7333 64.1333 89.3333 66.6666 89.3333C69.2 89.3333 69.4666 89.7333 68.2666 90.9333ZM72 92.6667C71.0666 93.8667 70 94.4 69.7333 94.1333C68.8 93.2 70.6666 90.6667 72.2666 90.6667C73.0666 90.6667 73.0666 91.4667 72 92.6667ZM144.133 134.133C147.333 138 142.267 140 128.8 140C117.467 140 116.133 140.267 106 145.2C100.133 148.133 93.6 150.933 91.3333 151.467L87.3333 152.4L92 147.467C100.267 138.8 117.867 132.267 134.133 132.133C140.133 132 142.8 132.533 144.133 134.133Z" stroke="black" stroke-width="0.4" mask="url(#path-1-outside-1_89_546)"/>
</svg>
