<svg width="447" height="268" viewBox="0 0 447 268" fill="none" xmlns="http://www.w3.org/2000/svg">
<path d="M387.97 145.546C400.131 139.325 413.388 135.408 426.825 134.079C437.65 133.003 435.616 110.112 446.468 109.588C436.064 102.582 420.465 103.845 412.273 113.806C408.22 118.737 406.242 125.087 403.076 130.664C399.91 136.242 394.63 141.464 388.429 141.178C374.562 140.532 360.48 143.729 348.026 150.341C353.218 141.919 362.229 136.986 369.394 130.257C378.292 121.892 384.417 110.424 386.474 98.2448C378.098 95.9852 369.566 102.877 365.369 110.839C361.172 118.801 359.711 127.995 355.843 136.136C351.976 144.278 344.264 151.797 335.646 150.712C340.525 147.363 343.916 141.922 345.297 136.062C346.076 132.778 346.236 129.359 345.927 126.01C344.605 111.852 333.369 99.1649 319.672 97.7779C305.989 96.3945 291.65 107.49 290.043 121.68C282.202 117.312 274.366 112.929 266.526 108.56C264.224 107.278 261.688 105.948 259.08 106.459C257.269 106.82 255.725 108.025 254.37 109.34C242 121.281 243.058 144.667 256.452 154.833C244.289 152.496 235.641 138.612 238.523 126.064C239.628 121.235 235.544 116.028 230.786 116.159C226.027 116.29 222.021 121.749 223.202 126.51C223.975 129.59 226.374 131.865 228.679 133.95C237.056 141.577 245.446 149.207 253.819 156.849C241.334 154.032 229.379 148.909 218.677 141.823C218.4 136.079 217.105 129.79 212.602 126.527C208.099 123.264 199.922 125.957 200.008 131.71C200.075 136.34 204.867 139.015 208.983 140.738C223.582 146.842 238.18 152.946 252.789 159.067C219.12 156.441 186.085 147.06 156.043 131.602C159.653 129.198 157.727 123.148 154.29 120.625C150.854 118.101 146.327 117.039 143.709 113.631C135.933 103.489 122.052 101.433 109.518 100.1C115.359 120.066 137.125 128.982 156.322 135.336C178.992 142.831 201.671 150.345 224.354 157.844C184.908 158.992 147.978 133.932 108.657 137.865C91.9313 139.537 74.7861 133.174 63.0871 120.967C60.3483 118.117 56.5564 116.647 52.8472 115.411C40.2076 111.163 25.805 108.559 13.8607 115.004C12.604 115.681 11.2642 116.667 11.1514 118.119C10.9936 120.118 13.1824 121.279 14.9925 121.9C26.7257 125.951 38.4627 129.988 50.1959 134.039C52.9906 134.999 55.9247 135.982 58.8511 135.421C61.7774 134.859 64.5979 132.198 64.3082 129.157C75.0091 133.264 85.7001 137.353 96.4009 141.46C90.1859 144.966 83.9573 148.468 77.7423 151.973C78.7907 147.355 76.026 142.215 71.7006 140.784C67.3789 139.339 62.1263 141.802 60.2349 146.148C55.9396 156.05 47.6545 164.081 37.8404 167.892C46.5227 173.62 57.7125 175.197 67.7166 172.087C75.0397 169.816 82.6039 161.546 78.5482 154.986C83.5872 147.734 92.7624 144.734 101.31 144.726C109.854 144.732 118.139 147.225 126.525 148.746C151.533 153.315 178.43 149.485 201.692 159.815C187.108 165.372 171.948 169.172 156.58 171.147C159.113 167.986 156.192 162.833 152.339 162.134C148.49 161.42 144.663 163.66 141.522 166.16C138.368 168.656 135.333 171.578 131.524 172.613C125.239 174.316 117.254 170.922 112.907 175.971C126.062 183.124 141.076 186.648 156.052 186.08C157.064 186.049 158.113 185.982 159.023 185.515C162.524 183.732 161.435 178.36 159.788 174.743C186.501 163.622 215.916 159.831 244.168 163.848C237.698 167.981 237.065 178.153 241.143 184.629C245.222 191.104 252.53 194.529 259.702 196.783C262.945 197.803 266.364 198.659 269.753 198.161C272.841 197.703 275.693 196.169 278.431 194.575C285.571 190.44 292.477 185.819 299.06 180.779C293.802 190.529 293.964 203.106 299.489 212.479C305.015 221.852 315.665 227.669 326.366 227.164C328.543 227.067 330.782 226.685 332.633 225.472C339.742 220.8 336.178 208.717 341.216 201.736C351.216 205.368 363.672 200.647 368.881 190.915C374.09 181.183 371.026 167.616 362.022 161.892C352.71 155.965 340.455 158.744 329.887 155.716C341.827 155.468 355.406 148.508 364.699 156.078C368.721 159.348 370.667 164.617 374.035 168.589C377.404 172.561 383.889 174.933 387.536 171.087C391.161 167.266 388.616 160.385 384.137 157.9C379.658 155.414 374.236 155.852 369.103 155.807C363.984 155.766 358.3 154.847 355.199 150.69C364.364 149.683 373.542 148.68 382.706 147.674C389.026 146.978 394.766 151.102 399.34 155.563C403.915 160.024 408.219 165.169 414.152 167.379C420.086 169.588 428.273 167.292 429.992 160.933C426.613 153.421 417.254 149.567 409.67 152.54C401.911 155.571 392.479 152.53 387.97 145.546ZM300.914 174.185C299.272 178.523 294.504 180.587 290.113 181.572C285.734 182.561 280.994 183.06 277.477 185.988C276.018 187.2 274.75 188.841 272.943 189.294C271.802 189.593 270.603 189.347 269.451 189.144C264.33 188.241 259.08 187.983 253.871 188.387C252.431 188.5 250.966 188.651 249.545 188.422C244.953 187.66 241.859 182.719 241.831 177.888C241.802 173.057 244.232 168.492 247.278 164.772C248.184 163.67 249.185 162.592 250.434 161.944C252.053 161.108 253.938 161.069 255.593 160.318C258.09 159.188 259.693 156.623 261.047 154.174C261.581 153.213 262.143 152.2 263.046 151.595C264.352 150.735 266.022 150.956 267.513 151.25C278.955 153.514 289.954 158.624 301.652 158.356C301.656 161.653 301.645 164.946 301.648 168.243C301.634 170.25 301.621 172.303 300.914 174.185ZM327.554 139.2C324.715 141.01 321.349 141.907 318.063 141.752C318.241 140.273 319.659 139.05 321.086 139.146C323.046 139.263 324.467 136.347 323.171 134.836C321.89 133.328 318.922 134.423 318.788 136.443C318.458 141.904 310.231 143.479 308.868 148.784C309.648 144.896 310.924 141.11 312.676 137.557C313.512 135.846 314.54 134.126 316.168 133.201C317.28 132.577 318.665 132.343 319.473 131.335C320.598 129.958 319.768 127.468 318.08 127.152C316.378 126.832 314.681 128.826 315.2 130.523C315.496 131.479 314.684 132.395 314.019 133.14C311.507 135.898 309.864 139.48 309.392 143.194C309.281 144.041 308.883 145.204 308.075 145.018C308.049 139.311 309.061 133.58 311.047 128.231C311.939 125.824 313.535 123.122 316.001 123.087C318.203 123.057 319.584 119.693 318.052 118.088C316.52 116.483 313.259 117.862 313.199 120.144C313.157 122.038 311.964 123.668 311.004 125.301C307.052 132.074 306.867 140.416 307.435 148.218C307.502 149.219 307.58 150.283 307.11 151.17C305.87 144.73 305.651 138.064 306.463 131.508C306.664 129.944 306.971 128.257 308.101 127.184C309.158 126.167 308.522 123.986 307.117 123.806C305.712 123.626 304.471 125.546 305.209 126.803C306.765 129.457 305.176 132.841 304.723 135.94C304.004 140.903 306.381 145.97 305.243 150.867C305.083 144.957 302.519 139.447 301.831 133.608C301.303 129.067 301.915 124.453 302.525 119.899C302.774 118.046 303.431 115.758 305.216 115.495C306.124 115.36 306.318 113.931 305.715 113.255C305.115 112.565 304.118 112.434 303.212 112.342C299.676 123.37 299.837 135.569 303.678 146.35C304.658 149.092 304.693 152.216 303.767 155.022C303.416 149.712 302.942 144.051 299.779 139.908C297.079 136.372 292.485 133.992 291.706 129.519C291.365 127.538 291.882 125.499 292.394 123.535C292.929 121.486 293.496 119.37 294.785 117.705C295.625 116.629 296.719 115.804 297.615 114.789C299.349 112.819 300.279 110.271 301.44 107.891C302.601 105.511 304.223 103.148 306.642 102.254C309.613 101.146 312.827 102.551 315.958 102.634C319.363 102.73 322.883 101.254 326.086 102.369C330.217 103.824 331.89 108.808 332.72 113.249C333.55 117.689 334.366 122.671 337.914 125.269C342.353 128.5 342.712 135.566 340.187 140.65C337.663 145.734 333.03 149.301 328.562 152.685C328.106 153.031 327.489 153.38 327.037 153.062C323.751 150.791 319.556 149.954 315.634 150.763C316.422 149.341 318.194 148.909 319.753 148.843C321.321 148.794 322.958 148.976 324.392 148.287C325.329 147.827 326.307 147 327.249 147.389C328.756 148.004 330.717 146.761 330.876 145.08C331.036 143.399 329.346 141.843 327.749 142.216C326.152 142.589 325.184 144.734 325.969 146.199C324.134 147.734 321.479 147.173 319.152 147.503C316.299 147.902 313.804 149.728 311.453 151.503C310.089 152.528 308.724 153.553 307.359 154.578C309.44 152.021 311.524 149.45 313.604 146.893C315.099 145.056 316.978 143.034 319.281 143.228C324.271 143.643 329.458 140.935 332.167 136.52C333.019 135.131 333.692 133.542 335.013 132.626C336.372 131.675 336.097 129.122 334.562 128.559C333.027 127.997 331.205 129.807 331.671 131.428C332.521 134.438 330.181 137.531 327.554 139.2ZM309.425 219.117C308.09 218.457 306.73 217.73 305.76 216.578C303.739 214.192 303.802 210.595 304.304 207.419C304.807 204.242 305.629 200.955 304.767 197.881C302.667 190.424 300.599 182.25 303.582 175.021C305.426 170.526 303.522 165.374 304.397 160.589C311.37 167.219 318.329 173.847 325.301 180.478C329.136 184.121 332.99 187.799 335.943 192.234C336.853 193.612 337.692 195.092 338.069 196.72C339.232 201.764 335.867 206.729 334.983 211.874C334.283 215.95 334.805 220.944 331.54 223.365C329.435 224.933 326.592 224.64 324.072 224.116C319.007 223.061 314.08 221.378 309.425 219.117ZM261.811 147.635C258.974 144.879 256.123 142.12 253.287 139.364C252.248 138.36 251.189 137.32 250.585 135.994C248.412 131.194 253.036 125.599 252.251 120.338C251.579 115.849 254.061 110.981 258.046 108.964C260.184 107.874 262.722 108.977 264.557 110.482C266.392 111.987 267.953 113.917 270.117 114.844C271.921 115.6 273.932 115.579 275.845 115.926C280.224 116.721 284.16 119.605 286.334 123.589C288.278 127.18 288.828 131.53 291.186 134.823C292.55 136.731 294.439 138.144 296.033 139.841C299.767 143.805 301.886 149.347 301.809 154.951C300.234 152.911 298.676 150.861 297.1 148.821C295.886 147.225 294.618 145.555 294.24 143.549C294.006 142.307 294.104 140.912 293.393 139.875C292.679 138.852 290.664 138.886 290.556 140.158C290.524 140.497 290.665 140.837 290.8 141.145C291.365 142.4 292.142 143.516 292.905 144.627C295.701 148.673 298.484 152.715 301.281 156.76C297.215 153.493 293.434 149.865 289.991 145.903C287.402 142.926 284.865 139.268 285.434 135.247C285.559 134.344 284.801 133.43 283.927 133.438C283.04 133.442 282.258 134.351 282.351 135.253C282.382 135.624 282.541 135.954 282.7 136.284C286.442 144.014 291.884 150.825 298.499 156.075C294.192 153.545 289.899 151.019 285.595 148.475C283.662 147.337 281.669 146.152 280.309 144.337C278.95 142.521 278.332 139.891 279.42 137.839C280.119 136.53 279.342 134.658 277.944 134.344C276.542 134.044 275.036 135.485 275.268 136.953C275.521 138.503 277.267 139.364 277.627 140.897C278.516 144.521 281.064 147.487 284.051 149.573C287.039 151.659 290.445 152.995 293.791 154.39C294.393 154.642 295.103 155.135 294.902 155.777C286.516 153.393 278.142 151.014 269.752 148.644C267.698 148.064 265.457 147.478 263.455 148.333C262.899 148.562 262.27 148.091 261.811 147.635ZM321.422 159.375C323.14 161.044 324.185 163.381 326.051 164.879C327.93 166.38 330.64 167.061 331.575 169.322C332.256 170.956 334.005 172.075 335.733 171.812C337.45 171.532 338.895 169.772 338.706 167.982C338.514 166.207 336.586 164.829 334.943 165.432C332.013 166.491 328.905 164.585 326.741 162.357C324.58 160.115 322.726 157.381 319.908 156.127C316.908 154.794 313.441 155.422 310.198 156.08C314.427 152.934 320.444 152.717 324.774 155.541C325.926 156.288 326.953 157.228 328.1 157.989C334.518 162.188 343.019 159.915 350.526 161.352C359.969 163.157 367.744 171.62 369.027 181.474C369.393 184.339 369.217 187.437 367.649 189.874C366.287 191.974 364.05 193.325 361.726 194.078C355.622 196.086 348.579 194.275 344.208 189.596C342.049 187.294 338.103 187.809 335.842 185.615C333.408 183.255 330.97 180.908 328.536 178.547C321.347 171.586 314.07 164.571 305.474 159.607C308.69 159.214 312.673 159.208 314.206 162.113C315.374 164.316 317.262 166.001 319.094 167.626C319.812 168.257 320.593 168.92 321.528 168.959C323.294 169.039 324.433 166.305 323.165 165.073C321.108 164.885 318.915 164.66 317.35 163.288C316.208 162.287 315.557 160.812 314.598 159.618C313.639 158.423 312.063 157.472 310.661 158.094C314.072 156.105 318.631 156.661 321.422 159.375ZM167.081 149.15C154.846 148.926 142.637 148.225 130.471 147.036C128.83 146.869 127.189 146.701 125.559 146.491C118.214 145.536 111.004 143.695 104.107 141.015C110.299 139.167 116.797 138.458 123.182 138.929C125.318 139.094 127.451 139.378 129.572 139.704C142.333 141.657 154.915 144.817 167.081 149.15ZM130.529 105.216C132.804 104.646 135.161 105.883 136.783 107.587C138.404 109.292 139.53 111.438 140.994 113.297C142.887 115.724 145.362 117.658 148.14 118.901C150.478 119.936 153.091 120.545 154.957 122.315C156.822 124.085 157.415 127.676 155.299 129.226C155.119 129.359 154.932 129.46 154.725 129.525C154.082 129.701 153.422 129.343 152.858 129.01C140.393 121.452 128.464 112.979 117.164 103.676C121.236 105.78 126.059 106.332 130.529 105.216ZM47.9136 165.934C47.1449 166.091 46.2714 166.205 45.6766 165.713C51.7266 163.962 56.8391 158.876 58.7712 152.696C59.0916 151.663 59.3382 150.58 59.8039 149.601C61.7033 145.604 66.4659 144.265 70.6607 143.363C71.6187 143.151 72.6172 142.95 73.568 143.144C74.5225 143.324 75.4435 144.009 75.6431 145C75.8051 145.86 75.3831 146.73 75.1156 147.565C74.6601 148.94 74.536 150.434 74.7826 151.845C74.8891 152.479 75.0618 153.19 74.7501 153.757C74.5818 154.06 74.293 154.269 74.0215 154.469C66.1778 160.093 57.2174 164.027 47.9136 165.934ZM62.382 128.535C62.7599 128.969 62.6771 129.657 62.4988 130.214C61.2795 133.788 56.6565 134.878 53.1861 133.782C49.7156 132.685 46.8936 130.145 43.6135 128.556C39.2412 126.432 34.263 126.081 29.5334 124.964C23.8568 123.64 18.4458 121.162 13.6941 117.742C18.3103 118.359 22.9092 118.986 27.5254 119.603C29.012 119.805 30.512 120.01 31.9947 120.226C42.1071 121.757 52.0444 124.374 61.5822 128.048C61.8827 128.174 62.1833 128.3 62.382 128.535ZM135.892 182.402C130.604 182.935 125.178 181.27 121.078 177.858C132.326 177.863 143.602 176.787 154.691 174.618C156.026 174.355 157.352 175.21 158.09 176.36C158.828 177.51 159.106 178.915 159.35 180.281C159.595 181.647 159.79 183.196 158.929 184.296C157.887 185.634 155.917 185.5 154.341 185.092C150.079 183.965 146.042 181.674 141.623 181.73C139.705 181.73 137.805 182.204 135.892 182.402ZM432.685 124.794C432.352 126.413 432.077 128.093 431.17 129.468C430.278 130.847 428.549 131.82 427.062 131.24C424.897 130.372 422.437 131.089 420.179 131.815C416.717 132.913 413.25 134.025 409.801 135.127C408.944 135.396 407.773 135.536 407.399 134.71C418.107 128.81 425.042 116.214 436.669 112.798C434.877 116.612 433.533 120.651 432.685 124.794ZM44.57 169.68C44.1165 169.528 43.5926 168.934 44.0125 168.669C54.9162 167.463 65.5414 163.173 74.4456 156.412C75.5042 155.607 76.91 156.815 77.3587 158.069C78.0811 160.092 77.7557 162.5 76.5214 164.286C75.3867 165.917 73.6392 166.961 71.8729 167.803C63.3524 171.885 53.4009 172.575 44.57 169.68ZM130.607 123.366C129.289 122.211 128.069 120.962 126.852 119.698C124.748 117.517 122.626 115.346 120.522 113.164C117.241 109.79 113.953 106.384 111.223 102.523C111.847 102.04 112.697 102.555 113.292 103.047C125.803 113.309 139.044 122.633 152.877 130.89C144.827 131.424 136.699 128.672 130.607 123.366ZM63.8796 125.549C57.0627 123.708 50.2495 121.852 43.4325 120.01C41.3849 119.461 39.3411 118.899 37.2656 118.509C30.8256 117.267 24.132 117.515 17.7329 116.012C24.0832 114.659 30.4335 113.307 36.78 111.968C37.7823 111.753 39.0815 111.678 39.5282 112.614C40.9783 115.663 44.4335 117.088 47.7162 117.529C50.9988 117.97 54.3816 117.713 57.5531 118.623C60.7208 119.547 63.7809 122.121 63.8796 125.549ZM434.718 108.254C435.237 108.272 435.891 108.432 435.98 108.97C429.97 110.247 424.79 114.227 420.22 118.536C415.65 122.845 411.437 127.613 406.237 131.073C408.609 126.341 410.985 121.595 413.358 116.863C413.891 115.797 414.441 114.719 415.262 113.881C416.397 112.734 417.949 112.152 419.444 111.615C424.403 109.814 429.513 107.993 434.718 108.254ZM231.166 128.463C231.173 128.706 230.882 128.87 230.652 128.809C230.421 128.747 230.252 128.565 230.079 128.398C229.154 127.455 227.89 126.859 226.582 126.75C225.73 126.673 225.274 125.72 225.067 124.863C224.744 123.521 224.669 122.065 225.072 120.722C225.476 119.378 226.439 118.17 227.715 117.695C229.604 116.992 231.66 117.996 233.267 119.213C235.064 120.587 236.659 122.284 237.577 124.39C238.495 126.495 238.693 129.013 237.77 131.154C237.541 131.683 237.175 132.235 236.63 132.316C236.174 132.39 235.755 132.111 235.301 132.126C234.597 132.149 233.818 132.832 233.287 132.372C233.083 132.212 233.012 131.936 232.933 131.688C232.577 130.413 232.232 129.096 232.382 127.775C232.58 125.954 233.815 124.274 235.471 123.568C235.668 123.485 235.879 123.405 235.962 123.201C236.187 122.687 235.333 122.458 234.826 122.67C232.601 123.54 231.052 126.013 231.166 128.463ZM152.774 164.307C153.839 164.562 155.055 165.341 154.859 166.453C154.547 168.32 154.766 170.268 155.514 171.981C147.48 173.215 139.436 174.325 131.382 175.312C130.885 175.375 130.251 175.356 130.041 174.892C131.767 174.039 133.778 174.397 135.624 173.908C139.707 172.825 141.807 168.081 145.368 165.694C147.55 164.222 150.287 163.716 152.774 164.307ZM375.054 168.529C374.749 168.311 374.483 167.786 374.818 167.619C376.547 166.752 378.305 165.726 379.436 164.109C380.538 162.545 380.933 160.473 380.486 158.615C380.375 158.162 381.121 158.09 381.533 158.29C382.803 158.918 384.001 159.708 385.098 160.606C386.812 162.018 388.356 163.959 388.386 166.235C388.413 167.921 387.523 169.617 386.13 170.529C383.908 171.99 381.013 171.35 378.597 170.386C377.35 169.885 376.132 169.332 375.054 168.529ZM362.602 126.804C362.413 127.132 361.966 127.496 361.738 127.208C361.643 127.077 361.665 126.886 361.697 126.713C362.82 121.435 364.809 116.344 367.521 111.703C368.51 110.017 369.6 108.389 370.914 106.957C373.446 104.234 376.83 102.343 380.398 101.667C380.58 101.64 380.765 101.599 380.924 101.656C381.327 101.779 381.466 102.346 381.308 102.772C381.14 103.181 380.785 103.479 380.45 103.752C372.938 109.873 367.51 118.307 362.602 126.804ZM211.726 128.334C211.911 128.565 211.892 128.907 211.88 129.222C211.764 131.716 212.412 134.233 213.713 136.32C212.654 136.369 211.612 136.407 210.552 136.456C209.038 136.519 207.521 136.596 205.993 136.655C205.45 136.676 204.889 136.707 204.372 136.523C203.878 136.361 203.46 136.022 203.094 135.652C200.999 133.488 200.913 129.579 202.91 127.226C203.889 126.067 205.622 126.108 207.065 126.419C208.558 126.759 210.012 127.3 211.368 128.041C211.506 128.124 211.63 128.202 211.726 128.334ZM376.708 116.795C376.239 118.272 375.753 119.76 375.035 121.14C372.463 126.075 367.332 128.843 363.093 132.349C362.909 132.496 362.703 132.667 362.471 132.666C362.239 132.664 362.007 132.39 362.135 132.183C365.23 126.979 368.536 121.908 372.023 116.976C374.157 113.949 376.412 110.955 379.301 108.69C378.446 111.394 377.577 114.095 376.708 116.795ZM405.914 155.329C409.04 154.73 412.119 153.816 415.072 152.611C416.459 152.046 418.058 152.368 419.339 153.12C420.624 153.857 421.66 154.981 422.673 156.084C423.595 157.088 424.532 158.095 425.455 159.098C425.648 159.301 425.816 159.648 425.606 159.834C425.516 159.9 425.413 159.903 425.297 159.902C423.772 159.902 422.251 159.827 420.753 159.667C415.865 159.144 411.132 157.77 406.412 156.399C406.155 156.33 405.874 156.24 405.729 156.02C405.575 155.782 405.654 155.38 405.914 155.329ZM257.971 192.071C261.702 192.193 265.443 192.334 269.174 192.457C271.463 192.541 273.926 192.566 275.872 191.273C276.935 190.56 277.737 189.52 278.671 188.636C281.17 186.252 284.644 185.005 287.991 185.313C288.063 185.317 288.134 185.321 288.195 185.367C288.375 185.506 288.19 185.819 288.018 185.97C285.801 187.901 283.479 189.894 280.689 190.704C278.199 191.428 276.016 192.96 273.74 194.24C271.464 195.52 268.904 196.557 266.36 196.178C264.684 195.926 263.157 195.063 261.683 194.214C260.453 193.492 259.218 192.783 257.971 192.071ZM406.993 159.004C406.719 158.78 406.944 158.265 407.291 158.162C407.635 158.073 407.982 158.241 408.302 158.403C409.377 158.948 410.502 159.415 411.653 159.784C414.164 160.608 416.793 160.995 419.408 161.378C421.336 161.668 423.299 161.937 425.223 161.591C425.484 161.54 425.812 161.507 425.97 161.731C426.158 162.008 425.885 162.373 425.633 162.608C425.287 162.923 424.941 163.239 424.599 163.54C423.466 164.567 422.299 165.615 420.886 166.114C420.373 166.294 419.821 166.403 419.279 166.469C415.065 166.958 410.704 164.791 408.513 161.09C408.03 160.341 407.652 159.529 406.993 159.004ZM301.141 209.459C301.007 210.285 300.887 211.115 300.749 211.955C300.328 211.086 300.072 210.14 299.8 209.205C298.886 205.997 297.98 202.761 297.747 199.402C297.526 196.213 297.923 192.994 298.313 189.802C298.446 188.764 298.565 187.723 298.698 186.685C298.731 186.452 299.081 186.394 299.254 186.562C299.427 186.729 299.445 186.991 299.469 187.224C299.643 189.342 299.991 191.461 300.487 193.514C301.118 196.148 302.007 198.745 302.09 201.473C302.129 203.117 301.878 204.758 301.627 206.399C301.454 207.426 301.298 208.443 301.141 209.459ZM338.817 190.948C338.671 190.788 338.791 190.503 338.984 190.434C339.18 190.35 339.397 190.408 339.593 190.491C342.251 191.475 343.791 194.352 346.238 195.794C346.891 196.181 347.604 196.448 348.308 196.697C350.781 197.556 353.36 198.126 355.965 198.385C353.787 199.677 351.311 200.404 348.824 200.464C346.966 200.51 345.113 200.21 343.292 199.904C342.5 199.767 341.496 199.392 341.531 198.555C341.686 195.754 340.684 192.93 338.817 190.948ZM370.902 162.11C371.692 161.928 372.499 161.736 373.154 161.246C374.299 160.389 374.704 158.608 374.019 157.366C375.657 156.731 377.536 156.826 379.086 157.605C379.699 157.92 379.82 158.769 379.761 159.479C379.52 162.438 377.39 165.179 374.64 166.06C374.196 166.198 373.692 166.289 373.288 166.06C372.986 165.888 372.8 165.551 372.62 165.246C372.043 164.199 371.466 163.153 370.902 162.11ZM333.47 106.978C333.216 106.517 333.002 105.795 333.469 105.572C335.597 107.503 336.828 110.282 337.712 113.059C338.592 115.85 339.196 118.749 340.356 121.418C341.57 124.208 343.402 126.755 343.9 129.776C343.967 130.127 343.986 130.54 343.768 130.814C343.545 131.102 342.99 131.059 342.955 130.702C342.689 128.167 341.671 125.732 340.071 123.836C339.21 122.82 338.195 121.943 337.428 120.845C334.683 116.935 335.815 111.19 333.47 106.978ZM259.801 151.013C259.446 151.689 258.445 151.3 257.87 150.843C256.863 150.044 255.839 149.256 254.832 148.457C252.106 146.32 249.186 143.875 248.557 140.365C248.377 139.409 248.39 138.385 247.986 137.505C248.674 137.539 249.118 138.217 249.481 138.813C250.939 141.184 252.841 143.251 255.073 144.847C256.879 146.133 258.406 147.812 259.561 149.739C259.79 150.133 260.009 150.615 259.801 151.013ZM371.22 143.024C374.535 141.991 378.219 142.344 381.235 143.998C375.846 144.853 370.454 145.721 365.066 146.575C364.822 146.616 364.552 146.649 364.34 146.517C364.132 146.371 364.091 145.982 364.319 145.892C365.779 145.27 367.243 144.634 368.703 144.012C369.542 143.647 370.363 143.293 371.22 143.024ZM220.68 158.704C221.628 158.474 222.604 158.464 223.577 158.467C227.834 158.474 232.091 158.586 236.353 158.791C238.62 158.899 240.988 159.065 242.941 160.239C241.942 160.44 240.936 160.397 239.934 160.34C234.363 160.087 228.792 159.834 223.207 159.578C222.272 159.539 221.237 159.443 220.68 158.704ZM231.659 134.975C231.42 135.002 231.187 134.894 230.981 134.793C228.591 133.624 227.071 131.16 225.869 128.706C225.755 128.479 225.636 128.22 225.69 127.963C225.745 127.705 226.01 127.474 226.229 127.578C228.578 128.737 230.918 130.256 232.157 132.629C232.365 133.047 232.561 133.508 232.508 133.978C232.455 134.447 232.121 134.933 231.659 134.975ZM213.494 129.76C213.624 129.765 213.748 129.843 213.859 129.918C216.143 131.483 217.636 134.211 217.769 137.074C216.505 137.401 215.099 136.737 214.532 135.542C213.823 134.066 213.314 132.494 213.018 130.887C212.938 130.427 213.03 129.757 213.494 129.76ZM335.416 167.297C336.195 167.536 337.111 167.918 337.232 168.767C337.341 169.552 336.644 170.257 335.9 170.481C334.511 170.895 332.892 169.993 332.506 168.559C332.328 167.921 332.885 167.254 333.51 167.089C334.149 166.928 334.81 167.12 335.416 167.297ZM206.504 138.274C207.037 137.752 207.829 137.722 208.56 137.706C210.036 137.678 211.507 137.664 212.983 137.636C213.215 137.638 213.478 137.633 213.651 137.8C213.881 138.028 213.815 138.434 213.728 138.758C213.524 139.52 212.946 140.484 212.262 140.165C210.421 139.278 208.485 138.639 206.504 138.274ZM316.269 121.435C315.762 121.647 315.174 121.671 314.71 121.395C314.246 121.12 313.958 120.513 314.115 119.981C314.343 119.241 314.899 118.573 315.617 118.388C316.336 118.202 317.193 118.583 317.433 119.313C317.705 120.142 317.073 121.091 316.269 121.435ZM248.486 124.682C248.699 123.454 248.915 122.211 249.128 120.983C249.221 120.419 249.698 119.67 250.133 119.998C250.365 120.166 250.359 120.512 250.324 120.805C250.04 123.329 249.402 125.819 248.436 128.176C248.083 127.053 248.278 125.836 248.486 124.682ZM327.978 143.366C329.035 143.437 329.908 144.518 329.791 145.606C329.763 145.87 329.609 146.177 329.353 146.154C328.614 146.092 327.811 145.997 327.251 145.484C326.704 144.975 326.606 143.875 327.262 143.492C327.479 143.384 327.736 143.347 327.978 143.366ZM233.48 134.526C233.709 133.997 234.325 133.815 234.864 133.702C235.234 133.62 235.659 133.552 235.943 133.795C236.227 134.037 236.253 134.482 236.236 134.871C236.216 135.274 236.184 135.719 235.973 136.07C235.762 136.422 235.319 136.666 234.955 136.508C234.121 136.149 233.116 135.396 233.48 134.526ZM338.596 154.073C336.942 154.552 335.252 154.946 333.562 155.234C333.12 155.312 332.438 155.145 332.572 154.697C334.094 154.333 335.616 153.97 337.137 153.607C337.697 153.47 338.506 153.49 338.596 154.073ZM319.826 136.147C319.798 135.928 319.804 135.687 319.948 135.529C320.296 135.154 321.124 135.588 321.297 135.105C321.327 135.536 321.881 135.639 322.194 135.935C322.787 136.487 322.197 137.659 321.4 137.703C320.59 137.743 319.942 136.964 319.826 136.147ZM217.219 138.968C217.503 139.588 216.964 140.351 216.317 140.541C215.671 140.73 215 140.52 214.365 140.29C214.647 139.67 214.95 139.025 215.517 138.648C216.065 138.281 216.948 138.351 217.219 138.968ZM309.703 149.627C310.049 148.284 310.72 147.027 311.607 145.995C312.152 145.37 312.794 144.816 313.55 144.49C313.7 144.908 313.378 145.351 313.082 145.695C311.973 147.015 310.836 148.328 309.703 149.627ZM334.727 130.493C334.741 130.875 334.774 131.292 334.998 131.594C334.485 132.046 333.657 132.097 333.154 131.644C332.667 131.181 332.675 130.231 333.218 129.832C333.768 129.405 334.693 129.804 334.727 130.493ZM370.263 159.504C370.684 159.073 371.13 158.603 371.694 158.451C372.261 158.286 372.984 158.57 373.102 159.161C372.697 159.642 372.244 160.141 371.645 160.313C371.064 160.475 370.312 160.137 370.263 159.504ZM321.798 168.003C321.648 168.023 321.485 167.979 321.339 167.925C320.653 167.666 320.102 167.065 319.893 166.328C320.583 166.029 321.408 165.827 322.018 166.262C322.631 166.684 322.544 167.931 321.798 168.003ZM317.654 130.152C317.426 130.786 316.331 130.478 316.294 129.803C316.257 129.128 316.95 128.603 317.609 128.583C318.064 128.569 318.556 128.791 318.685 129.234C318.813 129.677 318.318 130.224 317.927 129.999M276.598 137.521C276.157 137.161 276.562 136.302 277.122 136.271C277.687 136.226 278.154 136.759 278.279 137.322C277.811 137.605 277.339 137.901 276.871 138.184C276.764 137.989 276.656 137.794 276.548 137.599M307.526 126.728C306.847 126.984 306.006 126.487 305.895 125.762C306.257 125.39 306.802 125.143 307.272 125.344C307.741 125.546 307.895 126.328 307.448 126.586M283.042 135.604C283.087 135.057 283.882 134.801 284.248 135.171C284.614 135.542 284.467 136.304 284.003 136.572C283.792 136.168 283.445 135.833 283.023 135.675M292.076 141.427C291.698 141.265 291.657 140.604 292.022 140.384C292.305 140.52 292.615 140.664 292.806 140.927C292.997 141.19 293.031 141.607 292.783 141.828C292.535 142.049 292.056 141.83 292.125 141.516M303.736 114.509C303.416 114.241 303.648 113.593 304.065 113.554C304.479 113.528 304.782 114.078 304.591 114.466C304.4 114.853 303.838 114.944 303.517 114.677M304.436 157.515C304.317 157.906 303.974 158.207 303.584 158.254C303.231 157.887 303.888 157.171 304.262 157.513L304.436 157.515Z" fill="white"/>
</svg>
