<svg width="1023" height="1107" viewBox="0 0 1023 1107" fill="none" xmlns="http://www.w3.org/2000/svg">
<mask id="mask0_71_2" style="mask-type:luminance" maskUnits="userSpaceOnUse" x="66" y="81" width="406" height="394">
<path d="M66 81H471.961V474.983H66V81Z" fill="white"/>
<path d="M471.461 81.5V474.482H66.5V81.5H471.461Z" stroke="white"/>
</mask>
<g mask="url(#mask0_71_2)">
<mask id="path-3-inside-1_71_2" fill="white">
<path d="M161.119 450.652C158.279 457.032 152.287 465.464 144.795 467.354C147.398 469.874 150.392 471.53 154.101 471.056C156.23 470.742 156.782 474.524 154.653 474.838C145.978 476.1 140.771 469.009 136.514 462.389C131.07 453.88 127.287 445.688 126.181 435.603C125.473 429.223 125.392 422.76 123.972 416.458C122.869 411.497 120.189 407.004 119.006 402.043C117.663 396.291 119.635 389.594 126.104 388.489C127.207 388.332 127.758 389.908 126.575 390.225C115.771 392.982 124.209 406.69 126.104 412.678C128.153 419.138 128.39 425.912 129.179 432.531C130.204 440.881 132.333 448.208 136.671 455.456C138.405 458.373 140.457 462.153 143.06 465.384C146.686 464.282 149.684 462.863 152.601 459.949C155.599 456.955 157.65 453.252 160.25 449.941C160.645 449.313 161.433 450.101 161.119 450.652ZM220.977 441.512C232.65 434.895 242.588 424.73 248.266 412.678C248.74 411.731 250 412.441 249.843 413.306C247.397 426.072 232.573 437.102 221.689 442.693C220.9 443.167 220.188 441.986 220.977 441.512ZM406.234 347.051C397.716 344.764 389.121 345.158 380.446 344.844C373.899 344.607 366.407 344.213 360.806 340.431C360.175 339.96 360.569 338.935 361.358 339.172C369.561 341.219 377.131 342.56 385.572 342.954C392.747 343.268 399.768 343.742 406.628 346.026C407.18 346.183 406.943 347.208 406.234 347.051ZM345.585 391.878C341.09 390.459 335.726 388.412 332.495 384.787C332.1 384.316 332.572 383.605 333.126 383.922C335.098 385.024 336.909 386.6 338.881 387.701C341.09 388.963 343.379 390.065 345.822 390.933C346.373 391.17 346.139 392.035 345.585 391.878ZM398.03 206.261C400.396 202.638 405.128 199.25 409.703 200.589C410.414 200.826 410.492 201.851 409.703 202.008C407.811 202.401 405.917 202.481 404.025 203.269C402.134 204.134 400.239 205.316 398.899 206.892C398.505 207.366 397.716 206.735 398.03 206.261ZM373.662 252.349C358.203 268.266 344.796 287.018 322.874 293.871C322.319 294.028 322.085 293.16 322.636 293.003C333.992 288.827 343.379 281.503 351.58 272.756C358.44 265.429 364.512 257 372.636 251.011C373.425 250.46 374.293 251.722 373.662 252.349ZM305.523 200.826C302.446 203.109 301.343 210.911 300.317 214.456C299.054 218.946 297.794 223.359 296.688 227.849C296.531 228.4 295.665 228.163 295.822 227.612C297.319 220.602 298.897 213.668 300.791 206.815C301.58 204.057 301.814 199.801 305.206 199.724C305.837 199.644 305.918 200.512 305.523 200.826ZM335.175 160.646C340.301 152.293 344.956 143.707 346.928 134.016C348.739 124.799 349.528 115.188 351.974 106.128C352.211 105.34 353.551 105.497 353.471 106.365C352.763 115.976 350.634 126.138 348.505 135.592C346.373 145.203 341.247 153.081 335.964 161.197C335.649 161.671 334.781 161.197 335.175 160.646ZM301.025 241.48C304.497 221.073 311.278 201.771 318.77 182.548C322.399 173.094 326.185 163.64 329.417 154.106C332.809 144.181 335.175 134.096 338.172 124.011C338.41 123.223 339.75 123.38 339.67 124.248C337.541 144.181 328.551 163.717 321.296 182.231C313.644 201.614 305.68 221.23 301.974 241.794C301.814 242.344 300.948 242.108 301.025 241.48ZM147.555 263.773C157.727 265.823 167.823 268.343 177.838 270.787C185.962 272.833 195.031 274.489 202.524 278.351C203.392 278.822 202.761 280.004 201.892 279.847C193.217 278.351 184.622 274.963 176.024 272.676C166.403 270.156 156.701 267.635 147.238 264.721C146.686 264.484 146.923 263.696 147.555 263.773ZM133.359 229.345C132.413 229.031 132.808 227.692 133.753 227.849C142.034 229.662 149.527 233.995 156.387 238.799C156.701 239.036 156.387 239.587 156.073 239.35C149.052 234.703 141.323 231.946 133.359 229.345ZM118.218 225.957C136.119 231.709 154.021 239.981 170.109 249.592C170.583 249.829 170.269 250.617 169.714 250.46C169.163 250.303 168.611 250.146 168.06 249.986C167.823 249.909 167.823 249.515 168.137 249.515C165.22 249.515 160.093 245.733 157.333 244.471C153.233 242.501 149.132 240.612 144.952 238.799C135.962 234.86 126.813 231.552 117.743 227.926C116.56 227.375 117.035 225.563 118.218 225.957ZM189.116 153.004C189.668 182.075 195.111 209.729 208.439 235.885C208.753 236.593 207.807 237.147 207.413 236.516C193.611 211.382 185.33 181.918 187.065 153.081C187.145 151.666 189.036 151.666 189.116 153.004ZM206.547 111.249C208.439 117.158 208.596 123.617 209.464 129.683C210.49 136.854 212.068 144.021 214.039 151.035C214.196 151.743 213.17 151.98 213.013 151.349C210.724 144.415 208.833 137.484 207.57 130.234C206.467 123.537 206.073 116.841 204.181 110.304C203.864 109.122 205.521 108.648 205.992 109.673C206.23 109.356 206.547 109.199 207.018 109.279C216.088 110.855 223.109 117.234 225.869 125.981C226.103 126.612 225.08 126.849 224.92 126.218C222.083 118.259 214.905 112.587 206.547 111.249ZM258.438 174.513C254.261 162.615 251.106 151.349 243.454 140.95C243.139 140.476 243.928 139.848 244.242 140.319C251.815 149.773 259.07 161.908 259.701 174.276C259.781 175.064 258.675 175.141 258.438 174.513ZM253.866 293.871C254.969 294.579 255.995 295.21 257.098 295.841C257.572 296.078 258.044 296.235 258.518 296.312C259.938 299.229 261.198 302.144 262.461 305.058C259.544 301.356 256.627 297.653 253.866 293.871ZM270.742 300.251C271.137 302.457 271.451 304.744 271.688 306.948C270.98 306.16 270.348 305.372 269.639 304.584C267.825 300.488 266.01 296.392 264.433 292.296C261.359 284.417 258.361 276.539 255.521 268.66C256.704 270.63 258.204 272.363 260.015 273.544C260.964 274.175 261.91 274.332 262.699 274.175C263.013 274.726 263.33 275.197 263.725 275.671C263.725 275.751 263.802 275.751 263.882 275.828C263.644 276.222 263.564 276.773 263.725 277.403C265.536 285.205 269.402 292.216 270.742 300.251ZM298.031 301.433C295.822 303.876 293.533 306.083 291.09 308.289C292.905 305.609 294.559 302.851 296.059 300.017C296.768 300.488 297.4 300.962 298.031 301.433ZM315.539 285.442V285.362L315.616 285.442C315.616 285.362 315.616 285.362 315.539 285.442ZM262.699 294.422C262.699 294.422 262.776 294.502 262.776 294.579C262.776 294.502 262.776 294.502 262.699 294.422ZM276.106 290.64C276.106 290.009 276.106 289.458 276.026 288.827C276.343 290.089 276.577 291.271 276.894 292.533C276.657 291.822 276.343 291.191 276.106 290.64ZM292.668 280.004C292.982 280.004 293.299 279.927 293.613 279.847C293.139 280.872 292.587 281.974 292.116 282.998C292.193 281.974 292.43 281.029 292.668 280.004ZM253.472 282.998C253.312 282.841 253.392 282.841 253.472 282.998V282.998ZM252.998 128.501C253.078 119.992 251.815 111.486 250.474 103.133C250.394 102.426 249.134 102.582 249.211 103.29C250.08 110.461 250.317 117.628 250.632 124.879C250.237 124.248 249.843 123.697 249.449 123.143C244.717 116.607 238.645 110.855 231.704 107.073C231.784 106.993 231.861 106.916 231.941 106.836C232.018 106.679 232.178 106.522 232.255 106.365C232.807 105.577 231.784 104.789 230.995 105.103C233.518 103.764 234.858 100.533 236.91 98.0924C238.802 95.8858 241.011 93.9162 243.219 92.0235C245.585 89.977 250.08 85.093 253.392 84.9329C256.466 84.776 257.415 88.5582 259.07 90.7648C266.485 100.85 278.315 109.042 277.052 122.986C276.971 123.697 277.366 124.248 277.92 124.562C272.32 136.223 270.268 149.459 268.614 162.378C268.533 162.065 268.456 161.748 268.296 161.434C270.111 155.211 268.614 147.566 268.296 141.424C267.745 131.496 267.431 121.648 264.908 111.957C264.67 111.092 263.407 111.486 263.564 112.35C265.459 121.174 265.616 130.157 266.01 139.137C266.248 144.575 267.35 151.112 266.799 157.021C265.379 153.475 263.802 150.01 262.304 146.622C259.387 140.476 256.466 134.333 252.998 128.501ZM466.486 222.965C466.409 222.965 466.329 223.042 466.249 223.042C466.329 222.335 466.329 221.547 466.409 220.836C466.486 220.048 465.146 219.814 464.989 220.679C464.043 225.249 461.991 229.345 460.651 233.835C460.1 235.571 462.78 236.753 463.569 235.097C465.146 231.946 465.778 228.243 466.092 224.698C466.249 224.855 466.486 224.935 466.723 225.012C472.481 225.643 466.172 238.562 464.989 240.138C464.832 240.375 464.672 240.532 464.514 240.769C463.806 240.455 462.937 241.32 463.254 242.108C461.283 244 458.917 245.419 456.628 246.915C453.079 249.278 449.293 251.722 448.741 256.212C448.584 257.313 450.162 257.707 450.793 257.077C454.656 253.374 458.285 250.54 462.623 247.465C463.412 246.915 464.12 246.364 464.752 245.733C465.697 248.964 465.62 252.429 464.12 255.501C462.466 258.969 459.074 260.859 457.102 264.01C454.656 267.792 453.868 271.101 449.767 273.781C446.375 275.985 442.432 277.327 438.726 278.822C431.471 281.737 424.216 284.494 416.958 287.095C416.958 287.095 416.958 287.095 417.038 287.018C421.376 284.494 425.399 281.266 429.576 278.428C434.308 275.197 439.277 272.206 443.852 268.737C444.404 268.343 443.932 267.555 443.301 267.872C438.489 270.393 433.363 273.227 428.473 276.302C433.048 271.732 437.623 267.242 442.826 263.379C443.772 262.671 442.984 261.41 441.961 261.884C432.891 265.98 426.345 273.621 419.01 280.084C414.672 283.943 410.02 287.251 404.814 289.852C400.082 292.296 394.956 293.554 390.304 296.078C390.304 296.078 390.304 296.078 390.224 296.078C385.097 297.73 379.891 299.306 374.765 300.882C382.969 292.609 388.332 280.004 398.347 274.252C398.899 273.938 398.424 273.15 397.873 273.464C390.932 277.247 386.123 283.155 381.311 289.301C377.291 294.422 373.425 298.912 368.616 302.774C367.433 303.088 366.25 303.482 365.067 303.796C367.51 301.513 369.719 298.835 371.61 296.155C380.285 283.943 385.966 270.787 398.505 261.727C399.056 261.333 398.505 260.465 397.953 260.859C388.252 267.398 381.863 275.591 375.871 285.519C371.139 293.32 366.17 300.725 359.072 305.452C353.788 306.948 348.425 308.366 343.061 309.785C335.332 311.755 327.526 313.724 319.719 315.457C315.458 316.402 310.489 317.507 305.918 317.27C307.178 316.562 308.441 315.851 309.701 315.143C318.219 310.022 326.657 304.664 335.098 299.543C335.726 299.149 335.175 298.204 334.543 298.518C327.288 302.694 319.953 306.791 312.698 311.047C309.229 313.093 305.757 315.143 302.131 316.719C300.948 316.402 299.765 315.931 298.74 315.3C301.737 311.518 304.26 307.502 306.546 303.168C306.626 303.008 306.706 302.774 306.783 302.614C307.258 302.144 307.652 301.67 307.966 301.039C309.229 300.725 310.332 299.7 309.701 298.204C309.701 298.124 309.624 298.047 309.624 297.967C312.227 294.896 314.987 291.979 318.062 289.381C319.088 288.513 318.93 287.251 318.299 286.387C318.93 286.387 319.559 286.307 320.19 285.993C322.162 285.048 324.371 282.684 326.105 279.847C327.211 278.822 328.234 277.72 329.26 276.616C334.229 271.338 339.041 265.98 343.93 260.702C344.482 260.071 343.613 259.206 342.984 259.757C338.172 264.641 333.44 270.076 328.234 274.883C329.734 270.076 328.946 265.429 323.188 264.721C318.456 264.09 314.75 268.106 312.461 271.732C309.938 275.671 308.598 280.398 309.386 285.048C309.701 286.701 310.964 287.412 312.304 287.332C309.781 289.144 307.495 291.114 305.363 293.24C303.866 292.372 302.208 291.822 300.474 291.508C305.523 281.423 309.624 270.864 313.487 260.308C313.804 259.52 312.541 259.206 312.304 259.994C308.123 270.55 303.786 281.109 298.425 291.191C297.871 291.114 297.4 291.034 296.848 291.034C293.219 290.72 291.485 295.761 293.928 298.047C294.008 298.124 294.165 298.281 294.245 298.361C291.562 302.614 288.644 306.714 285.727 310.73C285.964 307.421 286.596 304.19 287.461 301.039C288.407 297.493 289.59 294.108 290.459 290.563C292.982 286.15 295.111 281.503 297.162 276.773C302.051 265.509 306.626 254.162 311.358 242.818C311.595 242.188 310.489 241.714 310.175 242.344C305.68 252.429 301.186 262.434 296.688 272.519C297.082 265.272 297.871 252.823 289.75 252.586C285.413 252.429 284.464 256.369 284.464 259.757C284.464 264.247 283.912 271.024 286.515 274.883C286.91 275.434 287.461 275.751 288.013 275.908C288.013 276.853 288.487 277.797 289.119 278.508C287.147 282.211 284.544 285.599 282.729 289.381C282.492 289.932 282.258 290.483 282.021 290.957C282.021 289.221 281.941 287.412 281.864 285.599C281.389 272.206 280.758 258.812 280.758 245.339C280.838 218.078 283.281 190.821 291.167 164.742C291.404 163.954 290.144 163.56 289.907 164.428C282.335 188.457 279.26 213.511 278.629 238.642C278.315 251.405 278.549 264.167 279.103 276.933C279.26 281.266 279.498 285.676 279.575 290.009C276.343 276.459 271.925 262.908 270.742 249.121C268.691 224.381 272.477 199.25 277.683 175.064C277.76 174.59 277.052 174.353 276.971 174.827C272.557 194.209 268.691 213.668 268.296 233.521C267.036 211.619 269.008 189.716 271.768 168.05C274.291 148.277 276.183 124.719 292.193 110.618C295.899 107.31 300.16 104.789 304.969 103.37C308.441 102.345 312.067 101.952 315.301 100.219C308.835 107.546 304.26 117.314 301.42 126.138C301.186 126.926 302.369 127.243 302.683 126.455C304.969 120.466 307.729 114.714 311.278 109.436C314.513 104.552 318.613 100.533 322.085 95.8858C322.319 95.5688 322.162 95.098 321.848 94.861C322.556 94.1532 323.268 93.5223 324.057 92.8914C329.972 88.0074 336.909 89.3461 341.878 94.704L341.959 94.781C342.196 95.9627 343.85 95.9627 344.007 94.704C343.93 92.3405 344.876 90.7648 346.848 89.82C348.111 88.0843 349.688 87.8504 351.499 89.1891C354.577 90.0539 355.68 91.1587 357.494 93.7592C359.546 96.6736 361.043 99.982 361.989 103.29C363.961 110.067 364.041 117.234 362.621 124.091C361.201 131.182 358.363 137.878 354.971 144.258C351.817 150.09 347.636 155.605 345.585 161.985C345.033 163.797 347.716 164.899 348.662 163.246C348.819 163.009 348.899 162.772 349.056 162.535C349.214 162.772 349.608 162.929 349.922 162.695C355.286 159.07 359.86 153.635 365.618 150.484C362.935 157.968 358.203 164.034 354.026 170.731C349.608 177.898 345.902 185.306 342.353 192.947C342.036 193.578 342.984 194.209 343.379 193.498C347.716 185.149 352.525 176.954 357.652 169.075C361.438 163.323 367.353 157.181 367.273 149.853C367.273 149.773 367.273 149.696 367.196 149.616C368.221 149.142 369.324 148.748 370.427 148.434C381.234 145.597 388.646 152.373 391.012 162.302C391.25 163.403 393.064 163.483 393.298 162.302C394.956 153.318 386.595 145.834 378.237 144.889C367.353 143.707 357.575 152.453 350.477 160.095C360.335 143.313 371.61 124.405 366.09 104.235C364.355 97.9323 359.941 88.3213 353.077 85.9578C348.268 84.3051 342.824 87.8504 342.116 92.6544C339.275 89.2661 335.018 87.4565 330.443 87.6904C322.874 88.0843 319.402 95.2549 312.855 97.9323C305.6 100.927 298.74 101.321 292.193 106.285C287.698 109.75 283.912 114.083 280.915 118.89C280.601 112.901 277.84 107.546 274.134 102.659C271.688 99.508 268.851 96.5936 266.248 93.5992C263.25 90.2139 261.278 86.1947 258.438 82.8064C254.261 77.9224 247.477 84.1451 244.008 87.1395C238.17 92.1836 231.547 97.7754 229.338 105.497C229.338 105.577 229.338 105.654 229.338 105.654C223.503 102.976 217.114 101.638 210.253 102.426C208.99 102.582 208.913 104.552 210.253 104.472C244.402 102.896 259.387 146.702 266.799 172.857C266.879 173.094 267.036 173.331 267.193 173.488C264.67 193.027 263.093 212.723 264.039 232.42C264.827 248.964 269.008 265.192 271.057 281.503C269.954 279.69 268.928 277.877 268.219 275.908C267.982 275.12 267.431 274.646 266.879 274.489C269.954 267.872 266.562 253.137 258.675 251.799C253.786 250.934 251.972 255.03 252.289 258.969C244.637 237.067 237.699 214.85 231.704 192.473C231.467 191.686 230.284 192.003 230.521 192.79C236.356 216.032 242.902 239.036 250.789 261.727C253.629 269.919 256.627 278.034 259.701 286.07C258.755 284.731 257.649 283.549 256.547 282.367C250.789 270.864 245.505 259.206 240.693 247.309C231.072 223.359 223.66 198.619 217.508 173.565C217.351 173.094 216.639 173.251 216.719 173.802C221.608 200.275 229.495 226.037 239.59 250.934C243.454 260.388 247.634 269.762 252.129 278.902C251.972 278.822 251.815 278.665 251.734 278.585C250.08 277.483 247.24 278.114 246.374 280.004C246.057 280.635 245.9 281.266 245.743 281.897C235.961 267.005 227.761 250.934 223.109 233.678C222.872 232.89 221.766 233.207 221.926 233.995C226.263 252.509 234.544 269.368 245.111 285.125C250.08 292.533 255.444 299.7 261.041 306.634C262.147 307.972 263.17 309.391 264.276 310.81C260.333 309.154 256.152 307.735 252.289 306.083C251.42 305.689 250.632 306.948 251.5 307.421C256.704 309.865 262.067 313.016 267.508 315.143C267.668 315.38 267.825 315.614 268.062 315.774C268.614 316.719 269.245 317.663 269.874 318.608C269.716 318.608 269.479 318.608 269.245 318.688C268.296 318.925 267.35 319.239 266.405 319.553C260.015 317.35 253.235 315.931 246.845 313.644C237.699 310.493 228.706 306.791 220.111 302.381C219.48 302.064 218.848 303.008 219.56 303.402C232.178 310.573 246.531 317.426 261.041 320.972C255.995 321.76 251.34 322.234 245.98 321.366C240.536 320.421 235.253 318.688 230.046 316.956C229.101 316.639 228.786 318.057 229.652 318.371C235.727 320.735 243.296 323.809 250.632 324.44C250.157 324.597 249.686 324.754 249.211 324.834C241.011 326.961 233.281 326.961 225 325.305C210.567 322.471 197.712 319.319 182.807 320.578C155.913 322.941 121.135 331.845 104.179 303.876C103.704 303.088 102.207 303.562 102.602 304.584C113.168 333.734 151.104 328.613 175.001 325.699C183.202 324.674 191.402 323.886 199.683 324.597C206.624 325.148 213.328 327.038 220.111 328.536C185.253 333.34 155.836 356.742 129.81 379.115C127.838 380.771 130.676 383.528 132.647 381.953C160.331 358.788 188.248 334.839 225.237 329.638C225.475 329.718 225.789 329.718 226.026 329.795C229.732 330.426 233.281 330.663 236.83 330.583C231.861 332.552 227.052 334.839 222.397 337.123C212.933 341.773 203.155 346.894 194.951 353.667C191.402 356.582 188.485 359.893 185.962 363.672C182.727 368.636 179.021 371.551 174.526 375.256C167.348 381.085 161.276 389.277 158.596 398.18C158.439 398.731 159.228 399.048 159.542 398.574C164.194 388.489 169.874 381.165 178.784 374.625C185.882 369.424 189.116 361.469 195.82 355.794C210.885 343.031 229.732 336.335 247.871 329.167C255.283 327.668 262.542 325.148 269.874 322.547C270.191 322.547 270.505 322.471 270.662 322.234C271.217 321.917 271.611 321.366 271.688 320.815C272.163 321.366 272.557 321.917 273.108 322.471C262.067 326.093 251.183 330.506 241.248 336.415C229.101 343.662 220.188 353.43 213.09 365.565C208.913 372.732 205.047 379.903 199.843 386.443C194.637 392.982 188.642 398.891 183.282 405.271C174.683 415.513 167.271 427.567 167.428 441.355C167.428 441.986 168.374 441.986 168.374 441.355C169.163 425.124 179.178 412.835 189.668 401.332C199.132 391.013 207.018 380.691 214.039 368.559C221.294 356.031 229.889 345.946 242.431 338.461C251.972 332.712 262.381 328.85 272.794 325.068C271.845 325.936 270.899 326.804 269.954 327.591C263.802 333.026 257.967 338.621 252.289 344.53C241.088 356.188 231.31 368.716 222.32 382.11C221.926 382.66 222.791 383.134 223.186 382.58C231.941 370.686 241.562 359.182 251.734 348.469C256.389 343.582 261.198 338.855 266.167 334.288C269.165 331.531 272.24 328.379 275.631 325.779C273.188 334.602 269.716 343.031 264.985 350.91C262.067 355.874 258.675 360.521 254.889 364.854C252.129 368.085 248.423 370.923 246.688 374.862C244.56 379.823 244.322 385.024 241.482 389.908C238.645 394.792 234.701 399.048 230.521 402.907C222.32 410.472 213.013 416.695 205.521 425.124C205.047 425.678 205.835 426.543 206.387 425.992C214.116 417.406 224.055 411.337 232.573 403.618C240.299 396.605 245.268 388.806 247.791 378.641C249.369 372.418 254.969 368.322 258.912 363.515C262.067 359.656 264.827 355.56 267.35 351.227C271.845 343.505 275.317 335.233 277.683 326.644C277.76 326.724 277.92 326.881 277.997 326.961C278.235 327.275 278.472 327.511 278.786 327.668C279.498 328.299 280.126 328.93 280.838 329.561C280.915 329.638 280.995 329.638 281.075 329.638C280.286 336.335 277.132 343.268 275.08 349.334C272.4 357.213 269.559 365.014 266.405 372.732C266.167 373.363 267.273 373.837 267.508 373.206C271.217 364.777 274.766 356.348 277.84 347.681C280.049 341.379 283.441 334.288 283.361 327.431C284.464 327.038 285.57 326.487 286.673 325.856C285.49 340.591 284.781 355.166 280.52 369.504C275.949 384.71 266.325 397.943 264.039 413.86C263.802 415.356 266.01 415.987 266.325 414.488C269.479 398.18 279.892 384.393 284.624 368.479C287.067 360.287 288.644 351.698 289.67 342.954C290.064 345.238 290.459 347.521 290.933 349.651C293.693 362.257 296.925 374.782 300.317 387.231C300.554 388.175 301.974 387.781 301.814 386.837C299.765 375.019 297.477 363.278 294.953 351.461C293.77 346.026 292.825 340.591 292.668 334.996C292.51 330.189 293.219 325.542 293.613 320.815C293.77 320.815 294.008 320.735 294.165 320.735C294.322 322.077 294.482 323.492 294.716 324.834C294.165 327.118 294.639 329.167 295.585 331.137C296.768 338.935 298.265 346.734 301.106 353.824C304.892 363.121 311.438 370.606 319.639 376.278C320.348 376.752 320.979 375.65 320.348 375.096C306.706 365.328 301.894 350.99 299.054 335.784C300.631 337.359 302.369 338.778 304.023 340.037C308.441 343.348 313.016 346.42 317.824 349.177C322.636 351.935 329.34 353.984 332.02 359.182C332.338 359.813 333.203 359.262 332.889 358.631C329.811 352.409 322.319 350.045 316.799 346.5C310.175 342.244 301.42 337.28 298.108 329.875C297.714 327.198 297.319 324.44 296.925 321.76C301.58 326.724 306.469 331.451 312.147 335.153C320.508 340.591 330.286 342.954 339.593 346.34C360.018 353.824 379.577 364.383 397.007 377.383C397.479 377.696 397.873 376.989 397.479 376.595C381.548 364.383 364.512 354.218 345.979 346.577C336.358 342.637 325.868 340.117 316.799 335.153C310.332 331.608 304.892 326.567 299.765 321.289C322.242 328.693 346.848 330.977 370.193 332.395C382.889 333.183 396.77 335.153 409.389 333.577C422.244 331.925 431.865 321.446 445.43 325.228C447.244 325.779 448.19 323.258 446.693 322.234C437.149 316.008 426.188 323.335 417.118 326.961C404.657 331.925 388.884 329.007 375.791 328.299C354.577 327.198 333.915 324.911 313.33 320.972C321.296 320.027 329.497 317.27 335.649 315.694C356.706 310.416 377.605 304.27 398.11 297.18C408.206 293.714 418.221 290.009 428.159 286.15C436.28 282.998 446.138 280.398 453.236 275.12C455.839 273.15 457.34 270.944 458.837 268.029C460.965 263.773 464.752 261.016 466.961 256.92C469.403 252.273 469.169 247.228 466.803 242.975C468.143 241.48 469.246 239.824 470.035 237.934C471.612 234.86 474.767 221.073 466.486 222.965ZM414.04 380.217C416.644 377.066 417.589 374.388 417.827 370.369C417.984 367.928 418.064 365.642 420.193 364.146C420.981 363.595 422.007 364.383 422.007 365.171C422.084 366.904 421.456 368.559 421.218 370.292C420.981 371.868 420.824 373.52 420.35 375.096C419.404 377.776 417.67 380.217 415.223 381.716C414.198 382.267 413.332 381.005 414.04 380.217ZM323.108 402.593C331.863 407.791 340.064 405.034 349.451 405.745C353.945 406.139 357.809 408.108 362.146 409.29C366.878 410.549 371.533 410.235 376.108 408.973C369.561 404.64 363.724 399.756 356.311 396.685C355.837 396.448 356.154 395.66 356.626 395.897C364.118 398.891 372.559 402.357 378.157 408.422C385.255 406.139 391.721 402.907 397.796 398.891C397.716 398.811 397.636 398.654 397.559 398.497C393.93 386.757 382.417 381.953 372.559 376.121C371.927 375.727 372.479 374.862 373.11 375.176C382.969 380.06 397.007 385.498 399.293 397.786C400.79 396.762 402.211 395.66 403.711 394.478C404.814 393.61 406.077 394.635 405.602 395.897C401.896 404.406 390.067 408.185 382.1 411.26C376.897 413.229 371.376 414.648 365.695 414.094C359.86 413.543 354.814 410.315 349.056 409.684C343.299 409.053 337.541 410.392 331.783 409.367C327.526 408.579 323.582 406.77 320.113 404.089C313.173 398.811 307.572 390.933 303.391 383.448C302.84 382.504 304.26 381.636 304.892 382.58C310.175 390.065 314.987 397.786 323.108 402.593ZM442.118 358.317C442.906 364.303 437.78 369.581 434.231 373.68C432.891 375.176 431.234 376.672 430.131 378.327C427.371 382.187 428.473 383.605 427.842 387.307C427.448 389.671 426.502 391.878 425.005 393.847C423.267 396.134 420.824 398.103 418.064 398.811C414.909 407.951 405.997 413.072 397.007 415.513C383.995 418.981 369.956 419.846 356.626 421.579C345.427 423.077 333.126 424.967 322.479 420.003C313.173 415.67 305.918 405.588 302.997 395.974C302.446 394.084 304.969 393.376 305.918 394.715C312.621 403.695 315.853 413.78 327.606 417.482C337.227 420.477 347.793 418.664 357.494 417.406C368.616 415.987 379.971 415.042 391.012 413.149C400.951 411.417 410.254 407.714 415.461 399.048C414.909 399.048 414.435 398.968 413.883 398.891C413.175 398.731 412.938 397.549 413.646 397.236C416.329 395.974 419.247 395.109 421.376 392.982C425.082 389.277 423.979 385.732 424.925 381.242C425.793 377.226 429.342 374.388 431.942 371.474C433.363 369.898 434.783 368.242 435.966 366.59C437.857 363.909 439.435 359.576 438.175 356.268C437.306 354.061 434.308 352.409 432.891 350.516C430.365 346.971 429.894 342.874 431.548 338.855C431.785 338.227 433.048 338.227 432.891 339.015C432.103 345.552 434.863 348.389 438.963 352.642C440.541 354.298 441.801 356.031 442.118 358.317ZM451.502 332.159C452.213 334.759 450.399 336.415 448.427 337.753C444.641 340.274 440.46 343.268 436.28 345.081C435.257 345.552 433.914 344.213 434.94 343.348C437.149 341.536 439.672 340.197 442.118 338.698C443.538 337.833 448.27 335.864 449.059 333.734C446.455 333.577 444.247 332.082 443.144 329.638C442.826 329.007 443.378 328.456 443.932 328.456C439.752 326.33 434.231 330.112 430.759 332.395C426.816 334.996 423.742 338.304 420.507 341.693C420.035 342.167 419.167 341.536 419.561 340.985C422.873 335.47 428.079 331.057 433.757 328.062C437.543 326.093 442.275 323.886 445.904 327.198C446.77 327.985 445.587 329.561 444.641 328.85C444.641 328.85 444.561 328.85 444.561 328.773C445.824 330.583 447.876 331.531 450.081 331.214C450.636 331.137 451.345 331.451 451.502 332.159ZM266.719 419.058C268.614 428.435 265.536 438.834 260.49 446.713C259.07 448.996 256.547 453.646 253.549 453.96C250.632 454.274 249.529 449.39 247.477 449.153C247.477 449.47 247.397 449.707 247.24 450.021C240.222 461.288 225.315 465.304 213.251 468.535C205.204 470.742 196.846 472.948 188.408 472.948C179.81 473.025 171.529 470.191 162.934 469.954C161.988 469.954 161.988 468.535 162.934 468.455C170.426 467.747 177.601 469.086 185.093 469.243C193.217 469.403 201.103 467.667 208.913 465.541C222.477 461.919 234.464 458.136 244.402 447.814C245.111 447.107 245.98 447.184 246.608 447.577C248.028 446.95 248.266 446.95 249.923 447.657C251.657 448.365 250.789 449.153 252.683 449.547C255.444 450.101 256.309 447.184 257.729 444.98C262.699 436.865 263.487 428.512 263.959 419.295C264.039 417.956 266.405 417.482 266.719 419.058ZM180.755 231.001C181.624 231.001 182.493 231.001 183.439 231.001C184.304 231.078 185.253 230.921 186.042 231.001C186.119 231.001 186.276 231.001 186.356 231.001C190.299 237.067 194.637 242.975 199.526 248.41C199.92 248.804 200.315 249.041 200.789 249.121C201.892 251.168 203.075 253.137 204.258 255.107C197.712 249.358 191.325 243.526 185.093 237.223C183.121 235.254 181.15 233.207 179.101 231.238C179.572 231.078 180.127 231.001 180.755 231.001ZM73.0269 238.642C74.9986 232.496 75.3929 225.957 80.0447 221.073C86.1969 214.693 95.4235 212.406 102.127 206.578C102.444 206.735 102.839 206.815 103.31 206.655C114.508 203.109 124.998 202.401 136.276 205.947C146.766 209.255 155.993 215.558 164.274 222.571C178.707 234.703 191.008 250.774 207.493 260.308C209.307 263.065 211.199 265.743 213.251 268.423C218.771 275.751 224.843 282.684 231.547 288.987C238.17 295.29 245.662 302.381 253.866 306.554C255.601 307.421 257.729 305.138 256.072 303.639C249.134 297.417 241.325 292.372 234.621 285.913C227.603 279.216 221.057 271.889 215.299 264.01C204.415 249.121 195.977 232.496 190.457 214.85C187.145 204.214 184.936 193.261 183.282 182.231C181.704 171.439 179.338 159.621 182.099 148.828C184.385 139.925 189.431 132.047 192.508 123.46C193.768 119.992 194.717 116.37 194.951 112.667C195.111 110.775 194.323 107.94 194.874 106.128C197.317 97.7754 202.604 104.709 204.495 107.153C205.204 108.097 206.624 106.916 206.153 105.891C204.101 102.109 199.212 96.3567 194.48 99.745C189.825 103.053 192.191 112.744 191.088 117.395C189.511 123.931 186.356 129.92 183.516 136.066C182.57 132.44 181.073 128.738 180.047 125.273C179.81 124.485 178.55 124.799 178.784 125.587C179.89 129.92 180.521 134.884 182.176 139.137C181.938 139.768 181.624 140.319 181.387 140.95C180.678 142.762 180.047 144.652 179.495 146.465C175.472 138.349 169.557 128.818 169.48 119.835C169.48 119.047 168.217 119.047 168.217 119.835C167.98 130 173.738 140.636 178.47 149.459C178.55 149.616 178.627 149.696 178.707 149.773C177.601 154.974 177.444 160.332 177.838 165.924C179.258 185.7 182.807 205.079 189.274 223.359C181.704 204.608 173.263 186.014 169.006 166.318C168.849 165.53 167.586 165.847 167.743 166.635C170.189 179.634 174.526 191.923 179.258 204.291C181.073 209.098 182.727 214.219 184.542 219.34C182.57 215.875 180.678 212.406 178.864 208.861C172.24 196.099 164.905 183.099 162.222 168.761C159.622 155.131 158.673 139.454 160.173 125.667C160.962 118.416 163.485 110.775 169.163 105.971C175.235 100.85 183.439 101.007 189.591 105.734C190.537 106.522 191.563 104.946 190.851 104.158C182.807 94.704 168.691 99.508 162.302 108.334C152.918 121.254 155.284 140.636 156.23 155.525C156.782 163.954 157.965 172.383 160.645 180.422C163.405 188.457 167.428 196.099 171.215 203.663C175.472 212.169 179.967 220.679 185.016 228.714C184.699 228.557 184.465 228.48 184.07 228.4C183.121 228.243 182.099 228.086 181.073 228.086C179.733 228.006 177.838 227.849 176.655 228.637C171.452 223.516 166.088 218.632 160.173 214.219C144.477 202.481 120.818 193.104 101.97 203.346C101.419 203.663 101.181 204.134 101.181 204.685C92.2689 211.699 79.179 213.511 73.8156 224.461C70.8951 230.45 69.3979 237.46 67.0319 243.683C64.823 249.672 66.4004 254.085 69.478 259.44C70.6609 261.49 73.8926 259.6 72.6326 257.55C70.1865 253.454 68.7663 249.752 70.3436 245.025C71.1323 242.975 72.2383 240.926 73.0269 238.642ZM95.2664 300.411C86.1969 297.653 80.2819 288.356 77.0472 278.271C76.9702 278.191 76.8131 278.191 76.733 278.114C76.0244 277.72 76.1014 276.933 76.4958 276.459C74.5241 269.605 73.7355 262.434 73.9727 256.92C74.2099 252.349 75.3929 248.096 77.5216 244C80.362 238.722 81.9393 233.915 83.3565 228.086C85.0139 221.153 87.617 214.533 94.8721 212.013C95.975 211.619 96.3693 213.274 95.3465 213.745C86.1168 217.527 86.7483 228.637 84.6195 236.593C83.3565 241.243 80.9905 245.025 79.3362 249.198C101.261 257.077 123.184 265.035 145.109 272.993C156.23 277.01 167.428 281.109 178.55 285.205C189.197 289.144 199.683 293.554 210.804 296.078C211.356 296.155 211.119 296.943 210.567 296.866C188.014 292.609 166.088 282.918 144.557 275.197C122.555 267.318 100.55 259.44 78.5475 251.485C77.916 253.454 77.5216 255.581 77.4415 257.864C77.3645 264.561 78.5475 271.575 81.1507 277.954C88.877 282.131 97.0008 285.599 105.439 288.119C113.486 290.563 121.766 291.822 129.967 293.634C137.854 295.447 143.926 298.912 150.71 303.245C158.439 308.129 166.954 311.675 175.866 313.644C176.341 313.724 176.184 314.512 175.629 314.432C167.428 312.779 159.779 310.259 152.444 306.16C144.083 301.433 136.985 297.1 127.444 295.21C111.671 292.059 96.8437 288.356 82.6479 281.266C85.8826 287.805 90.4544 293.554 96.6065 297.573C98.0267 298.441 97.0809 300.962 95.2664 300.411ZM386.912 185.149C387.543 186.408 388.252 188.14 389.198 189.402C384.309 191.766 379.734 194.603 375.553 198.225C367.038 205.633 360.412 214.77 350.477 220.208C353 216.269 355.523 212.406 358.283 208.624C365.855 198.305 376.185 190.033 384.466 180.262C385.097 181.998 386.123 183.573 386.912 185.149ZM392.51 165.293C382.574 181.287 366.801 192.003 355.443 206.815C349.371 214.693 344.087 223.199 338.724 231.552C332.572 241.006 325.317 250.38 320.348 260.388C319.559 262.041 321.768 264.01 323.031 262.434C324.528 260.545 326.028 258.652 327.368 256.606C327.606 256.843 328.077 256.92 328.471 256.606C336.989 249.515 347.162 244.471 355.366 236.987C363.804 229.188 368.141 217.764 377.842 211.305C378.551 210.831 377.919 209.729 377.131 210.123C367.59 216.189 363.095 226.431 355.209 234.229C348.031 241.4 337.778 245.182 330.443 252.116C334.229 246.284 337.778 240.218 341.484 234.466C343.773 230.844 346.059 227.219 348.345 223.593C348.505 223.593 348.662 223.593 348.819 223.593C357.575 220.759 364.041 214.376 370.427 208.153C379.025 199.724 387.701 193.498 399.213 189.559C403.945 187.983 408.914 186.094 413.883 185.226C420.824 184.044 422.796 191.058 427.21 194.603C433.757 199.958 443.301 201.063 448.821 207.679C448.347 207.679 447.953 207.679 447.481 207.679C442.118 207.442 436.992 206.972 431.628 207.759C408.837 210.988 391.721 227.849 378.157 245.182C377.605 245.89 378.551 246.995 379.182 246.207C389.986 233.284 402.605 220.996 418.615 215.007C424.216 212.88 429.971 211.699 435.886 211.462C429.419 217.921 423.11 223.83 415.541 229.268C408.677 234.229 401.659 239.116 395.744 245.102C388.961 251.956 385.335 260.228 381.074 268.737C375.634 279.767 367.433 288.276 355.76 292.609C355.128 292.846 355.443 293.791 355.997 293.554C364.512 290.563 371.927 285.599 377.368 278.351C384.389 268.894 387.226 257.157 395.35 248.333C402.134 240.926 410.649 235.411 418.772 229.502C425.713 224.461 433.757 218.866 438.252 211.305C439.595 211.305 440.935 211.305 442.355 211.462C446.375 211.776 450.399 212.33 454.419 211.699C455.996 211.462 467.432 208.861 467.826 212.563C467.512 212.33 467.038 212.33 466.723 212.723C458.917 221.784 451.187 229.896 440.935 236.279C440.223 236.753 440.855 237.774 441.566 237.38C451.187 232.259 460.494 225.092 466.723 216.032C466.88 217.37 468.695 218.472 469.798 217.214C473.584 212.8 470.272 206.892 464.832 205.947C461.046 205.239 457.102 206.341 453.159 207.129C453.159 207.129 453.159 207.049 453.079 207.049C448.11 198.462 437.937 197.517 430.525 192.003C426.582 189.088 425.082 183.413 420.43 181.444C416.012 179.634 410.886 181.524 406.548 182.785C401.739 184.201 397.084 185.777 392.51 187.746C392.115 186.094 390.932 184.438 389.986 183.179C388.803 181.524 387.383 179.791 385.572 178.766C388.803 174.827 391.644 170.651 393.853 165.924C394.247 165.216 393.064 164.428 392.51 165.293Z"/>
</mask>
<path d="M161.119 450.652C158.279 457.032 152.287 465.464 144.795 467.354C147.398 469.874 150.392 471.53 154.101 471.056C156.23 470.742 156.782 474.524 154.653 474.838C145.978 476.1 140.771 469.009 136.514 462.389C131.07 453.88 127.287 445.688 126.181 435.603C125.473 429.223 125.392 422.76 123.972 416.458C122.869 411.497 120.189 407.004 119.006 402.043C117.663 396.291 119.635 389.594 126.104 388.489C127.207 388.332 127.758 389.908 126.575 390.225C115.771 392.982 124.209 406.69 126.104 412.678C128.153 419.138 128.39 425.912 129.179 432.531C130.204 440.881 132.333 448.208 136.671 455.456C138.405 458.373 140.457 462.153 143.06 465.384C146.686 464.282 149.684 462.863 152.601 459.949C155.599 456.955 157.65 453.252 160.25 449.941C160.645 449.313 161.433 450.101 161.119 450.652ZM220.977 441.512C232.65 434.895 242.588 424.73 248.266 412.678C248.74 411.731 250 412.441 249.843 413.306C247.397 426.072 232.573 437.102 221.689 442.693C220.9 443.167 220.188 441.986 220.977 441.512ZM406.234 347.051C397.716 344.764 389.121 345.158 380.446 344.844C373.899 344.607 366.407 344.213 360.806 340.431C360.175 339.96 360.569 338.935 361.358 339.172C369.561 341.219 377.131 342.56 385.572 342.954C392.747 343.268 399.768 343.742 406.628 346.026C407.18 346.183 406.943 347.208 406.234 347.051ZM345.585 391.878C341.09 390.459 335.726 388.412 332.495 384.787C332.1 384.316 332.572 383.605 333.126 383.922C335.098 385.024 336.909 386.6 338.881 387.701C341.09 388.963 343.379 390.065 345.822 390.933C346.373 391.17 346.139 392.035 345.585 391.878ZM398.03 206.261C400.396 202.638 405.128 199.25 409.703 200.589C410.414 200.826 410.492 201.851 409.703 202.008C407.811 202.401 405.917 202.481 404.025 203.269C402.134 204.134 400.239 205.316 398.899 206.892C398.505 207.366 397.716 206.735 398.03 206.261ZM373.662 252.349C358.203 268.266 344.796 287.018 322.874 293.871C322.319 294.028 322.085 293.16 322.636 293.003C333.992 288.827 343.379 281.503 351.58 272.756C358.44 265.429 364.512 257 372.636 251.011C373.425 250.46 374.293 251.722 373.662 252.349ZM305.523 200.826C302.446 203.109 301.343 210.911 300.317 214.456C299.054 218.946 297.794 223.359 296.688 227.849C296.531 228.4 295.665 228.163 295.822 227.612C297.319 220.602 298.897 213.668 300.791 206.815C301.58 204.057 301.814 199.801 305.206 199.724C305.837 199.644 305.918 200.512 305.523 200.826ZM335.175 160.646C340.301 152.293 344.956 143.707 346.928 134.016C348.739 124.799 349.528 115.188 351.974 106.128C352.211 105.34 353.551 105.497 353.471 106.365C352.763 115.976 350.634 126.138 348.505 135.592C346.373 145.203 341.247 153.081 335.964 161.197C335.649 161.671 334.781 161.197 335.175 160.646ZM301.025 241.48C304.497 221.073 311.278 201.771 318.77 182.548C322.399 173.094 326.185 163.64 329.417 154.106C332.809 144.181 335.175 134.096 338.172 124.011C338.41 123.223 339.75 123.38 339.67 124.248C337.541 144.181 328.551 163.717 321.296 182.231C313.644 201.614 305.68 221.23 301.974 241.794C301.814 242.344 300.948 242.108 301.025 241.48ZM147.555 263.773C157.727 265.823 167.823 268.343 177.838 270.787C185.962 272.833 195.031 274.489 202.524 278.351C203.392 278.822 202.761 280.004 201.892 279.847C193.217 278.351 184.622 274.963 176.024 272.676C166.403 270.156 156.701 267.635 147.238 264.721C146.686 264.484 146.923 263.696 147.555 263.773ZM133.359 229.345C132.413 229.031 132.808 227.692 133.753 227.849C142.034 229.662 149.527 233.995 156.387 238.799C156.701 239.036 156.387 239.587 156.073 239.35C149.052 234.703 141.323 231.946 133.359 229.345ZM118.218 225.957C136.119 231.709 154.021 239.981 170.109 249.592C170.583 249.829 170.269 250.617 169.714 250.46C169.163 250.303 168.611 250.146 168.06 249.986C167.823 249.909 167.823 249.515 168.137 249.515C165.22 249.515 160.093 245.733 157.333 244.471C153.233 242.501 149.132 240.612 144.952 238.799C135.962 234.86 126.813 231.552 117.743 227.926C116.56 227.375 117.035 225.563 118.218 225.957ZM189.116 153.004C189.668 182.075 195.111 209.729 208.439 235.885C208.753 236.593 207.807 237.147 207.413 236.516C193.611 211.382 185.33 181.918 187.065 153.081C187.145 151.666 189.036 151.666 189.116 153.004ZM206.547 111.249C208.439 117.158 208.596 123.617 209.464 129.683C210.49 136.854 212.068 144.021 214.039 151.035C214.196 151.743 213.17 151.98 213.013 151.349C210.724 144.415 208.833 137.484 207.57 130.234C206.467 123.537 206.073 116.841 204.181 110.304C203.864 109.122 205.521 108.648 205.992 109.673C206.23 109.356 206.547 109.199 207.018 109.279C216.088 110.855 223.109 117.234 225.869 125.981C226.103 126.612 225.08 126.849 224.92 126.218C222.083 118.259 214.905 112.587 206.547 111.249ZM258.438 174.513C254.261 162.615 251.106 151.349 243.454 140.95C243.139 140.476 243.928 139.848 244.242 140.319C251.815 149.773 259.07 161.908 259.701 174.276C259.781 175.064 258.675 175.141 258.438 174.513ZM253.866 293.871C254.969 294.579 255.995 295.21 257.098 295.841C257.572 296.078 258.044 296.235 258.518 296.312C259.938 299.229 261.198 302.144 262.461 305.058C259.544 301.356 256.627 297.653 253.866 293.871ZM270.742 300.251C271.137 302.457 271.451 304.744 271.688 306.948C270.98 306.16 270.348 305.372 269.639 304.584C267.825 300.488 266.01 296.392 264.433 292.296C261.359 284.417 258.361 276.539 255.521 268.66C256.704 270.63 258.204 272.363 260.015 273.544C260.964 274.175 261.91 274.332 262.699 274.175C263.013 274.726 263.33 275.197 263.725 275.671C263.725 275.751 263.802 275.751 263.882 275.828C263.644 276.222 263.564 276.773 263.725 277.403C265.536 285.205 269.402 292.216 270.742 300.251ZM298.031 301.433C295.822 303.876 293.533 306.083 291.09 308.289C292.905 305.609 294.559 302.851 296.059 300.017C296.768 300.488 297.4 300.962 298.031 301.433ZM315.539 285.442V285.362L315.616 285.442C315.616 285.362 315.616 285.362 315.539 285.442ZM262.699 294.422C262.699 294.422 262.776 294.502 262.776 294.579C262.776 294.502 262.776 294.502 262.699 294.422ZM276.106 290.64C276.106 290.009 276.106 289.458 276.026 288.827C276.343 290.089 276.577 291.271 276.894 292.533C276.657 291.822 276.343 291.191 276.106 290.64ZM292.668 280.004C292.982 280.004 293.299 279.927 293.613 279.847C293.139 280.872 292.587 281.974 292.116 282.998C292.193 281.974 292.43 281.029 292.668 280.004ZM253.472 282.998C253.312 282.841 253.392 282.841 253.472 282.998V282.998ZM252.998 128.501C253.078 119.992 251.815 111.486 250.474 103.133C250.394 102.426 249.134 102.582 249.211 103.29C250.08 110.461 250.317 117.628 250.632 124.879C250.237 124.248 249.843 123.697 249.449 123.143C244.717 116.607 238.645 110.855 231.704 107.073C231.784 106.993 231.861 106.916 231.941 106.836C232.018 106.679 232.178 106.522 232.255 106.365C232.807 105.577 231.784 104.789 230.995 105.103C233.518 103.764 234.858 100.533 236.91 98.0924C238.802 95.8858 241.011 93.9162 243.219 92.0235C245.585 89.977 250.08 85.093 253.392 84.9329C256.466 84.776 257.415 88.5582 259.07 90.7648C266.485 100.85 278.315 109.042 277.052 122.986C276.971 123.697 277.366 124.248 277.92 124.562C272.32 136.223 270.268 149.459 268.614 162.378C268.533 162.065 268.456 161.748 268.296 161.434C270.111 155.211 268.614 147.566 268.296 141.424C267.745 131.496 267.431 121.648 264.908 111.957C264.67 111.092 263.407 111.486 263.564 112.35C265.459 121.174 265.616 130.157 266.01 139.137C266.248 144.575 267.35 151.112 266.799 157.021C265.379 153.475 263.802 150.01 262.304 146.622C259.387 140.476 256.466 134.333 252.998 128.501ZM466.486 222.965C466.409 222.965 466.329 223.042 466.249 223.042C466.329 222.335 466.329 221.547 466.409 220.836C466.486 220.048 465.146 219.814 464.989 220.679C464.043 225.249 461.991 229.345 460.651 233.835C460.1 235.571 462.78 236.753 463.569 235.097C465.146 231.946 465.778 228.243 466.092 224.698C466.249 224.855 466.486 224.935 466.723 225.012C472.481 225.643 466.172 238.562 464.989 240.138C464.832 240.375 464.672 240.532 464.514 240.769C463.806 240.455 462.937 241.32 463.254 242.108C461.283 244 458.917 245.419 456.628 246.915C453.079 249.278 449.293 251.722 448.741 256.212C448.584 257.313 450.162 257.707 450.793 257.077C454.656 253.374 458.285 250.54 462.623 247.465C463.412 246.915 464.12 246.364 464.752 245.733C465.697 248.964 465.62 252.429 464.12 255.501C462.466 258.969 459.074 260.859 457.102 264.01C454.656 267.792 453.868 271.101 449.767 273.781C446.375 275.985 442.432 277.327 438.726 278.822C431.471 281.737 424.216 284.494 416.958 287.095C416.958 287.095 416.958 287.095 417.038 287.018C421.376 284.494 425.399 281.266 429.576 278.428C434.308 275.197 439.277 272.206 443.852 268.737C444.404 268.343 443.932 267.555 443.301 267.872C438.489 270.393 433.363 273.227 428.473 276.302C433.048 271.732 437.623 267.242 442.826 263.379C443.772 262.671 442.984 261.41 441.961 261.884C432.891 265.98 426.345 273.621 419.01 280.084C414.672 283.943 410.02 287.251 404.814 289.852C400.082 292.296 394.956 293.554 390.304 296.078C390.304 296.078 390.304 296.078 390.224 296.078C385.097 297.73 379.891 299.306 374.765 300.882C382.969 292.609 388.332 280.004 398.347 274.252C398.899 273.938 398.424 273.15 397.873 273.464C390.932 277.247 386.123 283.155 381.311 289.301C377.291 294.422 373.425 298.912 368.616 302.774C367.433 303.088 366.25 303.482 365.067 303.796C367.51 301.513 369.719 298.835 371.61 296.155C380.285 283.943 385.966 270.787 398.505 261.727C399.056 261.333 398.505 260.465 397.953 260.859C388.252 267.398 381.863 275.591 375.871 285.519C371.139 293.32 366.17 300.725 359.072 305.452C353.788 306.948 348.425 308.366 343.061 309.785C335.332 311.755 327.526 313.724 319.719 315.457C315.458 316.402 310.489 317.507 305.918 317.27C307.178 316.562 308.441 315.851 309.701 315.143C318.219 310.022 326.657 304.664 335.098 299.543C335.726 299.149 335.175 298.204 334.543 298.518C327.288 302.694 319.953 306.791 312.698 311.047C309.229 313.093 305.757 315.143 302.131 316.719C300.948 316.402 299.765 315.931 298.74 315.3C301.737 311.518 304.26 307.502 306.546 303.168C306.626 303.008 306.706 302.774 306.783 302.614C307.258 302.144 307.652 301.67 307.966 301.039C309.229 300.725 310.332 299.7 309.701 298.204C309.701 298.124 309.624 298.047 309.624 297.967C312.227 294.896 314.987 291.979 318.062 289.381C319.088 288.513 318.93 287.251 318.299 286.387C318.93 286.387 319.559 286.307 320.19 285.993C322.162 285.048 324.371 282.684 326.105 279.847C327.211 278.822 328.234 277.72 329.26 276.616C334.229 271.338 339.041 265.98 343.93 260.702C344.482 260.071 343.613 259.206 342.984 259.757C338.172 264.641 333.44 270.076 328.234 274.883C329.734 270.076 328.946 265.429 323.188 264.721C318.456 264.09 314.75 268.106 312.461 271.732C309.938 275.671 308.598 280.398 309.386 285.048C309.701 286.701 310.964 287.412 312.304 287.332C309.781 289.144 307.495 291.114 305.363 293.24C303.866 292.372 302.208 291.822 300.474 291.508C305.523 281.423 309.624 270.864 313.487 260.308C313.804 259.52 312.541 259.206 312.304 259.994C308.123 270.55 303.786 281.109 298.425 291.191C297.871 291.114 297.4 291.034 296.848 291.034C293.219 290.72 291.485 295.761 293.928 298.047C294.008 298.124 294.165 298.281 294.245 298.361C291.562 302.614 288.644 306.714 285.727 310.73C285.964 307.421 286.596 304.19 287.461 301.039C288.407 297.493 289.59 294.108 290.459 290.563C292.982 286.15 295.111 281.503 297.162 276.773C302.051 265.509 306.626 254.162 311.358 242.818C311.595 242.188 310.489 241.714 310.175 242.344C305.68 252.429 301.186 262.434 296.688 272.519C297.082 265.272 297.871 252.823 289.75 252.586C285.413 252.429 284.464 256.369 284.464 259.757C284.464 264.247 283.912 271.024 286.515 274.883C286.91 275.434 287.461 275.751 288.013 275.908C288.013 276.853 288.487 277.797 289.119 278.508C287.147 282.211 284.544 285.599 282.729 289.381C282.492 289.932 282.258 290.483 282.021 290.957C282.021 289.221 281.941 287.412 281.864 285.599C281.389 272.206 280.758 258.812 280.758 245.339C280.838 218.078 283.281 190.821 291.167 164.742C291.404 163.954 290.144 163.56 289.907 164.428C282.335 188.457 279.26 213.511 278.629 238.642C278.315 251.405 278.549 264.167 279.103 276.933C279.26 281.266 279.498 285.676 279.575 290.009C276.343 276.459 271.925 262.908 270.742 249.121C268.691 224.381 272.477 199.25 277.683 175.064C277.76 174.59 277.052 174.353 276.971 174.827C272.557 194.209 268.691 213.668 268.296 233.521C267.036 211.619 269.008 189.716 271.768 168.05C274.291 148.277 276.183 124.719 292.193 110.618C295.899 107.31 300.16 104.789 304.969 103.37C308.441 102.345 312.067 101.952 315.301 100.219C308.835 107.546 304.26 117.314 301.42 126.138C301.186 126.926 302.369 127.243 302.683 126.455C304.969 120.466 307.729 114.714 311.278 109.436C314.513 104.552 318.613 100.533 322.085 95.8858C322.319 95.5688 322.162 95.098 321.848 94.861C322.556 94.1532 323.268 93.5223 324.057 92.8914C329.972 88.0074 336.909 89.3461 341.878 94.704L341.959 94.781C342.196 95.9627 343.85 95.9627 344.007 94.704C343.93 92.3405 344.876 90.7648 346.848 89.82C348.111 88.0843 349.688 87.8504 351.499 89.1891C354.577 90.0539 355.68 91.1587 357.494 93.7592C359.546 96.6736 361.043 99.982 361.989 103.29C363.961 110.067 364.041 117.234 362.621 124.091C361.201 131.182 358.363 137.878 354.971 144.258C351.817 150.09 347.636 155.605 345.585 161.985C345.033 163.797 347.716 164.899 348.662 163.246C348.819 163.009 348.899 162.772 349.056 162.535C349.214 162.772 349.608 162.929 349.922 162.695C355.286 159.07 359.86 153.635 365.618 150.484C362.935 157.968 358.203 164.034 354.026 170.731C349.608 177.898 345.902 185.306 342.353 192.947C342.036 193.578 342.984 194.209 343.379 193.498C347.716 185.149 352.525 176.954 357.652 169.075C361.438 163.323 367.353 157.181 367.273 149.853C367.273 149.773 367.273 149.696 367.196 149.616C368.221 149.142 369.324 148.748 370.427 148.434C381.234 145.597 388.646 152.373 391.012 162.302C391.25 163.403 393.064 163.483 393.298 162.302C394.956 153.318 386.595 145.834 378.237 144.889C367.353 143.707 357.575 152.453 350.477 160.095C360.335 143.313 371.61 124.405 366.09 104.235C364.355 97.9323 359.941 88.3213 353.077 85.9578C348.268 84.3051 342.824 87.8504 342.116 92.6544C339.275 89.2661 335.018 87.4565 330.443 87.6904C322.874 88.0843 319.402 95.2549 312.855 97.9323C305.6 100.927 298.74 101.321 292.193 106.285C287.698 109.75 283.912 114.083 280.915 118.89C280.601 112.901 277.84 107.546 274.134 102.659C271.688 99.508 268.851 96.5936 266.248 93.5992C263.25 90.2139 261.278 86.1947 258.438 82.8064C254.261 77.9224 247.477 84.1451 244.008 87.1395C238.17 92.1836 231.547 97.7754 229.338 105.497C229.338 105.577 229.338 105.654 229.338 105.654C223.503 102.976 217.114 101.638 210.253 102.426C208.99 102.582 208.913 104.552 210.253 104.472C244.402 102.896 259.387 146.702 266.799 172.857C266.879 173.094 267.036 173.331 267.193 173.488C264.67 193.027 263.093 212.723 264.039 232.42C264.827 248.964 269.008 265.192 271.057 281.503C269.954 279.69 268.928 277.877 268.219 275.908C267.982 275.12 267.431 274.646 266.879 274.489C269.954 267.872 266.562 253.137 258.675 251.799C253.786 250.934 251.972 255.03 252.289 258.969C244.637 237.067 237.699 214.85 231.704 192.473C231.467 191.686 230.284 192.003 230.521 192.79C236.356 216.032 242.902 239.036 250.789 261.727C253.629 269.919 256.627 278.034 259.701 286.07C258.755 284.731 257.649 283.549 256.547 282.367C250.789 270.864 245.505 259.206 240.693 247.309C231.072 223.359 223.66 198.619 217.508 173.565C217.351 173.094 216.639 173.251 216.719 173.802C221.608 200.275 229.495 226.037 239.59 250.934C243.454 260.388 247.634 269.762 252.129 278.902C251.972 278.822 251.815 278.665 251.734 278.585C250.08 277.483 247.24 278.114 246.374 280.004C246.057 280.635 245.9 281.266 245.743 281.897C235.961 267.005 227.761 250.934 223.109 233.678C222.872 232.89 221.766 233.207 221.926 233.995C226.263 252.509 234.544 269.368 245.111 285.125C250.08 292.533 255.444 299.7 261.041 306.634C262.147 307.972 263.17 309.391 264.276 310.81C260.333 309.154 256.152 307.735 252.289 306.083C251.42 305.689 250.632 306.948 251.5 307.421C256.704 309.865 262.067 313.016 267.508 315.143C267.668 315.38 267.825 315.614 268.062 315.774C268.614 316.719 269.245 317.663 269.874 318.608C269.716 318.608 269.479 318.608 269.245 318.688C268.296 318.925 267.35 319.239 266.405 319.553C260.015 317.35 253.235 315.931 246.845 313.644C237.699 310.493 228.706 306.791 220.111 302.381C219.48 302.064 218.848 303.008 219.56 303.402C232.178 310.573 246.531 317.426 261.041 320.972C255.995 321.76 251.34 322.234 245.98 321.366C240.536 320.421 235.253 318.688 230.046 316.956C229.101 316.639 228.786 318.057 229.652 318.371C235.727 320.735 243.296 323.809 250.632 324.44C250.157 324.597 249.686 324.754 249.211 324.834C241.011 326.961 233.281 326.961 225 325.305C210.567 322.471 197.712 319.319 182.807 320.578C155.913 322.941 121.135 331.845 104.179 303.876C103.704 303.088 102.207 303.562 102.602 304.584C113.168 333.734 151.104 328.613 175.001 325.699C183.202 324.674 191.402 323.886 199.683 324.597C206.624 325.148 213.328 327.038 220.111 328.536C185.253 333.34 155.836 356.742 129.81 379.115C127.838 380.771 130.676 383.528 132.647 381.953C160.331 358.788 188.248 334.839 225.237 329.638C225.475 329.718 225.789 329.718 226.026 329.795C229.732 330.426 233.281 330.663 236.83 330.583C231.861 332.552 227.052 334.839 222.397 337.123C212.933 341.773 203.155 346.894 194.951 353.667C191.402 356.582 188.485 359.893 185.962 363.672C182.727 368.636 179.021 371.551 174.526 375.256C167.348 381.085 161.276 389.277 158.596 398.18C158.439 398.731 159.228 399.048 159.542 398.574C164.194 388.489 169.874 381.165 178.784 374.625C185.882 369.424 189.116 361.469 195.82 355.794C210.885 343.031 229.732 336.335 247.871 329.167C255.283 327.668 262.542 325.148 269.874 322.547C270.191 322.547 270.505 322.471 270.662 322.234C271.217 321.917 271.611 321.366 271.688 320.815C272.163 321.366 272.557 321.917 273.108 322.471C262.067 326.093 251.183 330.506 241.248 336.415C229.101 343.662 220.188 353.43 213.09 365.565C208.913 372.732 205.047 379.903 199.843 386.443C194.637 392.982 188.642 398.891 183.282 405.271C174.683 415.513 167.271 427.567 167.428 441.355C167.428 441.986 168.374 441.986 168.374 441.355C169.163 425.124 179.178 412.835 189.668 401.332C199.132 391.013 207.018 380.691 214.039 368.559C221.294 356.031 229.889 345.946 242.431 338.461C251.972 332.712 262.381 328.85 272.794 325.068C271.845 325.936 270.899 326.804 269.954 327.591C263.802 333.026 257.967 338.621 252.289 344.53C241.088 356.188 231.31 368.716 222.32 382.11C221.926 382.66 222.791 383.134 223.186 382.58C231.941 370.686 241.562 359.182 251.734 348.469C256.389 343.582 261.198 338.855 266.167 334.288C269.165 331.531 272.24 328.379 275.631 325.779C273.188 334.602 269.716 343.031 264.985 350.91C262.067 355.874 258.675 360.521 254.889 364.854C252.129 368.085 248.423 370.923 246.688 374.862C244.56 379.823 244.322 385.024 241.482 389.908C238.645 394.792 234.701 399.048 230.521 402.907C222.32 410.472 213.013 416.695 205.521 425.124C205.047 425.678 205.835 426.543 206.387 425.992C214.116 417.406 224.055 411.337 232.573 403.618C240.299 396.605 245.268 388.806 247.791 378.641C249.369 372.418 254.969 368.322 258.912 363.515C262.067 359.656 264.827 355.56 267.35 351.227C271.845 343.505 275.317 335.233 277.683 326.644C277.76 326.724 277.92 326.881 277.997 326.961C278.235 327.275 278.472 327.511 278.786 327.668C279.498 328.299 280.126 328.93 280.838 329.561C280.915 329.638 280.995 329.638 281.075 329.638C280.286 336.335 277.132 343.268 275.08 349.334C272.4 357.213 269.559 365.014 266.405 372.732C266.167 373.363 267.273 373.837 267.508 373.206C271.217 364.777 274.766 356.348 277.84 347.681C280.049 341.379 283.441 334.288 283.361 327.431C284.464 327.038 285.57 326.487 286.673 325.856C285.49 340.591 284.781 355.166 280.52 369.504C275.949 384.71 266.325 397.943 264.039 413.86C263.802 415.356 266.01 415.987 266.325 414.488C269.479 398.18 279.892 384.393 284.624 368.479C287.067 360.287 288.644 351.698 289.67 342.954C290.064 345.238 290.459 347.521 290.933 349.651C293.693 362.257 296.925 374.782 300.317 387.231C300.554 388.175 301.974 387.781 301.814 386.837C299.765 375.019 297.477 363.278 294.953 351.461C293.77 346.026 292.825 340.591 292.668 334.996C292.51 330.189 293.219 325.542 293.613 320.815C293.77 320.815 294.008 320.735 294.165 320.735C294.322 322.077 294.482 323.492 294.716 324.834C294.165 327.118 294.639 329.167 295.585 331.137C296.768 338.935 298.265 346.734 301.106 353.824C304.892 363.121 311.438 370.606 319.639 376.278C320.348 376.752 320.979 375.65 320.348 375.096C306.706 365.328 301.894 350.99 299.054 335.784C300.631 337.359 302.369 338.778 304.023 340.037C308.441 343.348 313.016 346.42 317.824 349.177C322.636 351.935 329.34 353.984 332.02 359.182C332.338 359.813 333.203 359.262 332.889 358.631C329.811 352.409 322.319 350.045 316.799 346.5C310.175 342.244 301.42 337.28 298.108 329.875C297.714 327.198 297.319 324.44 296.925 321.76C301.58 326.724 306.469 331.451 312.147 335.153C320.508 340.591 330.286 342.954 339.593 346.34C360.018 353.824 379.577 364.383 397.007 377.383C397.479 377.696 397.873 376.989 397.479 376.595C381.548 364.383 364.512 354.218 345.979 346.577C336.358 342.637 325.868 340.117 316.799 335.153C310.332 331.608 304.892 326.567 299.765 321.289C322.242 328.693 346.848 330.977 370.193 332.395C382.889 333.183 396.77 335.153 409.389 333.577C422.244 331.925 431.865 321.446 445.43 325.228C447.244 325.779 448.19 323.258 446.693 322.234C437.149 316.008 426.188 323.335 417.118 326.961C404.657 331.925 388.884 329.007 375.791 328.299C354.577 327.198 333.915 324.911 313.33 320.972C321.296 320.027 329.497 317.27 335.649 315.694C356.706 310.416 377.605 304.27 398.11 297.18C408.206 293.714 418.221 290.009 428.159 286.15C436.28 282.998 446.138 280.398 453.236 275.12C455.839 273.15 457.34 270.944 458.837 268.029C460.965 263.773 464.752 261.016 466.961 256.92C469.403 252.273 469.169 247.228 466.803 242.975C468.143 241.48 469.246 239.824 470.035 237.934C471.612 234.86 474.767 221.073 466.486 222.965ZM414.04 380.217C416.644 377.066 417.589 374.388 417.827 370.369C417.984 367.928 418.064 365.642 420.193 364.146C420.981 363.595 422.007 364.383 422.007 365.171C422.084 366.904 421.456 368.559 421.218 370.292C420.981 371.868 420.824 373.52 420.35 375.096C419.404 377.776 417.67 380.217 415.223 381.716C414.198 382.267 413.332 381.005 414.04 380.217ZM323.108 402.593C331.863 407.791 340.064 405.034 349.451 405.745C353.945 406.139 357.809 408.108 362.146 409.29C366.878 410.549 371.533 410.235 376.108 408.973C369.561 404.64 363.724 399.756 356.311 396.685C355.837 396.448 356.154 395.66 356.626 395.897C364.118 398.891 372.559 402.357 378.157 408.422C385.255 406.139 391.721 402.907 397.796 398.891C397.716 398.811 397.636 398.654 397.559 398.497C393.93 386.757 382.417 381.953 372.559 376.121C371.927 375.727 372.479 374.862 373.11 375.176C382.969 380.06 397.007 385.498 399.293 397.786C400.79 396.762 402.211 395.66 403.711 394.478C404.814 393.61 406.077 394.635 405.602 395.897C401.896 404.406 390.067 408.185 382.1 411.26C376.897 413.229 371.376 414.648 365.695 414.094C359.86 413.543 354.814 410.315 349.056 409.684C343.299 409.053 337.541 410.392 331.783 409.367C327.526 408.579 323.582 406.77 320.113 404.089C313.173 398.811 307.572 390.933 303.391 383.448C302.84 382.504 304.26 381.636 304.892 382.58C310.175 390.065 314.987 397.786 323.108 402.593ZM442.118 358.317C442.906 364.303 437.78 369.581 434.231 373.68C432.891 375.176 431.234 376.672 430.131 378.327C427.371 382.187 428.473 383.605 427.842 387.307C427.448 389.671 426.502 391.878 425.005 393.847C423.267 396.134 420.824 398.103 418.064 398.811C414.909 407.951 405.997 413.072 397.007 415.513C383.995 418.981 369.956 419.846 356.626 421.579C345.427 423.077 333.126 424.967 322.479 420.003C313.173 415.67 305.918 405.588 302.997 395.974C302.446 394.084 304.969 393.376 305.918 394.715C312.621 403.695 315.853 413.78 327.606 417.482C337.227 420.477 347.793 418.664 357.494 417.406C368.616 415.987 379.971 415.042 391.012 413.149C400.951 411.417 410.254 407.714 415.461 399.048C414.909 399.048 414.435 398.968 413.883 398.891C413.175 398.731 412.938 397.549 413.646 397.236C416.329 395.974 419.247 395.109 421.376 392.982C425.082 389.277 423.979 385.732 424.925 381.242C425.793 377.226 429.342 374.388 431.942 371.474C433.363 369.898 434.783 368.242 435.966 366.59C437.857 363.909 439.435 359.576 438.175 356.268C437.306 354.061 434.308 352.409 432.891 350.516C430.365 346.971 429.894 342.874 431.548 338.855C431.785 338.227 433.048 338.227 432.891 339.015C432.103 345.552 434.863 348.389 438.963 352.642C440.541 354.298 441.801 356.031 442.118 358.317ZM451.502 332.159C452.213 334.759 450.399 336.415 448.427 337.753C444.641 340.274 440.46 343.268 436.28 345.081C435.257 345.552 433.914 344.213 434.94 343.348C437.149 341.536 439.672 340.197 442.118 338.698C443.538 337.833 448.27 335.864 449.059 333.734C446.455 333.577 444.247 332.082 443.144 329.638C442.826 329.007 443.378 328.456 443.932 328.456C439.752 326.33 434.231 330.112 430.759 332.395C426.816 334.996 423.742 338.304 420.507 341.693C420.035 342.167 419.167 341.536 419.561 340.985C422.873 335.47 428.079 331.057 433.757 328.062C437.543 326.093 442.275 323.886 445.904 327.198C446.77 327.985 445.587 329.561 444.641 328.85C444.641 328.85 444.561 328.85 444.561 328.773C445.824 330.583 447.876 331.531 450.081 331.214C450.636 331.137 451.345 331.451 451.502 332.159ZM266.719 419.058C268.614 428.435 265.536 438.834 260.49 446.713C259.07 448.996 256.547 453.646 253.549 453.96C250.632 454.274 249.529 449.39 247.477 449.153C247.477 449.47 247.397 449.707 247.24 450.021C240.222 461.288 225.315 465.304 213.251 468.535C205.204 470.742 196.846 472.948 188.408 472.948C179.81 473.025 171.529 470.191 162.934 469.954C161.988 469.954 161.988 468.535 162.934 468.455C170.426 467.747 177.601 469.086 185.093 469.243C193.217 469.403 201.103 467.667 208.913 465.541C222.477 461.919 234.464 458.136 244.402 447.814C245.111 447.107 245.98 447.184 246.608 447.577C248.028 446.95 248.266 446.95 249.923 447.657C251.657 448.365 250.789 449.153 252.683 449.547C255.444 450.101 256.309 447.184 257.729 444.98C262.699 436.865 263.487 428.512 263.959 419.295C264.039 417.956 266.405 417.482 266.719 419.058ZM180.755 231.001C181.624 231.001 182.493 231.001 183.439 231.001C184.304 231.078 185.253 230.921 186.042 231.001C186.119 231.001 186.276 231.001 186.356 231.001C190.299 237.067 194.637 242.975 199.526 248.41C199.92 248.804 200.315 249.041 200.789 249.121C201.892 251.168 203.075 253.137 204.258 255.107C197.712 249.358 191.325 243.526 185.093 237.223C183.121 235.254 181.15 233.207 179.101 231.238C179.572 231.078 180.127 231.001 180.755 231.001ZM73.0269 238.642C74.9986 232.496 75.3929 225.957 80.0447 221.073C86.1969 214.693 95.4235 212.406 102.127 206.578C102.444 206.735 102.839 206.815 103.31 206.655C114.508 203.109 124.998 202.401 136.276 205.947C146.766 209.255 155.993 215.558 164.274 222.571C178.707 234.703 191.008 250.774 207.493 260.308C209.307 263.065 211.199 265.743 213.251 268.423C218.771 275.751 224.843 282.684 231.547 288.987C238.17 295.29 245.662 302.381 253.866 306.554C255.601 307.421 257.729 305.138 256.072 303.639C249.134 297.417 241.325 292.372 234.621 285.913C227.603 279.216 221.057 271.889 215.299 264.01C204.415 249.121 195.977 232.496 190.457 214.85C187.145 204.214 184.936 193.261 183.282 182.231C181.704 171.439 179.338 159.621 182.099 148.828C184.385 139.925 189.431 132.047 192.508 123.46C193.768 119.992 194.717 116.37 194.951 112.667C195.111 110.775 194.323 107.94 194.874 106.128C197.317 97.7754 202.604 104.709 204.495 107.153C205.204 108.097 206.624 106.916 206.153 105.891C204.101 102.109 199.212 96.3567 194.48 99.745C189.825 103.053 192.191 112.744 191.088 117.395C189.511 123.931 186.356 129.92 183.516 136.066C182.57 132.44 181.073 128.738 180.047 125.273C179.81 124.485 178.55 124.799 178.784 125.587C179.89 129.92 180.521 134.884 182.176 139.137C181.938 139.768 181.624 140.319 181.387 140.95C180.678 142.762 180.047 144.652 179.495 146.465C175.472 138.349 169.557 128.818 169.48 119.835C169.48 119.047 168.217 119.047 168.217 119.835C167.98 130 173.738 140.636 178.47 149.459C178.55 149.616 178.627 149.696 178.707 149.773C177.601 154.974 177.444 160.332 177.838 165.924C179.258 185.7 182.807 205.079 189.274 223.359C181.704 204.608 173.263 186.014 169.006 166.318C168.849 165.53 167.586 165.847 167.743 166.635C170.189 179.634 174.526 191.923 179.258 204.291C181.073 209.098 182.727 214.219 184.542 219.34C182.57 215.875 180.678 212.406 178.864 208.861C172.24 196.099 164.905 183.099 162.222 168.761C159.622 155.131 158.673 139.454 160.173 125.667C160.962 118.416 163.485 110.775 169.163 105.971C175.235 100.85 183.439 101.007 189.591 105.734C190.537 106.522 191.563 104.946 190.851 104.158C182.807 94.704 168.691 99.508 162.302 108.334C152.918 121.254 155.284 140.636 156.23 155.525C156.782 163.954 157.965 172.383 160.645 180.422C163.405 188.457 167.428 196.099 171.215 203.663C175.472 212.169 179.967 220.679 185.016 228.714C184.699 228.557 184.465 228.48 184.07 228.4C183.121 228.243 182.099 228.086 181.073 228.086C179.733 228.006 177.838 227.849 176.655 228.637C171.452 223.516 166.088 218.632 160.173 214.219C144.477 202.481 120.818 193.104 101.97 203.346C101.419 203.663 101.181 204.134 101.181 204.685C92.2689 211.699 79.179 213.511 73.8156 224.461C70.8951 230.45 69.3979 237.46 67.0319 243.683C64.823 249.672 66.4004 254.085 69.478 259.44C70.6609 261.49 73.8926 259.6 72.6326 257.55C70.1865 253.454 68.7663 249.752 70.3436 245.025C71.1323 242.975 72.2383 240.926 73.0269 238.642ZM95.2664 300.411C86.1969 297.653 80.2819 288.356 77.0472 278.271C76.9702 278.191 76.8131 278.191 76.733 278.114C76.0244 277.72 76.1014 276.933 76.4958 276.459C74.5241 269.605 73.7355 262.434 73.9727 256.92C74.2099 252.349 75.3929 248.096 77.5216 244C80.362 238.722 81.9393 233.915 83.3565 228.086C85.0139 221.153 87.617 214.533 94.8721 212.013C95.975 211.619 96.3693 213.274 95.3465 213.745C86.1168 217.527 86.7483 228.637 84.6195 236.593C83.3565 241.243 80.9905 245.025 79.3362 249.198C101.261 257.077 123.184 265.035 145.109 272.993C156.23 277.01 167.428 281.109 178.55 285.205C189.197 289.144 199.683 293.554 210.804 296.078C211.356 296.155 211.119 296.943 210.567 296.866C188.014 292.609 166.088 282.918 144.557 275.197C122.555 267.318 100.55 259.44 78.5475 251.485C77.916 253.454 77.5216 255.581 77.4415 257.864C77.3645 264.561 78.5475 271.575 81.1507 277.954C88.877 282.131 97.0008 285.599 105.439 288.119C113.486 290.563 121.766 291.822 129.967 293.634C137.854 295.447 143.926 298.912 150.71 303.245C158.439 308.129 166.954 311.675 175.866 313.644C176.341 313.724 176.184 314.512 175.629 314.432C167.428 312.779 159.779 310.259 152.444 306.16C144.083 301.433 136.985 297.1 127.444 295.21C111.671 292.059 96.8437 288.356 82.6479 281.266C85.8826 287.805 90.4544 293.554 96.6065 297.573C98.0267 298.441 97.0809 300.962 95.2664 300.411ZM386.912 185.149C387.543 186.408 388.252 188.14 389.198 189.402C384.309 191.766 379.734 194.603 375.553 198.225C367.038 205.633 360.412 214.77 350.477 220.208C353 216.269 355.523 212.406 358.283 208.624C365.855 198.305 376.185 190.033 384.466 180.262C385.097 181.998 386.123 183.573 386.912 185.149ZM392.51 165.293C382.574 181.287 366.801 192.003 355.443 206.815C349.371 214.693 344.087 223.199 338.724 231.552C332.572 241.006 325.317 250.38 320.348 260.388C319.559 262.041 321.768 264.01 323.031 262.434C324.528 260.545 326.028 258.652 327.368 256.606C327.606 256.843 328.077 256.92 328.471 256.606C336.989 249.515 347.162 244.471 355.366 236.987C363.804 229.188 368.141 217.764 377.842 211.305C378.551 210.831 377.919 209.729 377.131 210.123C367.59 216.189 363.095 226.431 355.209 234.229C348.031 241.4 337.778 245.182 330.443 252.116C334.229 246.284 337.778 240.218 341.484 234.466C343.773 230.844 346.059 227.219 348.345 223.593C348.505 223.593 348.662 223.593 348.819 223.593C357.575 220.759 364.041 214.376 370.427 208.153C379.025 199.724 387.701 193.498 399.213 189.559C403.945 187.983 408.914 186.094 413.883 185.226C420.824 184.044 422.796 191.058 427.21 194.603C433.757 199.958 443.301 201.063 448.821 207.679C448.347 207.679 447.953 207.679 447.481 207.679C442.118 207.442 436.992 206.972 431.628 207.759C408.837 210.988 391.721 227.849 378.157 245.182C377.605 245.89 378.551 246.995 379.182 246.207C389.986 233.284 402.605 220.996 418.615 215.007C424.216 212.88 429.971 211.699 435.886 211.462C429.419 217.921 423.11 223.83 415.541 229.268C408.677 234.229 401.659 239.116 395.744 245.102C388.961 251.956 385.335 260.228 381.074 268.737C375.634 279.767 367.433 288.276 355.76 292.609C355.128 292.846 355.443 293.791 355.997 293.554C364.512 290.563 371.927 285.599 377.368 278.351C384.389 268.894 387.226 257.157 395.35 248.333C402.134 240.926 410.649 235.411 418.772 229.502C425.713 224.461 433.757 218.866 438.252 211.305C439.595 211.305 440.935 211.305 442.355 211.462C446.375 211.776 450.399 212.33 454.419 211.699C455.996 211.462 467.432 208.861 467.826 212.563C467.512 212.33 467.038 212.33 466.723 212.723C458.917 221.784 451.187 229.896 440.935 236.279C440.223 236.753 440.855 237.774 441.566 237.38C451.187 232.259 460.494 225.092 466.723 216.032C466.88 217.37 468.695 218.472 469.798 217.214C473.584 212.8 470.272 206.892 464.832 205.947C461.046 205.239 457.102 206.341 453.159 207.129C453.159 207.129 453.159 207.049 453.079 207.049C448.11 198.462 437.937 197.517 430.525 192.003C426.582 189.088 425.082 183.413 420.43 181.444C416.012 179.634 410.886 181.524 406.548 182.785C401.739 184.201 397.084 185.777 392.51 187.746C392.115 186.094 390.932 184.438 389.986 183.179C388.803 181.524 387.383 179.791 385.572 178.766C388.803 174.827 391.644 170.651 393.853 165.924C394.247 165.216 393.064 164.428 392.51 165.293Z" fill="white" stroke="white" stroke-opacity="0.2" stroke-width="2" mask="url(#path-3-inside-1_71_2)"/>
</g>
</svg>
