<svg width="1023" height="1107" viewBox="0 0 1023 1107" fill="none" xmlns="http://www.w3.org/2000/svg">
<mask id="mask0_71_2" style="mask-type:luminance" maskUnits="userSpaceOnUse" x="0" y="0" width="406" height="394">
<path d="M0 0H405.961V393.983H0V0Z" fill="white"/>
<path d="M405.461 0.5V393.482H0.5V0.5H405.461Z" stroke="white"/>
</mask>
<g mask="url(#mask0_71_2)">
<mask id="path-3-inside-1_71_2" fill="white">
<path d="M95.1192 369.652C92.2788 376.032 86.2868 384.464 78.7946 386.354C81.3978 388.874 84.3922 390.53 88.1014 390.056C90.2301 389.742 90.7816 393.524 88.6528 393.838C79.9776 395.1 74.7712 388.009 70.5137 381.39C65.0701 372.88 61.2871 364.688 60.1811 354.603C59.4725 348.223 59.3924 341.76 57.9722 335.458C56.8694 330.497 54.1892 326.004 53.0062 321.043C51.663 315.291 53.6346 308.594 60.1041 307.489C61.207 307.332 61.7584 308.908 60.5754 309.225C49.7714 311.982 58.2094 325.69 60.1041 331.678C62.1527 338.138 62.3899 344.912 63.1786 351.532C64.2045 359.881 66.3332 367.208 70.6708 374.456C72.4053 377.373 74.457 381.153 77.0602 384.384C80.6861 383.282 83.6836 381.863 86.6011 378.949C89.5986 375.955 91.6503 372.252 94.2504 368.941C94.6447 368.313 95.4334 369.101 95.1192 369.652ZM154.977 360.512C166.65 353.895 176.588 343.73 182.266 331.678C182.74 330.731 184 331.442 183.843 332.306C181.397 345.072 166.573 356.102 155.689 361.693C154.9 362.167 154.188 360.986 154.977 360.512ZM340.234 266.051C331.716 263.764 323.121 264.158 314.446 263.844C307.899 263.607 300.407 263.213 294.806 259.431C294.175 258.96 294.569 257.935 295.358 258.172C303.562 260.219 311.131 261.561 319.572 261.954C326.747 262.268 333.768 262.742 340.628 265.026C341.18 265.183 340.943 266.208 340.234 266.051ZM279.585 310.878C275.09 309.459 269.726 307.412 266.495 303.787C266.1 303.316 266.572 302.605 267.126 302.922C269.098 304.024 270.909 305.6 272.881 306.701C275.09 307.963 277.379 309.065 279.822 309.933C280.373 310.17 280.139 311.035 279.585 310.878ZM332.03 125.261C334.396 121.638 339.128 118.25 343.703 119.589C344.414 119.826 344.492 120.851 343.703 121.008C341.811 121.401 339.917 121.482 338.025 122.269C336.134 123.134 334.239 124.316 332.899 125.892C332.505 126.366 331.716 125.735 332.03 125.261ZM307.662 171.349C292.203 187.266 278.796 206.018 256.874 212.871C256.319 213.028 256.085 212.16 256.636 212.003C267.992 207.827 277.379 200.503 285.58 191.756C292.44 184.429 298.512 176 306.636 170.011C307.425 169.46 308.293 170.722 307.662 171.349ZM239.523 119.826C236.446 122.109 235.343 129.911 234.317 133.456C233.054 137.946 231.794 142.359 230.688 146.849C230.531 147.4 229.665 147.163 229.822 146.612C231.319 139.602 232.897 132.668 234.791 125.815C235.58 123.057 235.814 118.801 239.206 118.724C239.838 118.644 239.918 119.512 239.523 119.826ZM269.175 79.6458C274.301 71.2935 278.956 62.7072 280.928 53.0162C282.739 43.799 283.528 34.188 285.974 25.1278C286.211 24.3399 287.551 24.4969 287.471 25.3647C286.763 34.9758 284.634 45.1377 282.505 54.5918C280.373 64.2029 275.247 72.0813 269.964 80.1967C269.649 80.6707 268.781 80.1967 269.175 79.6458ZM235.025 160.48C238.497 140.073 245.278 120.771 252.77 101.548C256.399 92.0944 260.185 82.6403 263.417 73.1061C266.809 63.1812 269.175 53.0962 272.172 43.0112C272.41 42.2233 273.75 42.3803 273.67 43.2481C271.541 63.1812 262.551 82.7172 255.296 101.231C247.644 120.614 239.68 140.23 235.974 160.794C235.814 161.344 234.948 161.108 235.025 160.48ZM81.5549 182.773C91.7273 184.823 101.823 187.343 111.838 189.787C119.962 191.833 129.031 193.489 136.524 197.351C137.392 197.822 136.761 199.004 135.892 198.847C127.217 197.351 118.622 193.963 110.024 191.676C100.403 189.156 90.7015 186.635 81.2376 183.721C80.6861 183.484 80.9234 182.696 81.5549 182.773ZM67.3591 148.345C66.4133 148.031 66.8076 146.692 67.7534 146.849C76.0343 148.662 83.5265 152.995 90.3872 157.799C90.7015 158.036 90.3872 158.587 90.073 158.35C83.0521 153.703 75.3227 150.946 67.3591 148.345ZM52.2175 144.957C70.1194 150.709 88.0213 158.981 104.109 168.592C104.583 168.829 104.269 169.617 103.714 169.46C103.163 169.303 102.611 169.146 102.06 168.986C101.823 168.909 101.823 168.515 102.137 168.515C99.2196 168.515 94.0933 164.733 91.333 163.471C87.2326 161.501 83.1322 159.612 78.9517 157.799C69.9623 153.86 60.8126 150.552 51.7431 146.926C50.5601 146.375 51.0345 144.563 52.2175 144.957ZM123.116 72.0044C123.668 101.075 129.111 128.729 142.439 154.885C142.753 155.593 141.807 156.147 141.413 155.516C127.611 130.382 119.33 100.918 121.065 72.0813C121.145 70.6657 123.036 70.6657 123.116 72.0044ZM140.547 30.2487C142.439 36.1576 142.596 42.6173 143.464 48.683C144.49 55.8536 146.068 63.0211 148.039 70.0348C148.196 70.7426 147.17 70.9796 147.013 70.3487C144.724 63.4151 142.833 56.4845 141.57 49.2339C140.467 42.5372 140.073 35.8406 138.181 29.3039C137.864 28.1222 139.521 27.6482 139.992 28.6731C140.23 28.3561 140.547 28.1991 141.018 28.2791C150.088 29.8548 157.109 36.2345 159.869 44.9808C160.103 45.6117 159.08 45.8486 158.92 45.2177C156.083 37.2593 148.905 31.5875 140.547 30.2487ZM192.438 93.5131C188.261 81.6155 185.106 70.3487 177.454 59.9498C177.139 59.4759 177.928 58.848 178.242 59.3189C185.815 68.773 193.07 80.9076 193.701 93.2761C193.781 94.064 192.675 94.1409 192.438 93.5131ZM187.866 212.871C188.969 213.579 189.995 214.21 191.098 214.841C191.572 215.078 192.044 215.235 192.518 215.312C193.938 218.229 195.198 221.144 196.461 224.058C193.544 220.356 190.627 216.653 187.866 212.871ZM204.742 219.251C205.137 221.457 205.451 223.744 205.688 225.948C204.98 225.16 204.348 224.372 203.639 223.584C201.825 219.488 200.01 215.392 198.433 211.296C195.359 203.417 192.361 195.539 189.521 187.66C190.704 189.63 192.204 191.363 194.015 192.544C194.964 193.175 195.91 193.332 196.699 193.175C197.013 193.726 197.33 194.197 197.725 194.671C197.725 194.751 197.802 194.751 197.882 194.828C197.644 195.222 197.564 195.773 197.725 196.403C199.536 204.205 203.402 211.216 204.742 219.251ZM232.031 220.433C229.822 222.876 227.533 225.083 225.09 227.289C226.905 224.609 228.559 221.851 230.059 219.017C230.768 219.488 231.399 219.962 232.031 220.433ZM249.539 204.442V204.362L249.616 204.442C249.616 204.362 249.616 204.362 249.539 204.442ZM196.699 213.422C196.699 213.422 196.776 213.502 196.776 213.579C196.776 213.502 196.776 213.502 196.699 213.422ZM210.106 209.64C210.106 209.009 210.106 208.458 210.026 207.827C210.343 209.089 210.577 210.271 210.894 211.533C210.657 210.822 210.343 210.191 210.106 209.64ZM226.668 199.004C226.982 199.004 227.299 198.927 227.613 198.847C227.139 199.872 226.587 200.974 226.116 201.998C226.193 200.974 226.43 200.029 226.668 199.004ZM187.472 201.998C187.392 201.841 187.312 201.841 187.472 201.998ZM186.998 47.5013C187.078 38.9919 185.815 30.4857 184.474 22.1333C184.394 21.4255 183.134 21.5825 183.211 22.2903C184.08 29.4609 184.317 36.6284 184.632 43.879C184.237 43.2481 183.843 42.6973 183.449 42.1433C178.717 35.6067 172.645 29.8548 165.704 26.0726C165.784 25.9925 165.861 25.9156 165.941 25.8356C166.018 25.6786 166.178 25.5217 166.255 25.3647C166.807 24.5769 165.784 23.789 164.995 24.103C167.518 22.7642 168.858 19.5329 170.91 17.0924C172.802 14.8858 175.011 12.9162 177.219 11.0235C179.585 8.97699 184.08 4.09299 187.392 3.93296C190.466 3.776 191.415 7.55826 193.07 9.76484C200.485 19.8498 212.315 28.0422 211.052 41.9864C210.971 42.6973 211.366 43.2481 211.92 43.562C206.32 55.2227 204.268 68.4591 202.614 81.3785C202.533 81.0646 202.456 80.7476 202.296 80.4337C204.111 74.211 202.614 66.5664 202.296 60.4237C201.745 50.4957 201.431 40.6476 198.907 30.9566C198.67 30.0918 197.407 30.4857 197.564 31.3505C199.459 40.1737 199.616 49.157 200.01 58.1371C200.248 63.5751 201.35 70.1117 200.799 76.0205C199.379 72.4753 197.802 69.01 196.304 65.6216C193.387 59.4759 190.466 53.3331 186.998 47.5013ZM400.486 141.965C400.409 141.965 400.329 142.042 400.249 142.042C400.329 141.335 400.329 140.547 400.409 139.836C400.486 139.048 399.146 138.814 398.989 139.679C398.043 144.249 395.991 148.345 394.651 152.835C394.1 154.571 396.78 155.753 397.569 154.097C399.146 150.946 399.778 147.243 400.092 143.698C400.249 143.855 400.486 143.935 400.723 144.012C406.481 144.643 400.172 157.562 398.989 159.138C398.832 159.375 398.672 159.532 398.514 159.769C397.806 159.455 396.937 160.32 397.254 161.108C395.283 163 392.917 164.419 390.628 165.915C387.079 168.278 383.293 170.722 382.741 175.212C382.584 176.314 384.162 176.707 384.793 176.077C388.656 172.374 392.285 169.54 396.623 166.465C397.412 165.915 398.12 165.364 398.752 164.733C399.697 167.964 399.62 171.429 398.12 174.501C396.466 177.969 393.074 179.859 391.102 183.01C388.656 186.792 387.868 190.101 383.767 192.781C380.375 194.985 376.432 196.327 372.726 197.822C365.471 200.737 358.216 203.494 350.958 206.095C350.958 206.095 350.958 206.095 351.038 206.018C355.376 203.494 359.399 200.266 363.576 197.428C368.308 194.197 373.277 191.206 377.852 187.737C378.404 187.343 377.932 186.555 377.301 186.872C372.489 189.393 367.363 192.227 362.473 195.302C367.048 190.732 371.623 186.242 376.826 182.379C377.772 181.671 376.984 180.41 375.961 180.884C366.891 184.98 360.345 192.621 353.01 199.084C348.672 202.943 344.02 206.252 338.814 208.852C334.082 211.296 328.956 212.554 324.304 215.078C324.304 215.078 324.304 215.078 324.224 215.078C319.097 216.73 313.891 218.306 308.765 219.882C316.969 211.609 322.332 199.004 332.347 193.252C332.899 192.938 332.424 192.15 331.873 192.464C324.932 196.247 320.123 202.155 315.311 208.301C311.291 213.422 307.425 217.912 302.616 221.774C301.433 222.088 300.25 222.482 299.067 222.796C301.51 220.513 303.719 217.835 305.61 215.155C314.285 202.943 319.966 189.787 332.505 180.727C333.056 180.333 332.505 179.465 331.953 179.859C322.252 186.398 315.863 194.591 309.871 204.519C305.139 212.32 300.17 219.725 293.072 224.452C287.788 225.948 282.425 227.366 277.061 228.785C269.332 230.755 261.526 232.724 253.719 234.457C249.458 235.402 244.489 236.507 239.918 236.27C241.178 235.562 242.441 234.851 243.701 234.143C252.219 229.022 260.657 223.664 269.098 218.543C269.726 218.149 269.175 217.204 268.543 217.518C261.288 221.694 253.953 225.791 246.698 230.047C243.229 232.093 239.757 234.143 236.131 235.719C234.948 235.402 233.765 234.931 232.74 234.3C235.737 230.518 238.26 226.502 240.546 222.168C240.626 222.008 240.706 221.774 240.783 221.614C241.258 221.144 241.652 220.67 241.966 220.039C243.229 219.725 244.332 218.7 243.701 217.204C243.701 217.124 243.624 217.047 243.624 216.967C246.227 213.896 248.987 210.979 252.062 208.381C253.088 207.513 252.93 206.252 252.299 205.387C252.93 205.387 253.559 205.307 254.19 204.993C256.162 204.048 258.371 201.684 260.105 198.847C261.211 197.822 262.234 196.72 263.26 195.616C268.229 190.338 273.041 184.98 277.93 179.702C278.482 179.071 277.613 178.206 276.984 178.757C272.172 183.641 267.44 189.076 262.234 193.883C263.734 189.076 262.946 184.429 257.188 183.721C252.456 183.09 248.75 187.106 246.461 190.732C243.938 194.671 242.598 199.398 243.386 204.048C243.701 205.701 244.964 206.412 246.304 206.332C243.781 208.144 241.495 210.114 239.363 212.24C237.866 211.372 236.208 210.822 234.474 210.508C239.523 200.423 243.624 189.864 247.487 179.308C247.804 178.52 246.541 178.206 246.304 178.994C242.123 189.55 237.786 200.109 232.425 210.191C231.871 210.114 231.399 210.034 230.848 210.034C227.219 209.72 225.485 214.761 227.928 217.047C228.008 217.124 228.165 217.281 228.245 217.361C225.562 221.614 222.644 225.714 219.727 229.73C219.964 226.422 220.596 223.19 221.461 220.039C222.407 216.493 223.59 213.108 224.459 209.563C226.982 205.15 229.111 200.503 231.162 195.773C236.051 184.509 240.626 173.162 245.358 161.818C245.595 161.188 244.489 160.714 244.175 161.344C239.68 171.429 235.186 181.434 230.688 191.519C231.082 184.272 231.871 171.823 223.75 171.586C219.413 171.429 218.464 175.369 218.464 178.757C218.464 183.247 217.912 190.024 220.515 193.883C220.91 194.434 221.461 194.751 222.013 194.908C222.013 195.853 222.487 196.797 223.119 197.508C221.147 201.211 218.544 204.599 216.729 208.381C216.492 208.932 216.258 209.483 216.021 209.957C216.021 208.221 215.941 206.412 215.864 204.599C215.389 191.206 214.758 177.812 214.758 164.339C214.838 137.078 217.281 109.821 225.167 83.742C225.404 82.9542 224.144 82.5602 223.907 83.4281C216.335 107.457 213.26 132.511 212.629 157.642C212.315 170.405 212.549 183.167 213.103 195.933C213.26 200.266 213.498 204.676 213.575 209.009C210.343 195.459 205.925 181.908 204.742 168.121C202.691 143.381 206.477 118.25 211.683 94.064C211.76 93.59 211.052 93.3531 210.971 93.827C206.557 113.209 202.691 132.668 202.296 152.521C201.036 130.619 203.008 108.716 205.768 87.0503C208.291 67.2773 210.183 43.719 226.193 29.6179C229.899 26.3095 234.16 23.789 238.969 22.3703C242.441 21.3455 246.067 20.9516 249.301 19.2189C242.835 26.5465 238.26 36.3145 235.42 45.1377C235.186 45.9256 236.369 46.2426 236.683 45.4547C238.969 39.4659 241.729 33.714 245.278 28.4361C248.513 23.5521 252.613 19.5329 256.085 14.8858C256.319 14.5688 256.162 14.098 255.848 13.861C256.556 13.1532 257.268 12.5223 258.057 11.8914C263.972 7.00739 270.909 8.3461 275.878 13.704L275.959 13.781C276.196 14.9627 277.85 14.9628 278.007 13.704C277.93 11.3405 278.876 9.76484 280.848 8.82004C282.111 7.08433 283.688 6.85043 285.499 8.18915C288.577 9.05393 289.68 10.1588 291.494 12.7593C293.546 15.6737 295.043 18.982 295.989 22.2903C297.961 29.067 298.041 36.2345 296.621 43.0912C295.201 50.1818 292.363 56.8784 288.971 63.2581C285.817 69.09 281.636 74.6049 279.585 80.9846C279.033 82.7972 281.716 83.899 282.662 82.2463C282.819 82.0094 282.899 81.7724 283.056 81.5354C283.214 81.7724 283.608 81.9294 283.922 81.6955C289.286 78.0702 293.86 72.6353 299.618 69.4839C296.935 76.9684 292.203 83.0342 288.026 89.7308C283.608 96.8984 279.902 104.306 276.353 111.947C276.036 112.578 276.984 113.209 277.379 112.498C281.716 104.149 286.525 95.9536 291.652 88.0751C295.438 82.3233 301.353 76.1806 301.273 68.853C301.273 68.773 301.273 68.6961 301.196 68.6161C302.221 68.1421 303.324 67.7482 304.427 67.4343C315.234 64.5968 322.646 71.3735 325.012 81.3015C325.25 82.4033 327.064 82.4833 327.298 81.3015C328.956 72.3183 320.595 64.8338 312.237 63.889C301.353 62.7072 291.575 71.4535 284.477 79.095C294.335 62.3133 305.61 43.4051 300.09 23.2351C298.355 16.9324 293.941 7.32129 287.077 4.95777C282.268 3.30514 276.824 6.85043 276.116 11.6544C273.275 8.26609 269.018 6.45651 264.443 6.69041C256.874 7.08433 253.402 14.2549 246.855 16.9324C239.6 19.9268 232.74 20.3207 226.193 25.2847C221.698 28.75 217.912 33.0831 214.915 37.8902C214.601 31.9014 211.84 26.5465 208.134 21.6594C205.688 18.508 202.851 15.5936 200.248 12.5992C197.25 9.21396 195.278 5.19473 192.438 1.8064C188.261 -3.07761 181.477 3.14511 178.008 6.13953C172.17 11.1836 165.547 16.7754 163.338 24.4969C163.338 24.5769 163.338 24.6538 163.338 24.6538C157.503 21.9764 151.114 20.6377 144.253 21.4255C142.99 21.5825 142.913 23.5521 144.253 23.4721C178.402 21.8964 193.387 65.7017 200.799 91.8574C200.879 92.0944 201.036 92.3313 201.193 92.4883C198.67 112.027 197.093 131.723 198.039 151.42C198.827 167.964 203.008 184.192 205.057 200.503C203.954 198.69 202.928 196.877 202.219 194.908C201.982 194.12 201.431 193.646 200.879 193.489C203.954 186.872 200.562 172.137 192.675 170.799C187.786 169.934 185.972 174.03 186.289 177.969C178.637 156.067 171.699 133.85 165.704 111.473C165.467 110.686 164.284 111.003 164.521 111.79C170.356 135.032 176.902 158.036 184.789 180.727C187.629 188.919 190.627 197.034 193.701 205.07C192.755 203.731 191.649 202.549 190.547 201.368C184.789 189.864 179.505 178.206 174.693 166.309C165.072 142.359 157.66 117.619 151.508 92.5652C151.351 92.0944 150.639 92.2513 150.719 92.8022C155.608 119.275 163.495 145.037 173.59 169.934C177.454 179.388 181.634 188.762 186.129 197.902C185.972 197.822 185.815 197.665 185.734 197.585C184.08 196.483 181.24 197.114 180.374 199.004C180.057 199.635 179.9 200.266 179.743 200.897C169.961 186.005 161.761 169.934 157.109 152.678C156.872 151.89 155.766 152.207 155.926 152.995C160.263 171.51 168.544 188.368 179.111 204.125C184.08 211.533 189.444 218.7 195.041 225.634C196.147 226.972 197.17 228.391 198.276 229.81C194.333 228.154 190.152 226.735 186.289 225.083C185.42 224.689 184.632 225.948 185.5 226.422C190.704 228.865 196.067 232.016 201.508 234.143C201.668 234.38 201.825 234.614 202.062 234.774C202.614 235.719 203.245 236.663 203.874 237.608C203.716 237.608 203.479 237.608 203.245 237.688C202.296 237.925 201.35 238.239 200.405 238.553C194.015 236.35 187.235 234.931 180.845 232.644C171.699 229.493 162.706 225.791 154.111 221.381C153.48 221.064 152.848 222.008 153.56 222.402C166.178 229.573 180.531 236.426 195.041 239.972C189.995 240.76 185.34 241.234 179.98 240.366C174.536 239.421 169.253 237.688 164.046 235.956C163.101 235.639 162.786 237.057 163.652 237.371C169.727 239.735 177.296 242.809 184.632 243.44C184.157 243.597 183.686 243.754 183.211 243.834C175.011 245.961 167.281 245.961 159 244.305C144.567 241.471 131.712 238.319 116.807 239.578C89.9128 241.941 55.1349 250.845 38.1788 222.876C37.7044 222.088 36.2072 222.562 36.6015 223.584C47.1683 252.734 85.1038 247.613 109.001 244.699C117.202 243.674 125.402 242.886 133.683 243.597C140.624 244.148 147.328 246.038 154.111 247.536C119.253 252.34 89.8358 275.742 63.8101 298.115C61.8385 299.771 64.6758 302.528 66.6475 300.953C94.3305 277.788 122.248 253.839 159.237 248.638C159.475 248.718 159.789 248.718 160.026 248.795C163.732 249.426 167.281 249.663 170.83 249.583C165.861 251.552 161.052 253.839 156.397 256.123C146.933 260.773 137.155 265.894 128.951 272.667C125.402 275.582 122.485 278.893 119.962 282.672C116.727 287.636 113.021 290.551 108.526 294.256C101.348 300.085 95.2763 308.277 92.5961 317.18C92.439 317.731 93.2276 318.048 93.5418 317.574C98.1937 307.489 103.874 300.165 112.784 293.625C119.882 288.424 123.116 280.469 129.82 274.794C144.885 262.031 163.732 255.335 181.871 248.167C189.283 246.668 196.542 244.148 203.874 241.547C204.191 241.547 204.505 241.471 204.662 241.234C205.217 240.917 205.611 240.366 205.688 239.815C206.163 240.366 206.557 240.917 207.108 241.471C196.067 245.093 185.183 249.506 175.248 255.415C163.101 262.662 154.188 272.43 147.09 284.565C142.913 291.732 139.047 298.903 133.843 305.443C128.637 311.982 122.642 317.891 117.282 324.271C108.683 334.513 101.271 346.567 101.428 360.355C101.428 360.986 102.374 360.986 102.374 360.355C103.163 344.124 113.178 331.835 123.668 320.332C133.132 310.013 141.018 299.691 148.039 287.559C155.294 275.031 163.889 264.946 176.431 257.461C185.972 251.712 196.381 247.85 206.794 244.068C205.845 244.936 204.899 245.804 203.954 246.592C197.802 252.026 191.967 257.621 186.289 263.53C175.088 275.188 165.31 287.716 156.32 301.11C155.926 301.66 156.791 302.134 157.186 301.58C165.941 289.686 175.562 278.182 185.734 267.469C190.389 262.582 195.198 257.855 200.167 253.288C203.165 250.531 206.24 247.379 209.631 244.779C207.188 253.602 203.716 262.031 198.985 269.91C196.067 274.874 192.675 279.521 188.889 283.854C186.129 287.085 182.423 289.923 180.688 293.862C178.56 298.823 178.322 304.024 175.482 308.908C172.645 313.792 168.701 318.048 164.521 321.907C156.32 329.472 147.013 335.695 139.521 344.124C139.047 344.678 139.835 345.543 140.387 344.992C148.116 336.406 158.055 330.337 166.573 322.618C174.299 315.605 179.268 307.806 181.791 297.641C183.369 291.419 188.969 287.322 192.912 282.515C196.067 278.656 198.827 274.56 201.35 270.227C205.845 262.505 209.317 254.233 211.683 245.644C211.76 245.724 211.92 245.881 211.997 245.961C212.235 246.275 212.472 246.511 212.786 246.668C213.498 247.299 214.126 247.93 214.838 248.561C214.915 248.638 214.995 248.638 215.075 248.638C214.286 255.335 211.132 262.268 209.08 268.334C206.4 276.213 203.559 284.014 200.405 291.732C200.167 292.363 201.273 292.837 201.508 292.206C205.217 283.777 208.766 275.348 211.84 266.681C214.049 260.379 217.441 253.288 217.361 246.431C218.464 246.038 219.57 245.487 220.673 244.856C219.49 259.591 218.781 274.166 214.52 288.504C209.949 303.71 200.325 316.943 198.039 332.86C197.802 334.356 200.01 334.987 200.325 333.488C203.479 317.18 213.892 303.393 218.624 287.479C221.067 279.287 222.644 270.698 223.67 261.954C224.064 264.238 224.459 266.521 224.933 268.651C227.693 281.257 230.925 293.782 234.317 306.231C234.554 307.175 235.974 306.781 235.814 305.837C233.765 294.019 231.477 282.278 228.953 270.461C227.77 265.026 226.825 259.591 226.668 253.996C226.51 249.189 227.219 244.542 227.613 239.815C227.77 239.815 228.008 239.735 228.165 239.735C228.322 241.077 228.482 242.492 228.716 243.834C228.165 246.118 228.639 248.167 229.585 250.137C230.768 257.935 232.265 265.734 235.106 272.824C238.892 282.121 245.438 289.606 253.639 295.278C254.348 295.752 254.979 294.65 254.348 294.096C240.706 284.328 235.894 269.99 233.054 254.784C234.631 256.36 236.369 257.778 238.023 259.037C242.441 262.348 247.016 265.42 251.824 268.177C256.636 270.935 263.34 272.984 266.02 278.182C266.338 278.813 267.203 278.262 266.889 277.631C263.811 271.409 256.319 269.045 250.799 265.5C244.175 261.244 235.42 256.28 232.108 248.875C231.714 246.198 231.319 243.44 230.925 240.76C235.58 245.724 240.469 250.451 246.147 254.153C254.508 259.591 264.286 261.954 273.593 265.34C294.018 272.824 313.577 283.383 331.007 296.383C331.479 296.696 331.873 295.989 331.479 295.595C315.548 283.383 298.512 273.218 279.979 265.577C270.358 261.637 259.868 259.117 250.799 254.153C244.332 250.608 238.892 245.567 233.765 240.289C256.242 247.693 280.848 249.977 304.193 251.396C316.889 252.183 330.77 254.153 343.389 252.577C356.244 250.925 365.865 240.446 379.43 244.228C381.244 244.779 382.19 242.258 380.693 241.234C371.149 235.008 360.188 242.335 351.118 245.961C338.657 250.925 322.884 248.007 309.791 247.299C288.577 246.198 267.915 243.911 247.33 239.972C255.296 239.027 263.497 236.27 269.649 234.694C290.706 229.416 311.605 223.27 332.11 216.18C342.206 212.714 352.221 209.009 362.159 205.15C370.28 201.998 380.138 199.398 387.236 194.12C389.839 192.15 391.34 189.944 392.837 187.029C394.965 182.773 398.752 180.016 400.961 175.92C403.403 171.273 403.169 166.229 400.803 161.975C402.143 160.48 403.246 158.824 404.035 156.934C405.612 153.86 408.767 140.073 400.486 141.965ZM348.04 299.217C350.644 296.066 351.589 293.388 351.827 289.369C351.984 286.928 352.064 284.642 354.193 283.146C354.981 282.595 356.007 283.383 356.007 284.171C356.084 285.904 355.456 287.559 355.218 289.292C354.981 290.868 354.824 292.52 354.35 294.096C353.404 296.776 351.67 299.217 349.223 300.716C348.198 301.267 347.332 300.005 348.04 299.217ZM257.108 321.593C265.863 326.791 274.064 324.034 283.451 324.745C287.946 325.139 291.809 327.108 296.146 328.29C300.878 329.549 305.533 329.235 310.108 327.973C303.562 323.64 297.724 318.756 290.311 315.685C289.837 315.448 290.154 314.66 290.626 314.897C298.118 317.891 306.559 321.357 312.157 327.422C319.255 325.139 325.721 321.907 331.796 317.891C331.716 317.811 331.636 317.654 331.559 317.497C327.93 305.757 316.417 300.953 306.559 295.121C305.927 294.727 306.479 293.862 307.11 294.176C316.969 299.06 331.007 304.498 333.293 316.786C334.79 315.762 336.211 314.66 337.711 313.478C338.814 312.61 340.077 313.635 339.602 314.897C335.896 323.406 324.067 327.185 316.1 330.26C310.897 332.229 305.376 333.648 299.695 333.094C293.86 332.543 288.814 329.315 283.056 328.684C277.299 328.053 271.541 329.392 265.783 328.367C261.526 327.579 257.582 325.77 254.113 323.089C247.173 317.811 241.572 309.933 237.391 302.448C236.84 301.504 238.26 300.636 238.892 301.58C244.175 309.065 248.987 316.786 257.108 321.593ZM376.118 277.317C376.906 283.303 371.78 288.581 368.231 292.68C366.891 294.176 365.234 295.672 364.131 297.327C361.371 301.187 362.473 302.605 361.842 306.308C361.448 308.671 360.502 310.878 359.005 312.847C357.267 315.134 354.824 317.103 352.064 317.811C348.909 326.951 339.997 332.072 331.007 334.513C317.995 337.981 303.956 338.846 290.626 340.579C279.427 342.077 267.126 343.967 256.479 339.003C247.173 334.67 239.918 324.588 236.997 314.974C236.446 313.084 238.969 312.376 239.918 313.715C246.621 322.695 249.853 332.78 261.606 336.482C271.227 339.477 281.793 337.664 291.494 336.406C302.616 334.987 313.971 334.042 325.012 332.149C334.951 330.417 344.254 326.714 349.461 318.048C348.909 318.048 348.435 317.968 347.883 317.891C347.175 317.731 346.938 316.549 347.646 316.236C350.329 314.974 353.247 314.109 355.376 311.982C359.082 308.277 357.979 304.732 358.925 300.242C359.793 296.226 363.342 293.388 365.942 290.474C367.363 288.898 368.783 287.242 369.966 285.59C371.857 282.909 373.435 278.576 372.175 275.268C371.306 273.061 368.308 271.409 366.891 269.516C364.365 265.971 363.894 261.874 365.548 257.855C365.785 257.227 367.048 257.227 366.891 258.015C366.103 264.552 368.863 267.389 372.963 271.642C374.541 273.298 375.801 275.031 376.118 277.317ZM385.502 251.159C386.213 253.759 384.399 255.415 382.427 256.753C378.641 259.274 374.46 262.268 370.28 264.081C369.257 264.552 367.914 263.213 368.94 262.348C371.149 260.536 373.672 259.197 376.118 257.698C377.538 256.833 382.27 254.864 383.059 252.734C380.455 252.577 378.247 251.082 377.144 248.638C376.826 248.007 377.378 247.456 377.932 247.456C373.752 245.33 368.231 249.112 364.759 251.396C360.816 253.996 357.742 257.304 354.507 260.693C354.035 261.167 353.167 260.536 353.561 259.985C356.873 254.47 362.079 250.057 367.757 247.062C371.543 245.093 376.275 242.886 379.904 246.198C380.77 246.985 379.587 248.561 378.641 247.85C378.641 247.85 378.561 247.85 378.561 247.773C379.824 249.583 381.876 250.531 384.081 250.214C384.636 250.137 385.344 250.451 385.502 251.159ZM200.719 338.058C202.614 347.435 199.536 357.834 194.49 365.713C193.07 367.996 190.547 372.646 187.549 372.96C184.632 373.274 183.529 368.39 181.477 368.153C181.477 368.47 181.397 368.707 181.24 369.021C174.222 380.288 159.315 384.304 147.251 387.535C139.204 389.742 130.846 391.948 122.408 391.948C113.81 392.025 105.529 389.191 96.9337 388.954C95.9879 388.954 95.9879 387.535 96.9337 387.455C104.426 386.747 111.601 388.086 119.093 388.243C127.217 388.403 135.103 386.667 142.913 384.541C156.477 380.919 168.464 377.136 178.402 366.814C179.111 366.107 179.98 366.184 180.608 366.577C182.028 365.95 182.266 365.95 183.923 366.657C185.657 367.365 184.789 368.153 186.683 368.547C189.444 369.101 190.309 366.184 191.729 363.98C196.699 355.865 197.487 347.512 197.959 338.295C198.039 336.956 200.405 336.482 200.719 338.058ZM114.755 150.001C115.624 150.001 116.493 150.001 117.439 150.001C118.304 150.078 119.253 149.921 120.042 150.001C120.119 150.001 120.276 150.001 120.356 150.001C124.299 156.067 128.637 161.975 133.526 167.41C133.92 167.804 134.315 168.041 134.789 168.121C135.892 170.168 137.075 172.137 138.258 174.107C131.712 168.358 125.325 162.526 119.093 156.224C117.121 154.254 115.15 152.207 113.101 150.238C113.572 150.078 114.127 150.001 114.755 150.001ZM7.02692 157.642C8.99856 151.496 9.39288 144.957 14.0447 140.073C20.1969 133.693 29.4235 131.406 36.1271 125.578C36.4444 125.735 36.8387 125.815 37.3101 125.655C48.5084 122.109 58.9981 121.401 70.2765 124.947C80.7662 128.255 89.9929 134.558 98.2738 141.571C112.707 153.703 125.008 169.774 141.493 179.308C143.307 182.065 145.199 184.743 147.251 187.423C152.771 194.751 158.843 201.684 165.547 207.987C172.17 214.29 179.662 221.381 187.866 225.554C189.601 226.422 191.729 224.138 190.072 222.639C183.134 216.417 175.325 211.372 168.621 204.913C161.603 198.216 155.057 190.889 149.299 183.01C138.415 168.121 129.977 151.496 124.457 133.85C121.145 123.214 118.936 112.261 117.282 101.231C115.704 90.4387 113.338 78.621 116.099 67.8282C118.385 58.925 123.431 51.0466 126.508 42.4603C127.768 38.9919 128.717 35.3697 128.951 31.6675C129.111 29.7748 128.323 26.9404 128.874 25.1278C131.317 16.7754 136.604 23.709 138.495 26.1526C139.204 27.0974 140.624 25.9156 140.153 24.8908C138.101 21.1085 133.212 15.3567 128.48 18.745C123.825 22.0533 126.191 31.7444 125.088 36.3945C123.511 42.9312 120.356 48.92 117.516 55.0658C116.57 51.4405 115.073 47.7382 114.047 44.273C113.81 43.4851 112.55 43.799 112.784 44.5869C113.89 48.92 114.521 53.884 116.176 58.1371C115.938 58.768 115.624 59.3189 115.387 59.9498C114.678 61.7624 114.047 63.652 113.495 65.4647C109.472 57.3493 103.557 47.8182 103.48 38.835C103.48 38.0472 102.217 38.0472 102.217 38.835C101.98 49 107.738 59.6359 112.47 68.4591C112.55 68.6161 112.627 68.6961 112.707 68.773C111.601 73.974 111.444 79.3319 111.838 84.9238C113.258 104.7 116.807 124.079 123.274 142.359C115.704 123.608 107.263 105.014 103.006 85.3177C102.849 84.5299 101.586 84.8468 101.743 85.6347C104.189 98.6341 108.526 110.923 113.258 123.291C115.073 128.098 116.727 133.219 118.542 138.34C116.57 134.875 114.678 131.406 112.864 127.861C106.24 115.099 98.9053 102.099 96.222 87.7612C93.6219 74.131 92.6731 58.4541 94.1734 44.6669C94.962 37.4163 97.4851 29.7748 103.163 24.9708C109.235 19.8498 117.439 20.0068 123.591 24.7338C124.537 25.5217 125.563 23.946 124.851 23.1582C116.807 13.704 102.691 18.508 96.3021 27.3343C86.9184 40.2537 89.2843 59.6359 90.2301 74.5249C90.7816 82.9542 91.9645 91.3835 94.6447 99.4219C97.405 107.457 101.428 115.099 105.215 122.663C109.472 131.17 113.967 139.679 119.016 147.714C118.699 147.557 118.465 147.48 118.07 147.4C117.121 147.243 116.099 147.086 115.073 147.086C113.733 147.006 111.838 146.849 110.655 147.637C105.452 142.516 100.088 137.632 94.1734 133.219C78.4773 121.482 54.8176 112.104 35.97 122.346C35.4185 122.663 35.1813 123.134 35.1813 123.685C26.2689 130.699 13.179 132.511 7.81557 143.461C4.89508 149.45 3.39787 156.46 1.0319 162.683C-1.17695 168.672 0.400359 173.085 3.47797 178.44C4.66095 180.49 7.89259 178.6 6.63259 176.55C4.18652 172.454 2.76633 168.752 4.34364 164.025C5.13229 161.975 6.23826 159.926 7.02692 157.642ZM29.2664 219.411C20.1969 216.653 14.2819 207.356 11.0472 197.271C10.9702 197.191 10.8131 197.191 10.733 197.114C10.0244 196.72 10.1014 195.933 10.4958 195.459C8.52413 188.605 7.73548 181.434 7.97269 175.92C8.2099 171.349 9.39288 167.096 11.5216 163C14.362 157.722 15.9393 152.915 17.3565 147.086C19.0139 140.153 21.617 133.533 28.8721 131.013C29.975 130.619 30.3693 132.274 29.3465 132.745C20.1168 136.527 20.7483 147.637 18.6195 155.593C17.3565 160.243 14.9905 164.025 13.3362 168.198C35.2614 176.077 57.1836 184.035 79.1088 191.993C90.2301 196.01 101.428 200.109 112.55 204.205C123.197 208.144 133.683 212.554 144.804 215.078C145.356 215.155 145.119 215.943 144.567 215.866C122.014 211.609 100.088 201.918 78.5574 194.197C56.5551 186.318 34.5498 178.44 12.5475 170.485C11.916 172.454 11.5216 174.581 11.4415 176.864C11.3645 183.561 12.5475 190.575 15.1507 196.954C22.877 201.131 31.0008 204.599 39.4388 207.119C47.4856 209.563 55.7665 210.822 63.9673 212.634C71.8538 214.447 77.9258 217.912 84.7095 222.245C92.439 227.129 100.954 230.675 109.866 232.644C110.341 232.724 110.184 233.512 109.629 233.432C101.428 231.779 93.7791 229.259 86.4439 225.16C78.083 220.433 70.9851 216.1 61.4442 214.21C45.6711 211.059 30.8437 207.356 16.6479 200.266C19.8826 206.805 24.4544 212.554 30.6065 216.573C32.0267 217.441 31.0809 219.962 29.2664 219.411ZM320.912 104.149C321.543 105.408 322.252 107.14 323.198 108.402C318.309 110.766 313.734 113.603 309.553 117.225C301.038 124.633 294.412 133.77 284.477 139.208C287 135.269 289.523 131.406 292.283 127.624C299.855 117.305 310.185 109.033 318.466 99.2619C319.097 100.998 320.123 102.573 320.912 104.149ZM326.51 84.2929C316.574 100.287 300.801 111.003 289.443 125.815C283.371 133.693 278.087 142.199 272.724 150.552C266.572 160.006 259.317 169.38 254.348 179.388C253.559 181.041 255.768 183.01 257.031 181.434C258.528 179.545 260.028 177.652 261.368 175.606C261.606 175.843 262.077 175.92 262.471 175.606C270.989 168.515 281.162 163.471 289.366 155.987C297.804 148.188 302.141 136.764 311.842 130.305C312.551 129.831 311.919 128.729 311.131 129.123C301.59 135.189 297.095 145.431 289.209 153.229C282.031 160.4 271.778 164.182 264.443 171.116C268.229 165.284 271.778 159.218 275.484 153.466C277.773 149.844 280.059 146.219 282.345 142.593C282.505 142.593 282.662 142.593 282.819 142.593C291.575 139.759 298.041 133.376 304.427 127.153C313.025 118.724 321.701 112.498 333.213 108.559C337.945 106.983 342.914 105.094 347.883 104.226C354.824 103.044 356.796 110.058 361.21 113.603C367.757 118.958 377.301 120.063 382.821 126.679C382.347 126.679 381.953 126.679 381.481 126.679C376.118 126.442 370.992 125.972 365.628 126.759C342.837 129.988 325.721 146.849 312.157 164.182C311.605 164.89 312.551 165.995 313.182 165.207C323.986 152.284 336.605 139.996 352.615 134.007C358.216 131.88 363.971 130.699 369.886 130.462C363.419 136.921 357.11 142.83 349.541 148.268C342.677 153.229 335.659 158.116 329.744 164.102C322.961 170.956 319.335 179.228 315.074 187.737C309.634 198.767 301.433 207.276 289.76 211.609C289.128 211.846 289.443 212.791 289.997 212.554C298.512 209.563 305.927 204.599 311.368 197.351C318.389 187.894 321.226 176.157 329.35 167.333C336.134 159.926 344.649 154.411 352.772 148.502C359.713 143.461 367.757 137.866 372.252 130.305C373.595 130.305 374.935 130.305 376.355 130.462C380.375 130.776 384.399 131.33 388.419 130.699C389.996 130.462 401.432 127.861 401.826 131.563C401.512 131.33 401.038 131.33 400.723 131.723C392.917 140.784 385.187 148.896 374.935 155.279C374.223 155.753 374.855 156.774 375.566 156.38C385.187 151.259 394.494 144.092 400.723 135.032C400.88 136.371 402.695 137.472 403.798 136.214C407.584 131.8 404.272 125.892 398.832 124.947C395.046 124.239 391.102 125.341 387.159 126.129C387.159 126.129 387.159 126.049 387.079 126.049C382.11 117.462 371.937 116.517 364.525 111.003C360.582 108.088 359.082 102.413 354.43 100.444C350.012 98.6341 344.886 100.524 340.548 101.785C335.739 103.201 331.084 104.777 326.51 106.746C326.115 105.094 324.932 103.438 323.986 102.179C322.803 100.524 321.383 98.791 319.572 97.7662C322.803 93.827 325.644 89.6508 327.853 84.9238C328.247 84.2159 327.064 83.4281 326.51 84.2929Z"/>
</mask>
<path d="M95.1192 369.652C92.2788 376.032 86.2868 384.464 78.7946 386.354C81.3978 388.874 84.3922 390.53 88.1014 390.056C90.2301 389.742 90.7816 393.524 88.6528 393.838C79.9776 395.1 74.7712 388.009 70.5137 381.39C65.0701 372.88 61.2871 364.688 60.1811 354.603C59.4725 348.223 59.3924 341.76 57.9722 335.458C56.8694 330.497 54.1892 326.004 53.0062 321.043C51.663 315.291 53.6346 308.594 60.1041 307.489C61.207 307.332 61.7584 308.908 60.5754 309.225C49.7714 311.982 58.2094 325.69 60.1041 331.678C62.1527 338.138 62.3899 344.912 63.1786 351.532C64.2045 359.881 66.3332 367.208 70.6708 374.456C72.4053 377.373 74.457 381.153 77.0602 384.384C80.6861 383.282 83.6836 381.863 86.6011 378.949C89.5986 375.955 91.6503 372.252 94.2504 368.941C94.6447 368.313 95.4334 369.101 95.1192 369.652ZM154.977 360.512C166.65 353.895 176.588 343.73 182.266 331.678C182.74 330.731 184 331.442 183.843 332.306C181.397 345.072 166.573 356.102 155.689 361.693C154.9 362.167 154.188 360.986 154.977 360.512ZM340.234 266.051C331.716 263.764 323.121 264.158 314.446 263.844C307.899 263.607 300.407 263.213 294.806 259.431C294.175 258.96 294.569 257.935 295.358 258.172C303.562 260.219 311.131 261.561 319.572 261.954C326.747 262.268 333.768 262.742 340.628 265.026C341.18 265.183 340.943 266.208 340.234 266.051ZM279.585 310.878C275.09 309.459 269.726 307.412 266.495 303.787C266.1 303.316 266.572 302.605 267.126 302.922C269.098 304.024 270.909 305.6 272.881 306.701C275.09 307.963 277.379 309.065 279.822 309.933C280.373 310.17 280.139 311.035 279.585 310.878ZM332.03 125.261C334.396 121.638 339.128 118.25 343.703 119.589C344.414 119.826 344.492 120.851 343.703 121.008C341.811 121.401 339.917 121.482 338.025 122.269C336.134 123.134 334.239 124.316 332.899 125.892C332.505 126.366 331.716 125.735 332.03 125.261ZM307.662 171.349C292.203 187.266 278.796 206.018 256.874 212.871C256.319 213.028 256.085 212.16 256.636 212.003C267.992 207.827 277.379 200.503 285.58 191.756C292.44 184.429 298.512 176 306.636 170.011C307.425 169.46 308.293 170.722 307.662 171.349ZM239.523 119.826C236.446 122.109 235.343 129.911 234.317 133.456C233.054 137.946 231.794 142.359 230.688 146.849C230.531 147.4 229.665 147.163 229.822 146.612C231.319 139.602 232.897 132.668 234.791 125.815C235.58 123.057 235.814 118.801 239.206 118.724C239.838 118.644 239.918 119.512 239.523 119.826ZM269.175 79.6458C274.301 71.2935 278.956 62.7072 280.928 53.0162C282.739 43.799 283.528 34.188 285.974 25.1278C286.211 24.3399 287.551 24.4969 287.471 25.3647C286.763 34.9758 284.634 45.1377 282.505 54.5918C280.373 64.2029 275.247 72.0813 269.964 80.1967C269.649 80.6707 268.781 80.1967 269.175 79.6458ZM235.025 160.48C238.497 140.073 245.278 120.771 252.77 101.548C256.399 92.0944 260.185 82.6403 263.417 73.1061C266.809 63.1812 269.175 53.0962 272.172 43.0112C272.41 42.2233 273.75 42.3803 273.67 43.2481C271.541 63.1812 262.551 82.7172 255.296 101.231C247.644 120.614 239.68 140.23 235.974 160.794C235.814 161.344 234.948 161.108 235.025 160.48ZM81.5549 182.773C91.7273 184.823 101.823 187.343 111.838 189.787C119.962 191.833 129.031 193.489 136.524 197.351C137.392 197.822 136.761 199.004 135.892 198.847C127.217 197.351 118.622 193.963 110.024 191.676C100.403 189.156 90.7015 186.635 81.2376 183.721C80.6861 183.484 80.9234 182.696 81.5549 182.773ZM67.3591 148.345C66.4133 148.031 66.8076 146.692 67.7534 146.849C76.0343 148.662 83.5265 152.995 90.3872 157.799C90.7015 158.036 90.3872 158.587 90.073 158.35C83.0521 153.703 75.3227 150.946 67.3591 148.345ZM52.2175 144.957C70.1194 150.709 88.0213 158.981 104.109 168.592C104.583 168.829 104.269 169.617 103.714 169.46C103.163 169.303 102.611 169.146 102.06 168.986C101.823 168.909 101.823 168.515 102.137 168.515C99.2196 168.515 94.0933 164.733 91.333 163.471C87.2326 161.501 83.1322 159.612 78.9517 157.799C69.9623 153.86 60.8126 150.552 51.7431 146.926C50.5601 146.375 51.0345 144.563 52.2175 144.957ZM123.116 72.0044C123.668 101.075 129.111 128.729 142.439 154.885C142.753 155.593 141.807 156.147 141.413 155.516C127.611 130.382 119.33 100.918 121.065 72.0813C121.145 70.6657 123.036 70.6657 123.116 72.0044ZM140.547 30.2487C142.439 36.1576 142.596 42.6173 143.464 48.683C144.49 55.8536 146.068 63.0211 148.039 70.0348C148.196 70.7426 147.17 70.9796 147.013 70.3487C144.724 63.4151 142.833 56.4845 141.57 49.2339C140.467 42.5372 140.073 35.8406 138.181 29.3039C137.864 28.1222 139.521 27.6482 139.992 28.6731C140.23 28.3561 140.547 28.1991 141.018 28.2791C150.088 29.8548 157.109 36.2345 159.869 44.9808C160.103 45.6117 159.08 45.8486 158.92 45.2177C156.083 37.2593 148.905 31.5875 140.547 30.2487ZM192.438 93.5131C188.261 81.6155 185.106 70.3487 177.454 59.9498C177.139 59.4759 177.928 58.848 178.242 59.3189C185.815 68.773 193.07 80.9076 193.701 93.2761C193.781 94.064 192.675 94.1409 192.438 93.5131ZM187.866 212.871C188.969 213.579 189.995 214.21 191.098 214.841C191.572 215.078 192.044 215.235 192.518 215.312C193.938 218.229 195.198 221.144 196.461 224.058C193.544 220.356 190.627 216.653 187.866 212.871ZM204.742 219.251C205.137 221.457 205.451 223.744 205.688 225.948C204.98 225.16 204.348 224.372 203.639 223.584C201.825 219.488 200.01 215.392 198.433 211.296C195.359 203.417 192.361 195.539 189.521 187.66C190.704 189.63 192.204 191.363 194.015 192.544C194.964 193.175 195.91 193.332 196.699 193.175C197.013 193.726 197.33 194.197 197.725 194.671C197.725 194.751 197.802 194.751 197.882 194.828C197.644 195.222 197.564 195.773 197.725 196.403C199.536 204.205 203.402 211.216 204.742 219.251ZM232.031 220.433C229.822 222.876 227.533 225.083 225.09 227.289C226.905 224.609 228.559 221.851 230.059 219.017C230.768 219.488 231.399 219.962 232.031 220.433ZM249.539 204.442V204.362L249.616 204.442C249.616 204.362 249.616 204.362 249.539 204.442ZM196.699 213.422C196.699 213.422 196.776 213.502 196.776 213.579C196.776 213.502 196.776 213.502 196.699 213.422ZM210.106 209.64C210.106 209.009 210.106 208.458 210.026 207.827C210.343 209.089 210.577 210.271 210.894 211.533C210.657 210.822 210.343 210.191 210.106 209.64ZM226.668 199.004C226.982 199.004 227.299 198.927 227.613 198.847C227.139 199.872 226.587 200.974 226.116 201.998C226.193 200.974 226.43 200.029 226.668 199.004ZM187.472 201.998C187.392 201.841 187.312 201.841 187.472 201.998ZM186.998 47.5013C187.078 38.9919 185.815 30.4857 184.474 22.1333C184.394 21.4255 183.134 21.5825 183.211 22.2903C184.08 29.4609 184.317 36.6284 184.632 43.879C184.237 43.2481 183.843 42.6973 183.449 42.1433C178.717 35.6067 172.645 29.8548 165.704 26.0726C165.784 25.9925 165.861 25.9156 165.941 25.8356C166.018 25.6786 166.178 25.5217 166.255 25.3647C166.807 24.5769 165.784 23.789 164.995 24.103C167.518 22.7642 168.858 19.5329 170.91 17.0924C172.802 14.8858 175.011 12.9162 177.219 11.0235C179.585 8.97699 184.08 4.09299 187.392 3.93296C190.466 3.776 191.415 7.55826 193.07 9.76484C200.485 19.8498 212.315 28.0422 211.052 41.9864C210.971 42.6973 211.366 43.2481 211.92 43.562C206.32 55.2227 204.268 68.4591 202.614 81.3785C202.533 81.0646 202.456 80.7476 202.296 80.4337C204.111 74.211 202.614 66.5664 202.296 60.4237C201.745 50.4957 201.431 40.6476 198.907 30.9566C198.67 30.0918 197.407 30.4857 197.564 31.3505C199.459 40.1737 199.616 49.157 200.01 58.1371C200.248 63.5751 201.35 70.1117 200.799 76.0205C199.379 72.4753 197.802 69.01 196.304 65.6216C193.387 59.4759 190.466 53.3331 186.998 47.5013ZM400.486 141.965C400.409 141.965 400.329 142.042 400.249 142.042C400.329 141.335 400.329 140.547 400.409 139.836C400.486 139.048 399.146 138.814 398.989 139.679C398.043 144.249 395.991 148.345 394.651 152.835C394.1 154.571 396.78 155.753 397.569 154.097C399.146 150.946 399.778 147.243 400.092 143.698C400.249 143.855 400.486 143.935 400.723 144.012C406.481 144.643 400.172 157.562 398.989 159.138C398.832 159.375 398.672 159.532 398.514 159.769C397.806 159.455 396.937 160.32 397.254 161.108C395.283 163 392.917 164.419 390.628 165.915C387.079 168.278 383.293 170.722 382.741 175.212C382.584 176.314 384.162 176.707 384.793 176.077C388.656 172.374 392.285 169.54 396.623 166.465C397.412 165.915 398.12 165.364 398.752 164.733C399.697 167.964 399.62 171.429 398.12 174.501C396.466 177.969 393.074 179.859 391.102 183.01C388.656 186.792 387.868 190.101 383.767 192.781C380.375 194.985 376.432 196.327 372.726 197.822C365.471 200.737 358.216 203.494 350.958 206.095C350.958 206.095 350.958 206.095 351.038 206.018C355.376 203.494 359.399 200.266 363.576 197.428C368.308 194.197 373.277 191.206 377.852 187.737C378.404 187.343 377.932 186.555 377.301 186.872C372.489 189.393 367.363 192.227 362.473 195.302C367.048 190.732 371.623 186.242 376.826 182.379C377.772 181.671 376.984 180.41 375.961 180.884C366.891 184.98 360.345 192.621 353.01 199.084C348.672 202.943 344.02 206.252 338.814 208.852C334.082 211.296 328.956 212.554 324.304 215.078C324.304 215.078 324.304 215.078 324.224 215.078C319.097 216.73 313.891 218.306 308.765 219.882C316.969 211.609 322.332 199.004 332.347 193.252C332.899 192.938 332.424 192.15 331.873 192.464C324.932 196.247 320.123 202.155 315.311 208.301C311.291 213.422 307.425 217.912 302.616 221.774C301.433 222.088 300.25 222.482 299.067 222.796C301.51 220.513 303.719 217.835 305.61 215.155C314.285 202.943 319.966 189.787 332.505 180.727C333.056 180.333 332.505 179.465 331.953 179.859C322.252 186.398 315.863 194.591 309.871 204.519C305.139 212.32 300.17 219.725 293.072 224.452C287.788 225.948 282.425 227.366 277.061 228.785C269.332 230.755 261.526 232.724 253.719 234.457C249.458 235.402 244.489 236.507 239.918 236.27C241.178 235.562 242.441 234.851 243.701 234.143C252.219 229.022 260.657 223.664 269.098 218.543C269.726 218.149 269.175 217.204 268.543 217.518C261.288 221.694 253.953 225.791 246.698 230.047C243.229 232.093 239.757 234.143 236.131 235.719C234.948 235.402 233.765 234.931 232.74 234.3C235.737 230.518 238.26 226.502 240.546 222.168C240.626 222.008 240.706 221.774 240.783 221.614C241.258 221.144 241.652 220.67 241.966 220.039C243.229 219.725 244.332 218.7 243.701 217.204C243.701 217.124 243.624 217.047 243.624 216.967C246.227 213.896 248.987 210.979 252.062 208.381C253.088 207.513 252.93 206.252 252.299 205.387C252.93 205.387 253.559 205.307 254.19 204.993C256.162 204.048 258.371 201.684 260.105 198.847C261.211 197.822 262.234 196.72 263.26 195.616C268.229 190.338 273.041 184.98 277.93 179.702C278.482 179.071 277.613 178.206 276.984 178.757C272.172 183.641 267.44 189.076 262.234 193.883C263.734 189.076 262.946 184.429 257.188 183.721C252.456 183.09 248.75 187.106 246.461 190.732C243.938 194.671 242.598 199.398 243.386 204.048C243.701 205.701 244.964 206.412 246.304 206.332C243.781 208.144 241.495 210.114 239.363 212.24C237.866 211.372 236.208 210.822 234.474 210.508C239.523 200.423 243.624 189.864 247.487 179.308C247.804 178.52 246.541 178.206 246.304 178.994C242.123 189.55 237.786 200.109 232.425 210.191C231.871 210.114 231.399 210.034 230.848 210.034C227.219 209.72 225.485 214.761 227.928 217.047C228.008 217.124 228.165 217.281 228.245 217.361C225.562 221.614 222.644 225.714 219.727 229.73C219.964 226.422 220.596 223.19 221.461 220.039C222.407 216.493 223.59 213.108 224.459 209.563C226.982 205.15 229.111 200.503 231.162 195.773C236.051 184.509 240.626 173.162 245.358 161.818C245.595 161.188 244.489 160.714 244.175 161.344C239.68 171.429 235.186 181.434 230.688 191.519C231.082 184.272 231.871 171.823 223.75 171.586C219.413 171.429 218.464 175.369 218.464 178.757C218.464 183.247 217.912 190.024 220.515 193.883C220.91 194.434 221.461 194.751 222.013 194.908C222.013 195.853 222.487 196.797 223.119 197.508C221.147 201.211 218.544 204.599 216.729 208.381C216.492 208.932 216.258 209.483 216.021 209.957C216.021 208.221 215.941 206.412 215.864 204.599C215.389 191.206 214.758 177.812 214.758 164.339C214.838 137.078 217.281 109.821 225.167 83.742C225.404 82.9542 224.144 82.5602 223.907 83.4281C216.335 107.457 213.26 132.511 212.629 157.642C212.315 170.405 212.549 183.167 213.103 195.933C213.26 200.266 213.498 204.676 213.575 209.009C210.343 195.459 205.925 181.908 204.742 168.121C202.691 143.381 206.477 118.25 211.683 94.064C211.76 93.59 211.052 93.3531 210.971 93.827C206.557 113.209 202.691 132.668 202.296 152.521C201.036 130.619 203.008 108.716 205.768 87.0503C208.291 67.2773 210.183 43.719 226.193 29.6179C229.899 26.3095 234.16 23.789 238.969 22.3703C242.441 21.3455 246.067 20.9516 249.301 19.2189C242.835 26.5465 238.26 36.3145 235.42 45.1377C235.186 45.9256 236.369 46.2426 236.683 45.4547C238.969 39.4659 241.729 33.714 245.278 28.4361C248.513 23.5521 252.613 19.5329 256.085 14.8858C256.319 14.5688 256.162 14.098 255.848 13.861C256.556 13.1532 257.268 12.5223 258.057 11.8914C263.972 7.00739 270.909 8.3461 275.878 13.704L275.959 13.781C276.196 14.9627 277.85 14.9628 278.007 13.704C277.93 11.3405 278.876 9.76484 280.848 8.82004C282.111 7.08433 283.688 6.85043 285.499 8.18915C288.577 9.05393 289.68 10.1588 291.494 12.7593C293.546 15.6737 295.043 18.982 295.989 22.2903C297.961 29.067 298.041 36.2345 296.621 43.0912C295.201 50.1818 292.363 56.8784 288.971 63.2581C285.817 69.09 281.636 74.6049 279.585 80.9846C279.033 82.7972 281.716 83.899 282.662 82.2463C282.819 82.0094 282.899 81.7724 283.056 81.5354C283.214 81.7724 283.608 81.9294 283.922 81.6955C289.286 78.0702 293.86 72.6353 299.618 69.4839C296.935 76.9684 292.203 83.0342 288.026 89.7308C283.608 96.8984 279.902 104.306 276.353 111.947C276.036 112.578 276.984 113.209 277.379 112.498C281.716 104.149 286.525 95.9536 291.652 88.0751C295.438 82.3233 301.353 76.1806 301.273 68.853C301.273 68.773 301.273 68.6961 301.196 68.6161C302.221 68.1421 303.324 67.7482 304.427 67.4343C315.234 64.5968 322.646 71.3735 325.012 81.3015C325.25 82.4033 327.064 82.4833 327.298 81.3015C328.956 72.3183 320.595 64.8338 312.237 63.889C301.353 62.7072 291.575 71.4535 284.477 79.095C294.335 62.3133 305.61 43.4051 300.09 23.2351C298.355 16.9324 293.941 7.32129 287.077 4.95777C282.268 3.30514 276.824 6.85043 276.116 11.6544C273.275 8.26609 269.018 6.45651 264.443 6.69041C256.874 7.08433 253.402 14.2549 246.855 16.9324C239.6 19.9268 232.74 20.3207 226.193 25.2847C221.698 28.75 217.912 33.0831 214.915 37.8902C214.601 31.9014 211.84 26.5465 208.134 21.6594C205.688 18.508 202.851 15.5936 200.248 12.5992C197.25 9.21396 195.278 5.19473 192.438 1.8064C188.261 -3.07761 181.477 3.14511 178.008 6.13953C172.17 11.1836 165.547 16.7754 163.338 24.4969C163.338 24.5769 163.338 24.6538 163.338 24.6538C157.503 21.9764 151.114 20.6377 144.253 21.4255C142.99 21.5825 142.913 23.5521 144.253 23.4721C178.402 21.8964 193.387 65.7017 200.799 91.8574C200.879 92.0944 201.036 92.3313 201.193 92.4883C198.67 112.027 197.093 131.723 198.039 151.42C198.827 167.964 203.008 184.192 205.057 200.503C203.954 198.69 202.928 196.877 202.219 194.908C201.982 194.12 201.431 193.646 200.879 193.489C203.954 186.872 200.562 172.137 192.675 170.799C187.786 169.934 185.972 174.03 186.289 177.969C178.637 156.067 171.699 133.85 165.704 111.473C165.467 110.686 164.284 111.003 164.521 111.79C170.356 135.032 176.902 158.036 184.789 180.727C187.629 188.919 190.627 197.034 193.701 205.07C192.755 203.731 191.649 202.549 190.547 201.368C184.789 189.864 179.505 178.206 174.693 166.309C165.072 142.359 157.66 117.619 151.508 92.5652C151.351 92.0944 150.639 92.2513 150.719 92.8022C155.608 119.275 163.495 145.037 173.59 169.934C177.454 179.388 181.634 188.762 186.129 197.902C185.972 197.822 185.815 197.665 185.734 197.585C184.08 196.483 181.24 197.114 180.374 199.004C180.057 199.635 179.9 200.266 179.743 200.897C169.961 186.005 161.761 169.934 157.109 152.678C156.872 151.89 155.766 152.207 155.926 152.995C160.263 171.51 168.544 188.368 179.111 204.125C184.08 211.533 189.444 218.7 195.041 225.634C196.147 226.972 197.17 228.391 198.276 229.81C194.333 228.154 190.152 226.735 186.289 225.083C185.42 224.689 184.632 225.948 185.5 226.422C190.704 228.865 196.067 232.016 201.508 234.143C201.668 234.38 201.825 234.614 202.062 234.774C202.614 235.719 203.245 236.663 203.874 237.608C203.716 237.608 203.479 237.608 203.245 237.688C202.296 237.925 201.35 238.239 200.405 238.553C194.015 236.35 187.235 234.931 180.845 232.644C171.699 229.493 162.706 225.791 154.111 221.381C153.48 221.064 152.848 222.008 153.56 222.402C166.178 229.573 180.531 236.426 195.041 239.972C189.995 240.76 185.34 241.234 179.98 240.366C174.536 239.421 169.253 237.688 164.046 235.956C163.101 235.639 162.786 237.057 163.652 237.371C169.727 239.735 177.296 242.809 184.632 243.44C184.157 243.597 183.686 243.754 183.211 243.834C175.011 245.961 167.281 245.961 159 244.305C144.567 241.471 131.712 238.319 116.807 239.578C89.9128 241.941 55.1349 250.845 38.1788 222.876C37.7044 222.088 36.2072 222.562 36.6015 223.584C47.1683 252.734 85.1038 247.613 109.001 244.699C117.202 243.674 125.402 242.886 133.683 243.597C140.624 244.148 147.328 246.038 154.111 247.536C119.253 252.34 89.8358 275.742 63.8101 298.115C61.8385 299.771 64.6758 302.528 66.6475 300.953C94.3305 277.788 122.248 253.839 159.237 248.638C159.475 248.718 159.789 248.718 160.026 248.795C163.732 249.426 167.281 249.663 170.83 249.583C165.861 251.552 161.052 253.839 156.397 256.123C146.933 260.773 137.155 265.894 128.951 272.667C125.402 275.582 122.485 278.893 119.962 282.672C116.727 287.636 113.021 290.551 108.526 294.256C101.348 300.085 95.2763 308.277 92.5961 317.18C92.439 317.731 93.2276 318.048 93.5418 317.574C98.1937 307.489 103.874 300.165 112.784 293.625C119.882 288.424 123.116 280.469 129.82 274.794C144.885 262.031 163.732 255.335 181.871 248.167C189.283 246.668 196.542 244.148 203.874 241.547C204.191 241.547 204.505 241.471 204.662 241.234C205.217 240.917 205.611 240.366 205.688 239.815C206.163 240.366 206.557 240.917 207.108 241.471C196.067 245.093 185.183 249.506 175.248 255.415C163.101 262.662 154.188 272.43 147.09 284.565C142.913 291.732 139.047 298.903 133.843 305.443C128.637 311.982 122.642 317.891 117.282 324.271C108.683 334.513 101.271 346.567 101.428 360.355C101.428 360.986 102.374 360.986 102.374 360.355C103.163 344.124 113.178 331.835 123.668 320.332C133.132 310.013 141.018 299.691 148.039 287.559C155.294 275.031 163.889 264.946 176.431 257.461C185.972 251.712 196.381 247.85 206.794 244.068C205.845 244.936 204.899 245.804 203.954 246.592C197.802 252.026 191.967 257.621 186.289 263.53C175.088 275.188 165.31 287.716 156.32 301.11C155.926 301.66 156.791 302.134 157.186 301.58C165.941 289.686 175.562 278.182 185.734 267.469C190.389 262.582 195.198 257.855 200.167 253.288C203.165 250.531 206.24 247.379 209.631 244.779C207.188 253.602 203.716 262.031 198.985 269.91C196.067 274.874 192.675 279.521 188.889 283.854C186.129 287.085 182.423 289.923 180.688 293.862C178.56 298.823 178.322 304.024 175.482 308.908C172.645 313.792 168.701 318.048 164.521 321.907C156.32 329.472 147.013 335.695 139.521 344.124C139.047 344.678 139.835 345.543 140.387 344.992C148.116 336.406 158.055 330.337 166.573 322.618C174.299 315.605 179.268 307.806 181.791 297.641C183.369 291.419 188.969 287.322 192.912 282.515C196.067 278.656 198.827 274.56 201.35 270.227C205.845 262.505 209.317 254.233 211.683 245.644C211.76 245.724 211.92 245.881 211.997 245.961C212.235 246.275 212.472 246.511 212.786 246.668C213.498 247.299 214.126 247.93 214.838 248.561C214.915 248.638 214.995 248.638 215.075 248.638C214.286 255.335 211.132 262.268 209.08 268.334C206.4 276.213 203.559 284.014 200.405 291.732C200.167 292.363 201.273 292.837 201.508 292.206C205.217 283.777 208.766 275.348 211.84 266.681C214.049 260.379 217.441 253.288 217.361 246.431C218.464 246.038 219.57 245.487 220.673 244.856C219.49 259.591 218.781 274.166 214.52 288.504C209.949 303.71 200.325 316.943 198.039 332.86C197.802 334.356 200.01 334.987 200.325 333.488C203.479 317.18 213.892 303.393 218.624 287.479C221.067 279.287 222.644 270.698 223.67 261.954C224.064 264.238 224.459 266.521 224.933 268.651C227.693 281.257 230.925 293.782 234.317 306.231C234.554 307.175 235.974 306.781 235.814 305.837C233.765 294.019 231.477 282.278 228.953 270.461C227.77 265.026 226.825 259.591 226.668 253.996C226.51 249.189 227.219 244.542 227.613 239.815C227.77 239.815 228.008 239.735 228.165 239.735C228.322 241.077 228.482 242.492 228.716 243.834C228.165 246.118 228.639 248.167 229.585 250.137C230.768 257.935 232.265 265.734 235.106 272.824C238.892 282.121 245.438 289.606 253.639 295.278C254.348 295.752 254.979 294.65 254.348 294.096C240.706 284.328 235.894 269.99 233.054 254.784C234.631 256.36 236.369 257.778 238.023 259.037C242.441 262.348 247.016 265.42 251.824 268.177C256.636 270.935 263.34 272.984 266.02 278.182C266.338 278.813 267.203 278.262 266.889 277.631C263.811 271.409 256.319 269.045 250.799 265.5C244.175 261.244 235.42 256.28 232.108 248.875C231.714 246.198 231.319 243.44 230.925 240.76C235.58 245.724 240.469 250.451 246.147 254.153C254.508 259.591 264.286 261.954 273.593 265.34C294.018 272.824 313.577 283.383 331.007 296.383C331.479 296.696 331.873 295.989 331.479 295.595C315.548 283.383 298.512 273.218 279.979 265.577C270.358 261.637 259.868 259.117 250.799 254.153C244.332 250.608 238.892 245.567 233.765 240.289C256.242 247.693 280.848 249.977 304.193 251.396C316.889 252.183 330.77 254.153 343.389 252.577C356.244 250.925 365.865 240.446 379.43 244.228C381.244 244.779 382.19 242.258 380.693 241.234C371.149 235.008 360.188 242.335 351.118 245.961C338.657 250.925 322.884 248.007 309.791 247.299C288.577 246.198 267.915 243.911 247.33 239.972C255.296 239.027 263.497 236.27 269.649 234.694C290.706 229.416 311.605 223.27 332.11 216.18C342.206 212.714 352.221 209.009 362.159 205.15C370.28 201.998 380.138 199.398 387.236 194.12C389.839 192.15 391.34 189.944 392.837 187.029C394.965 182.773 398.752 180.016 400.961 175.92C403.403 171.273 403.169 166.229 400.803 161.975C402.143 160.48 403.246 158.824 404.035 156.934C405.612 153.86 408.767 140.073 400.486 141.965ZM348.04 299.217C350.644 296.066 351.589 293.388 351.827 289.369C351.984 286.928 352.064 284.642 354.193 283.146C354.981 282.595 356.007 283.383 356.007 284.171C356.084 285.904 355.456 287.559 355.218 289.292C354.981 290.868 354.824 292.52 354.35 294.096C353.404 296.776 351.67 299.217 349.223 300.716C348.198 301.267 347.332 300.005 348.04 299.217ZM257.108 321.593C265.863 326.791 274.064 324.034 283.451 324.745C287.946 325.139 291.809 327.108 296.146 328.29C300.878 329.549 305.533 329.235 310.108 327.973C303.562 323.64 297.724 318.756 290.311 315.685C289.837 315.448 290.154 314.66 290.626 314.897C298.118 317.891 306.559 321.357 312.157 327.422C319.255 325.139 325.721 321.907 331.796 317.891C331.716 317.811 331.636 317.654 331.559 317.497C327.93 305.757 316.417 300.953 306.559 295.121C305.927 294.727 306.479 293.862 307.11 294.176C316.969 299.06 331.007 304.498 333.293 316.786C334.79 315.762 336.211 314.66 337.711 313.478C338.814 312.61 340.077 313.635 339.602 314.897C335.896 323.406 324.067 327.185 316.1 330.26C310.897 332.229 305.376 333.648 299.695 333.094C293.86 332.543 288.814 329.315 283.056 328.684C277.299 328.053 271.541 329.392 265.783 328.367C261.526 327.579 257.582 325.77 254.113 323.089C247.173 317.811 241.572 309.933 237.391 302.448C236.84 301.504 238.26 300.636 238.892 301.58C244.175 309.065 248.987 316.786 257.108 321.593ZM376.118 277.317C376.906 283.303 371.78 288.581 368.231 292.68C366.891 294.176 365.234 295.672 364.131 297.327C361.371 301.187 362.473 302.605 361.842 306.308C361.448 308.671 360.502 310.878 359.005 312.847C357.267 315.134 354.824 317.103 352.064 317.811C348.909 326.951 339.997 332.072 331.007 334.513C317.995 337.981 303.956 338.846 290.626 340.579C279.427 342.077 267.126 343.967 256.479 339.003C247.173 334.67 239.918 324.588 236.997 314.974C236.446 313.084 238.969 312.376 239.918 313.715C246.621 322.695 249.853 332.78 261.606 336.482C271.227 339.477 281.793 337.664 291.494 336.406C302.616 334.987 313.971 334.042 325.012 332.149C334.951 330.417 344.254 326.714 349.461 318.048C348.909 318.048 348.435 317.968 347.883 317.891C347.175 317.731 346.938 316.549 347.646 316.236C350.329 314.974 353.247 314.109 355.376 311.982C359.082 308.277 357.979 304.732 358.925 300.242C359.793 296.226 363.342 293.388 365.942 290.474C367.363 288.898 368.783 287.242 369.966 285.59C371.857 282.909 373.435 278.576 372.175 275.268C371.306 273.061 368.308 271.409 366.891 269.516C364.365 265.971 363.894 261.874 365.548 257.855C365.785 257.227 367.048 257.227 366.891 258.015C366.103 264.552 368.863 267.389 372.963 271.642C374.541 273.298 375.801 275.031 376.118 277.317ZM385.502 251.159C386.213 253.759 384.399 255.415 382.427 256.753C378.641 259.274 374.46 262.268 370.28 264.081C369.257 264.552 367.914 263.213 368.94 262.348C371.149 260.536 373.672 259.197 376.118 257.698C377.538 256.833 382.27 254.864 383.059 252.734C380.455 252.577 378.247 251.082 377.144 248.638C376.826 248.007 377.378 247.456 377.932 247.456C373.752 245.33 368.231 249.112 364.759 251.396C360.816 253.996 357.742 257.304 354.507 260.693C354.035 261.167 353.167 260.536 353.561 259.985C356.873 254.47 362.079 250.057 367.757 247.062C371.543 245.093 376.275 242.886 379.904 246.198C380.77 246.985 379.587 248.561 378.641 247.85C378.641 247.85 378.561 247.85 378.561 247.773C379.824 249.583 381.876 250.531 384.081 250.214C384.636 250.137 385.344 250.451 385.502 251.159ZM200.719 338.058C202.614 347.435 199.536 357.834 194.49 365.713C193.07 367.996 190.547 372.646 187.549 372.96C184.632 373.274 183.529 368.39 181.477 368.153C181.477 368.47 181.397 368.707 181.24 369.021C174.222 380.288 159.315 384.304 147.251 387.535C139.204 389.742 130.846 391.948 122.408 391.948C113.81 392.025 105.529 389.191 96.9337 388.954C95.9879 388.954 95.9879 387.535 96.9337 387.455C104.426 386.747 111.601 388.086 119.093 388.243C127.217 388.403 135.103 386.667 142.913 384.541C156.477 380.919 168.464 377.136 178.402 366.814C179.111 366.107 179.98 366.184 180.608 366.577C182.028 365.95 182.266 365.95 183.923 366.657C185.657 367.365 184.789 368.153 186.683 368.547C189.444 369.101 190.309 366.184 191.729 363.98C196.699 355.865 197.487 347.512 197.959 338.295C198.039 336.956 200.405 336.482 200.719 338.058ZM114.755 150.001C115.624 150.001 116.493 150.001 117.439 150.001C118.304 150.078 119.253 149.921 120.042 150.001C120.119 150.001 120.276 150.001 120.356 150.001C124.299 156.067 128.637 161.975 133.526 167.41C133.92 167.804 134.315 168.041 134.789 168.121C135.892 170.168 137.075 172.137 138.258 174.107C131.712 168.358 125.325 162.526 119.093 156.224C117.121 154.254 115.15 152.207 113.101 150.238C113.572 150.078 114.127 150.001 114.755 150.001ZM7.02692 157.642C8.99856 151.496 9.39288 144.957 14.0447 140.073C20.1969 133.693 29.4235 131.406 36.1271 125.578C36.4444 125.735 36.8387 125.815 37.3101 125.655C48.5084 122.109 58.9981 121.401 70.2765 124.947C80.7662 128.255 89.9929 134.558 98.2738 141.571C112.707 153.703 125.008 169.774 141.493 179.308C143.307 182.065 145.199 184.743 147.251 187.423C152.771 194.751 158.843 201.684 165.547 207.987C172.17 214.29 179.662 221.381 187.866 225.554C189.601 226.422 191.729 224.138 190.072 222.639C183.134 216.417 175.325 211.372 168.621 204.913C161.603 198.216 155.057 190.889 149.299 183.01C138.415 168.121 129.977 151.496 124.457 133.85C121.145 123.214 118.936 112.261 117.282 101.231C115.704 90.4387 113.338 78.621 116.099 67.8282C118.385 58.925 123.431 51.0466 126.508 42.4603C127.768 38.9919 128.717 35.3697 128.951 31.6675C129.111 29.7748 128.323 26.9404 128.874 25.1278C131.317 16.7754 136.604 23.709 138.495 26.1526C139.204 27.0974 140.624 25.9156 140.153 24.8908C138.101 21.1085 133.212 15.3567 128.48 18.745C123.825 22.0533 126.191 31.7444 125.088 36.3945C123.511 42.9312 120.356 48.92 117.516 55.0658C116.57 51.4405 115.073 47.7382 114.047 44.273C113.81 43.4851 112.55 43.799 112.784 44.5869C113.89 48.92 114.521 53.884 116.176 58.1371C115.938 58.768 115.624 59.3189 115.387 59.9498C114.678 61.7624 114.047 63.652 113.495 65.4647C109.472 57.3493 103.557 47.8182 103.48 38.835C103.48 38.0472 102.217 38.0472 102.217 38.835C101.98 49 107.738 59.6359 112.47 68.4591C112.55 68.6161 112.627 68.6961 112.707 68.773C111.601 73.974 111.444 79.3319 111.838 84.9238C113.258 104.7 116.807 124.079 123.274 142.359C115.704 123.608 107.263 105.014 103.006 85.3177C102.849 84.5299 101.586 84.8468 101.743 85.6347C104.189 98.6341 108.526 110.923 113.258 123.291C115.073 128.098 116.727 133.219 118.542 138.34C116.57 134.875 114.678 131.406 112.864 127.861C106.24 115.099 98.9053 102.099 96.222 87.7612C93.6219 74.131 92.6731 58.4541 94.1734 44.6669C94.962 37.4163 97.4851 29.7748 103.163 24.9708C109.235 19.8498 117.439 20.0068 123.591 24.7338C124.537 25.5217 125.563 23.946 124.851 23.1582C116.807 13.704 102.691 18.508 96.3021 27.3343C86.9184 40.2537 89.2843 59.6359 90.2301 74.5249C90.7816 82.9542 91.9645 91.3835 94.6447 99.4219C97.405 107.457 101.428 115.099 105.215 122.663C109.472 131.17 113.967 139.679 119.016 147.714C118.699 147.557 118.465 147.48 118.07 147.4C117.121 147.243 116.099 147.086 115.073 147.086C113.733 147.006 111.838 146.849 110.655 147.637C105.452 142.516 100.088 137.632 94.1734 133.219C78.4773 121.482 54.8176 112.104 35.97 122.346C35.4185 122.663 35.1813 123.134 35.1813 123.685C26.2689 130.699 13.179 132.511 7.81557 143.461C4.89508 149.45 3.39787 156.46 1.0319 162.683C-1.17695 168.672 0.400359 173.085 3.47797 178.44C4.66095 180.49 7.89259 178.6 6.63259 176.55C4.18652 172.454 2.76633 168.752 4.34364 164.025C5.13229 161.975 6.23826 159.926 7.02692 157.642ZM29.2664 219.411C20.1969 216.653 14.2819 207.356 11.0472 197.271C10.9702 197.191 10.8131 197.191 10.733 197.114C10.0244 196.72 10.1014 195.933 10.4958 195.459C8.52413 188.605 7.73548 181.434 7.97269 175.92C8.2099 171.349 9.39288 167.096 11.5216 163C14.362 157.722 15.9393 152.915 17.3565 147.086C19.0139 140.153 21.617 133.533 28.8721 131.013C29.975 130.619 30.3693 132.274 29.3465 132.745C20.1168 136.527 20.7483 147.637 18.6195 155.593C17.3565 160.243 14.9905 164.025 13.3362 168.198C35.2614 176.077 57.1836 184.035 79.1088 191.993C90.2301 196.01 101.428 200.109 112.55 204.205C123.197 208.144 133.683 212.554 144.804 215.078C145.356 215.155 145.119 215.943 144.567 215.866C122.014 211.609 100.088 201.918 78.5574 194.197C56.5551 186.318 34.5498 178.44 12.5475 170.485C11.916 172.454 11.5216 174.581 11.4415 176.864C11.3645 183.561 12.5475 190.575 15.1507 196.954C22.877 201.131 31.0008 204.599 39.4388 207.119C47.4856 209.563 55.7665 210.822 63.9673 212.634C71.8538 214.447 77.9258 217.912 84.7095 222.245C92.439 227.129 100.954 230.675 109.866 232.644C110.341 232.724 110.184 233.512 109.629 233.432C101.428 231.779 93.7791 229.259 86.4439 225.16C78.083 220.433 70.9851 216.1 61.4442 214.21C45.6711 211.059 30.8437 207.356 16.6479 200.266C19.8826 206.805 24.4544 212.554 30.6065 216.573C32.0267 217.441 31.0809 219.962 29.2664 219.411ZM320.912 104.149C321.543 105.408 322.252 107.14 323.198 108.402C318.309 110.766 313.734 113.603 309.553 117.225C301.038 124.633 294.412 133.77 284.477 139.208C287 135.269 289.523 131.406 292.283 127.624C299.855 117.305 310.185 109.033 318.466 99.2619C319.097 100.998 320.123 102.573 320.912 104.149ZM326.51 84.2929C316.574 100.287 300.801 111.003 289.443 125.815C283.371 133.693 278.087 142.199 272.724 150.552C266.572 160.006 259.317 169.38 254.348 179.388C253.559 181.041 255.768 183.01 257.031 181.434C258.528 179.545 260.028 177.652 261.368 175.606C261.606 175.843 262.077 175.92 262.471 175.606C270.989 168.515 281.162 163.471 289.366 155.987C297.804 148.188 302.141 136.764 311.842 130.305C312.551 129.831 311.919 128.729 311.131 129.123C301.59 135.189 297.095 145.431 289.209 153.229C282.031 160.4 271.778 164.182 264.443 171.116C268.229 165.284 271.778 159.218 275.484 153.466C277.773 149.844 280.059 146.219 282.345 142.593C282.505 142.593 282.662 142.593 282.819 142.593C291.575 139.759 298.041 133.376 304.427 127.153C313.025 118.724 321.701 112.498 333.213 108.559C337.945 106.983 342.914 105.094 347.883 104.226C354.824 103.044 356.796 110.058 361.21 113.603C367.757 118.958 377.301 120.063 382.821 126.679C382.347 126.679 381.953 126.679 381.481 126.679C376.118 126.442 370.992 125.972 365.628 126.759C342.837 129.988 325.721 146.849 312.157 164.182C311.605 164.89 312.551 165.995 313.182 165.207C323.986 152.284 336.605 139.996 352.615 134.007C358.216 131.88 363.971 130.699 369.886 130.462C363.419 136.921 357.11 142.83 349.541 148.268C342.677 153.229 335.659 158.116 329.744 164.102C322.961 170.956 319.335 179.228 315.074 187.737C309.634 198.767 301.433 207.276 289.76 211.609C289.128 211.846 289.443 212.791 289.997 212.554C298.512 209.563 305.927 204.599 311.368 197.351C318.389 187.894 321.226 176.157 329.35 167.333C336.134 159.926 344.649 154.411 352.772 148.502C359.713 143.461 367.757 137.866 372.252 130.305C373.595 130.305 374.935 130.305 376.355 130.462C380.375 130.776 384.399 131.33 388.419 130.699C389.996 130.462 401.432 127.861 401.826 131.563C401.512 131.33 401.038 131.33 400.723 131.723C392.917 140.784 385.187 148.896 374.935 155.279C374.223 155.753 374.855 156.774 375.566 156.38C385.187 151.259 394.494 144.092 400.723 135.032C400.88 136.371 402.695 137.472 403.798 136.214C407.584 131.8 404.272 125.892 398.832 124.947C395.046 124.239 391.102 125.341 387.159 126.129C387.159 126.129 387.159 126.049 387.079 126.049C382.11 117.462 371.937 116.517 364.525 111.003C360.582 108.088 359.082 102.413 354.43 100.444C350.012 98.6341 344.886 100.524 340.548 101.785C335.739 103.201 331.084 104.777 326.51 106.746C326.115 105.094 324.932 103.438 323.986 102.179C322.803 100.524 321.383 98.791 319.572 97.7662C322.803 93.827 325.644 89.6508 327.853 84.9238C328.247 84.2159 327.064 83.4281 326.51 84.2929Z" fill="white" stroke="white" stroke-opacity="0.2" stroke-width="2" mask="url(#path-3-inside-1_71_2)"/>
</g>
<mask id="path-4-outside-2_71_2" maskUnits="userSpaceOnUse" x="774" y="552.96" width="147" height="267" fill="black">
<rect fill="white" x="774" y="552.96" width="147" height="267"/>
<path d="M837.403 556.656C833.003 558.123 824.336 559.723 818.069 560.123C807.403 560.923 806.469 561.189 802.203 565.456C798.336 569.323 797.803 570.523 798.469 574.656C798.869 577.189 801.003 581.456 803.136 584.256L807.136 589.189L803.536 593.323C801.536 595.723 797.669 598.123 794.203 599.056C786.736 601.189 781.269 606.523 779.669 613.323C777.936 620.789 775.136 639.056 775.003 644.123C774.869 650.123 779.803 655.189 785.536 655.189C788.603 655.189 790.469 655.989 791.403 657.856C792.203 659.323 795.269 661.723 798.336 663.323C803.003 665.723 805.536 666.123 814.603 665.589C826.603 664.923 833.403 662.123 841.936 654.523C844.736 651.989 847.669 649.856 848.336 649.856C850.069 649.856 853.669 662.523 855.403 675.189C856.469 682.389 856.336 687.989 855.269 695.056C854.069 703.589 854.069 705.189 855.803 706.523C857.536 707.856 857.269 709.189 853.269 717.189C847.536 728.923 845.536 742.256 846.603 759.189C847.803 774.923 845.536 795.189 841.403 808.389C839.669 813.856 838.469 818.656 838.736 818.923C839.803 819.989 845.936 797.989 847.269 787.989C848.069 782.389 848.736 768.523 848.736 757.323C848.736 734.789 850.469 725.456 856.469 714.656C859.803 708.923 861.003 707.989 867.669 705.856C871.669 704.656 878.469 701.723 882.736 699.456C889.936 695.589 891.536 695.189 902.736 695.189C911.536 695.189 915.669 694.656 917.803 693.056C921.269 690.656 921.403 689.456 918.603 686.656C914.069 682.123 889.136 685.456 875.269 692.523C872.469 693.989 867.803 697.723 864.869 700.656C857.803 708.123 854.736 707.189 856.336 698.256C858.469 685.456 856.869 668.123 851.936 652.389C851.536 650.789 853.269 649.589 859.003 647.456C864.069 645.589 869.269 642.256 874.203 637.589C878.203 633.723 886.869 627.456 893.269 623.856C913.536 612.256 913.536 612.656 893.669 612.523H876.603L880.603 607.456C889.803 595.989 895.269 575.056 891.536 565.456C888.736 558.389 878.469 556.923 865.669 561.723C862.336 563.056 861.803 562.789 860.736 559.856C858.203 553.323 850.603 552.256 837.403 556.656ZM856.469 557.323C860.603 560.123 860.203 562.656 854.869 567.589C849.136 573.056 847.003 580.656 848.469 590.256C849.536 596.923 849.269 598.656 844.869 609.589C839.536 623.056 838.469 624.523 837.269 621.456C836.869 620.256 837.669 616.656 839.269 613.456C848.336 594.923 833.669 579.189 813.403 585.856C809.003 587.323 808.203 587.189 805.269 584.389C800.736 580.123 799.003 573.189 801.403 568.523C803.669 564.123 809.403 561.856 818.603 561.856C822.336 561.723 830.869 560.256 837.403 558.523C851.803 554.656 852.603 554.656 856.469 557.323ZM888.736 564.123C891.269 567.323 891.669 568.923 891.003 576.523C889.536 594.256 880.336 610.123 867.936 615.989C864.069 617.856 858.469 621.989 855.536 625.323L850.336 631.323L851.669 625.589C852.336 622.389 852.736 614.656 852.336 608.256C851.669 597.189 851.803 596.256 856.736 583.589C859.669 576.389 862.069 569.189 862.069 567.456C862.069 565.856 862.203 564.523 862.469 564.523C862.603 564.523 865.136 563.589 868.069 562.523C871.003 561.456 876.203 560.656 879.669 560.523C884.869 560.523 886.336 561.056 888.736 564.123ZM860.736 567.056C860.736 568.789 853.003 589.589 851.403 592.389C850.469 593.856 850.203 591.589 850.069 584.923C850.069 575.989 850.336 574.923 854.203 570.523C858.203 565.989 860.736 564.656 860.736 567.056ZM835.536 590.656C840.736 595.856 841.803 602.656 838.736 610.523C837.536 613.856 836.069 616.523 835.403 616.523C834.869 616.523 832.203 613.723 829.803 610.123C827.269 606.656 822.069 600.389 818.203 596.256C811.936 589.456 811.536 588.523 813.669 587.189C815.003 586.389 819.536 585.989 823.803 586.256C830.336 586.656 832.203 587.323 835.536 590.656ZM829.936 612.923C832.869 617.323 833.803 619.856 833.003 621.323C832.069 622.923 831.403 622.256 829.403 617.856C825.936 609.989 815.669 600.923 808.069 599.056L801.936 597.456L805.669 593.589L809.403 589.589L817.536 598.256C822.069 602.923 827.536 609.589 829.936 612.923ZM815.403 604.389C819.403 606.789 822.869 610.389 825.669 615.189C829.669 621.723 829.936 623.056 829.403 631.056L828.869 639.856L821.136 640.256C810.869 640.656 805.136 637.589 800.869 629.323C797.269 622.256 796.603 612.123 799.269 604.256C800.736 599.589 801.269 599.323 805.136 599.989C807.536 600.523 812.069 602.389 815.403 604.389ZM797.536 603.456C794.336 615.323 795.936 627.056 801.669 633.989L805.003 637.856H801.403C794.069 637.856 788.869 642.656 788.736 649.456C788.736 653.189 788.203 653.856 785.403 653.856C783.536 653.856 780.736 652.523 779.269 651.056C776.869 648.656 776.603 647.189 777.136 641.323C780.469 610.789 781.403 607.856 789.136 603.189C795.136 599.456 798.603 599.589 797.536 603.456ZM851.269 613.189C851.136 629.723 845.936 639.189 842.069 629.856C840.603 626.123 840.869 624.523 844.869 613.856C849.803 600.656 851.403 600.523 851.269 613.189ZM904.069 615.589C902.603 616.656 897.269 619.723 892.203 622.523C887.136 625.323 879.536 630.789 875.269 634.656C867.003 642.256 862.736 644.789 855.136 646.923C850.336 648.256 850.069 648.123 850.069 645.456C850.203 639.723 852.603 631.856 854.869 630.256C856.203 629.323 857.403 627.589 857.536 626.389C857.669 625.189 858.069 624.123 858.336 623.989C858.603 623.856 860.469 622.389 862.603 620.789C864.736 619.189 867.003 617.856 867.803 617.856C868.603 617.856 866.736 619.723 863.669 621.989C860.469 624.256 856.803 624.956 857.069 625.356C857.469 625.756 862.469 625.056 866.069 621.989C874.603 614.789 877.003 614.123 893.403 613.989C904.869 613.856 906.336 614.123 904.069 615.589ZM837.403 624.389C837.803 625.856 837.403 628.923 836.336 631.456L834.469 635.856L833.536 631.589C831.936 624.523 835.403 618.123 837.403 624.389ZM840.869 637.989C835.536 643.056 834.069 640.923 837.536 632.789L839.536 627.856L841.669 631.589C843.536 635.189 843.403 635.589 840.869 637.989ZM832.736 636.923C832.736 640.123 832.336 640.656 831.403 639.189C829.669 636.523 829.669 630.789 831.403 631.856C832.203 632.256 832.736 634.656 832.736 636.923ZM849.536 638.656C849.003 640.523 848.336 641.856 847.936 641.456C847.536 641.189 847.669 639.189 848.203 637.323C848.603 635.323 849.403 633.989 849.669 634.389C850.069 634.789 849.936 636.656 849.536 638.656ZM844.736 639.856C844.736 640.923 844.203 641.856 843.536 641.856C841.803 641.856 840.603 639.723 841.669 638.656C843.136 637.189 844.736 637.856 844.736 639.856ZM807.136 639.989C808.736 640.523 810.069 641.189 810.069 641.723C809.936 642.789 791.136 651.456 790.336 650.656C788.736 649.056 791.803 643.056 795.136 641.323C799.003 639.189 802.336 638.789 807.136 639.989ZM833.936 646.123C837.803 650.256 837.936 650.523 835.269 650.923C832.203 651.456 818.069 645.056 818.069 643.056C818.069 642.389 820.736 641.856 823.936 641.856C829.003 641.856 830.603 642.523 833.936 646.123ZM820.869 647.456C825.269 650.123 830.069 651.856 834.203 652.256C839.803 652.789 840.469 653.189 839.136 654.789C833.403 661.723 813.003 666.523 803.003 663.323C797.269 661.456 791.403 657.056 791.403 654.656C791.403 652.789 808.603 643.723 813.003 643.323C813.536 643.189 817.136 645.056 820.869 647.456ZM842.336 644.789C841.136 645.989 840.336 645.989 839.136 644.789C837.936 643.589 838.203 643.189 840.736 643.189C843.269 643.189 843.536 643.589 842.336 644.789ZM846.069 646.523C845.136 647.723 844.069 648.256 843.803 647.989C842.869 647.056 844.736 644.523 846.336 644.523C847.136 644.523 847.136 645.323 846.069 646.523ZM918.203 687.989C921.403 691.856 916.336 693.856 902.869 693.856C891.536 693.856 890.203 694.123 880.069 699.056C874.203 701.989 867.669 704.789 865.403 705.323L861.403 706.256L866.069 701.323C874.336 692.656 891.936 686.123 908.203 685.989C914.203 685.856 916.869 686.389 918.203 687.989Z"/>
</mask>
<path d="M837.403 556.656C833.003 558.123 824.336 559.723 818.069 560.123C807.403 560.923 806.469 561.189 802.203 565.456C798.336 569.323 797.803 570.523 798.469 574.656C798.869 577.189 801.003 581.456 803.136 584.256L807.136 589.189L803.536 593.323C801.536 595.723 797.669 598.123 794.203 599.056C786.736 601.189 781.269 606.523 779.669 613.323C777.936 620.789 775.136 639.056 775.003 644.123C774.869 650.123 779.803 655.189 785.536 655.189C788.603 655.189 790.469 655.989 791.403 657.856C792.203 659.323 795.269 661.723 798.336 663.323C803.003 665.723 805.536 666.123 814.603 665.589C826.603 664.923 833.403 662.123 841.936 654.523C844.736 651.989 847.669 649.856 848.336 649.856C850.069 649.856 853.669 662.523 855.403 675.189C856.469 682.389 856.336 687.989 855.269 695.056C854.069 703.589 854.069 705.189 855.803 706.523C857.536 707.856 857.269 709.189 853.269 717.189C847.536 728.923 845.536 742.256 846.603 759.189C847.803 774.923 845.536 795.189 841.403 808.389C839.669 813.856 838.469 818.656 838.736 818.923C839.803 819.989 845.936 797.989 847.269 787.989C848.069 782.389 848.736 768.523 848.736 757.323C848.736 734.789 850.469 725.456 856.469 714.656C859.803 708.923 861.003 707.989 867.669 705.856C871.669 704.656 878.469 701.723 882.736 699.456C889.936 695.589 891.536 695.189 902.736 695.189C911.536 695.189 915.669 694.656 917.803 693.056C921.269 690.656 921.403 689.456 918.603 686.656C914.069 682.123 889.136 685.456 875.269 692.523C872.469 693.989 867.803 697.723 864.869 700.656C857.803 708.123 854.736 707.189 856.336 698.256C858.469 685.456 856.869 668.123 851.936 652.389C851.536 650.789 853.269 649.589 859.003 647.456C864.069 645.589 869.269 642.256 874.203 637.589C878.203 633.723 886.869 627.456 893.269 623.856C913.536 612.256 913.536 612.656 893.669 612.523H876.603L880.603 607.456C889.803 595.989 895.269 575.056 891.536 565.456C888.736 558.389 878.469 556.923 865.669 561.723C862.336 563.056 861.803 562.789 860.736 559.856C858.203 553.323 850.603 552.256 837.403 556.656ZM856.469 557.323C860.603 560.123 860.203 562.656 854.869 567.589C849.136 573.056 847.003 580.656 848.469 590.256C849.536 596.923 849.269 598.656 844.869 609.589C839.536 623.056 838.469 624.523 837.269 621.456C836.869 620.256 837.669 616.656 839.269 613.456C848.336 594.923 833.669 579.189 813.403 585.856C809.003 587.323 808.203 587.189 805.269 584.389C800.736 580.123 799.003 573.189 801.403 568.523C803.669 564.123 809.403 561.856 818.603 561.856C822.336 561.723 830.869 560.256 837.403 558.523C851.803 554.656 852.603 554.656 856.469 557.323ZM888.736 564.123C891.269 567.323 891.669 568.923 891.003 576.523C889.536 594.256 880.336 610.123 867.936 615.989C864.069 617.856 858.469 621.989 855.536 625.323L850.336 631.323L851.669 625.589C852.336 622.389 852.736 614.656 852.336 608.256C851.669 597.189 851.803 596.256 856.736 583.589C859.669 576.389 862.069 569.189 862.069 567.456C862.069 565.856 862.203 564.523 862.469 564.523C862.603 564.523 865.136 563.589 868.069 562.523C871.003 561.456 876.203 560.656 879.669 560.523C884.869 560.523 886.336 561.056 888.736 564.123ZM860.736 567.056C860.736 568.789 853.003 589.589 851.403 592.389C850.469 593.856 850.203 591.589 850.069 584.923C850.069 575.989 850.336 574.923 854.203 570.523C858.203 565.989 860.736 564.656 860.736 567.056ZM835.536 590.656C840.736 595.856 841.803 602.656 838.736 610.523C837.536 613.856 836.069 616.523 835.403 616.523C834.869 616.523 832.203 613.723 829.803 610.123C827.269 606.656 822.069 600.389 818.203 596.256C811.936 589.456 811.536 588.523 813.669 587.189C815.003 586.389 819.536 585.989 823.803 586.256C830.336 586.656 832.203 587.323 835.536 590.656ZM829.936 612.923C832.869 617.323 833.803 619.856 833.003 621.323C832.069 622.923 831.403 622.256 829.403 617.856C825.936 609.989 815.669 600.923 808.069 599.056L801.936 597.456L805.669 593.589L809.403 589.589L817.536 598.256C822.069 602.923 827.536 609.589 829.936 612.923ZM815.403 604.389C819.403 606.789 822.869 610.389 825.669 615.189C829.669 621.723 829.936 623.056 829.403 631.056L828.869 639.856L821.136 640.256C810.869 640.656 805.136 637.589 800.869 629.323C797.269 622.256 796.603 612.123 799.269 604.256C800.736 599.589 801.269 599.323 805.136 599.989C807.536 600.523 812.069 602.389 815.403 604.389ZM797.536 603.456C794.336 615.323 795.936 627.056 801.669 633.989L805.003 637.856H801.403C794.069 637.856 788.869 642.656 788.736 649.456C788.736 653.189 788.203 653.856 785.403 653.856C783.536 653.856 780.736 652.523 779.269 651.056C776.869 648.656 776.603 647.189 777.136 641.323C780.469 610.789 781.403 607.856 789.136 603.189C795.136 599.456 798.603 599.589 797.536 603.456ZM851.269 613.189C851.136 629.723 845.936 639.189 842.069 629.856C840.603 626.123 840.869 624.523 844.869 613.856C849.803 600.656 851.403 600.523 851.269 613.189ZM904.069 615.589C902.603 616.656 897.269 619.723 892.203 622.523C887.136 625.323 879.536 630.789 875.269 634.656C867.003 642.256 862.736 644.789 855.136 646.923C850.336 648.256 850.069 648.123 850.069 645.456C850.203 639.723 852.603 631.856 854.869 630.256C856.203 629.323 857.403 627.589 857.536 626.389C857.669 625.189 858.069 624.123 858.336 623.989C858.603 623.856 860.469 622.389 862.603 620.789C864.736 619.189 867.003 617.856 867.803 617.856C868.603 617.856 866.736 619.723 863.669 621.989C860.469 624.256 856.803 624.956 857.069 625.356C857.469 625.756 862.469 625.056 866.069 621.989C874.603 614.789 877.003 614.123 893.403 613.989C904.869 613.856 906.336 614.123 904.069 615.589ZM837.403 624.389C837.803 625.856 837.403 628.923 836.336 631.456L834.469 635.856L833.536 631.589C831.936 624.523 835.403 618.123 837.403 624.389ZM840.869 637.989C835.536 643.056 834.069 640.923 837.536 632.789L839.536 627.856L841.669 631.589C843.536 635.189 843.403 635.589 840.869 637.989ZM832.736 636.923C832.736 640.123 832.336 640.656 831.403 639.189C829.669 636.523 829.669 630.789 831.403 631.856C832.203 632.256 832.736 634.656 832.736 636.923ZM849.536 638.656C849.003 640.523 848.336 641.856 847.936 641.456C847.536 641.189 847.669 639.189 848.203 637.323C848.603 635.323 849.403 633.989 849.669 634.389C850.069 634.789 849.936 636.656 849.536 638.656ZM844.736 639.856C844.736 640.923 844.203 641.856 843.536 641.856C841.803 641.856 840.603 639.723 841.669 638.656C843.136 637.189 844.736 637.856 844.736 639.856ZM807.136 639.989C808.736 640.523 810.069 641.189 810.069 641.723C809.936 642.789 791.136 651.456 790.336 650.656C788.736 649.056 791.803 643.056 795.136 641.323C799.003 639.189 802.336 638.789 807.136 639.989ZM833.936 646.123C837.803 650.256 837.936 650.523 835.269 650.923C832.203 651.456 818.069 645.056 818.069 643.056C818.069 642.389 820.736 641.856 823.936 641.856C829.003 641.856 830.603 642.523 833.936 646.123ZM820.869 647.456C825.269 650.123 830.069 651.856 834.203 652.256C839.803 652.789 840.469 653.189 839.136 654.789C833.403 661.723 813.003 666.523 803.003 663.323C797.269 661.456 791.403 657.056 791.403 654.656C791.403 652.789 808.603 643.723 813.003 643.323C813.536 643.189 817.136 645.056 820.869 647.456ZM842.336 644.789C841.136 645.989 840.336 645.989 839.136 644.789C837.936 643.589 838.203 643.189 840.736 643.189C843.269 643.189 843.536 643.589 842.336 644.789ZM846.069 646.523C845.136 647.723 844.069 648.256 843.803 647.989C842.869 647.056 844.736 644.523 846.336 644.523C847.136 644.523 847.136 645.323 846.069 646.523ZM918.203 687.989C921.403 691.856 916.336 693.856 902.869 693.856C891.536 693.856 890.203 694.123 880.069 699.056C874.203 701.989 867.669 704.789 865.403 705.323L861.403 706.256L866.069 701.323C874.336 692.656 891.936 686.123 908.203 685.989C914.203 685.856 916.869 686.389 918.203 687.989Z" fill="black"/>
<path d="M837.403 556.656C833.003 558.123 824.336 559.723 818.069 560.123C807.403 560.923 806.469 561.189 802.203 565.456C798.336 569.323 797.803 570.523 798.469 574.656C798.869 577.189 801.003 581.456 803.136 584.256L807.136 589.189L803.536 593.323C801.536 595.723 797.669 598.123 794.203 599.056C786.736 601.189 781.269 606.523 779.669 613.323C777.936 620.789 775.136 639.056 775.003 644.123C774.869 650.123 779.803 655.189 785.536 655.189C788.603 655.189 790.469 655.989 791.403 657.856C792.203 659.323 795.269 661.723 798.336 663.323C803.003 665.723 805.536 666.123 814.603 665.589C826.603 664.923 833.403 662.123 841.936 654.523C844.736 651.989 847.669 649.856 848.336 649.856C850.069 649.856 853.669 662.523 855.403 675.189C856.469 682.389 856.336 687.989 855.269 695.056C854.069 703.589 854.069 705.189 855.803 706.523C857.536 707.856 857.269 709.189 853.269 717.189C847.536 728.923 845.536 742.256 846.603 759.189C847.803 774.923 845.536 795.189 841.403 808.389C839.669 813.856 838.469 818.656 838.736 818.923C839.803 819.989 845.936 797.989 847.269 787.989C848.069 782.389 848.736 768.523 848.736 757.323C848.736 734.789 850.469 725.456 856.469 714.656C859.803 708.923 861.003 707.989 867.669 705.856C871.669 704.656 878.469 701.723 882.736 699.456C889.936 695.589 891.536 695.189 902.736 695.189C911.536 695.189 915.669 694.656 917.803 693.056C921.269 690.656 921.403 689.456 918.603 686.656C914.069 682.123 889.136 685.456 875.269 692.523C872.469 693.989 867.803 697.723 864.869 700.656C857.803 708.123 854.736 707.189 856.336 698.256C858.469 685.456 856.869 668.123 851.936 652.389C851.536 650.789 853.269 649.589 859.003 647.456C864.069 645.589 869.269 642.256 874.203 637.589C878.203 633.723 886.869 627.456 893.269 623.856C913.536 612.256 913.536 612.656 893.669 612.523H876.603L880.603 607.456C889.803 595.989 895.269 575.056 891.536 565.456C888.736 558.389 878.469 556.923 865.669 561.723C862.336 563.056 861.803 562.789 860.736 559.856C858.203 553.323 850.603 552.256 837.403 556.656ZM856.469 557.323C860.603 560.123 860.203 562.656 854.869 567.589C849.136 573.056 847.003 580.656 848.469 590.256C849.536 596.923 849.269 598.656 844.869 609.589C839.536 623.056 838.469 624.523 837.269 621.456C836.869 620.256 837.669 616.656 839.269 613.456C848.336 594.923 833.669 579.189 813.403 585.856C809.003 587.323 808.203 587.189 805.269 584.389C800.736 580.123 799.003 573.189 801.403 568.523C803.669 564.123 809.403 561.856 818.603 561.856C822.336 561.723 830.869 560.256 837.403 558.523C851.803 554.656 852.603 554.656 856.469 557.323ZM888.736 564.123C891.269 567.323 891.669 568.923 891.003 576.523C889.536 594.256 880.336 610.123 867.936 615.989C864.069 617.856 858.469 621.989 855.536 625.323L850.336 631.323L851.669 625.589C852.336 622.389 852.736 614.656 852.336 608.256C851.669 597.189 851.803 596.256 856.736 583.589C859.669 576.389 862.069 569.189 862.069 567.456C862.069 565.856 862.203 564.523 862.469 564.523C862.603 564.523 865.136 563.589 868.069 562.523C871.003 561.456 876.203 560.656 879.669 560.523C884.869 560.523 886.336 561.056 888.736 564.123ZM860.736 567.056C860.736 568.789 853.003 589.589 851.403 592.389C850.469 593.856 850.203 591.589 850.069 584.923C850.069 575.989 850.336 574.923 854.203 570.523C858.203 565.989 860.736 564.656 860.736 567.056ZM835.536 590.656C840.736 595.856 841.803 602.656 838.736 610.523C837.536 613.856 836.069 616.523 835.403 616.523C834.869 616.523 832.203 613.723 829.803 610.123C827.269 606.656 822.069 600.389 818.203 596.256C811.936 589.456 811.536 588.523 813.669 587.189C815.003 586.389 819.536 585.989 823.803 586.256C830.336 586.656 832.203 587.323 835.536 590.656ZM829.936 612.923C832.869 617.323 833.803 619.856 833.003 621.323C832.069 622.923 831.403 622.256 829.403 617.856C825.936 609.989 815.669 600.923 808.069 599.056L801.936 597.456L805.669 593.589L809.403 589.589L817.536 598.256C822.069 602.923 827.536 609.589 829.936 612.923ZM815.403 604.389C819.403 606.789 822.869 610.389 825.669 615.189C829.669 621.723 829.936 623.056 829.403 631.056L828.869 639.856L821.136 640.256C810.869 640.656 805.136 637.589 800.869 629.323C797.269 622.256 796.603 612.123 799.269 604.256C800.736 599.589 801.269 599.323 805.136 599.989C807.536 600.523 812.069 602.389 815.403 604.389ZM797.536 603.456C794.336 615.323 795.936 627.056 801.669 633.989L805.003 637.856H801.403C794.069 637.856 788.869 642.656 788.736 649.456C788.736 653.189 788.203 653.856 785.403 653.856C783.536 653.856 780.736 652.523 779.269 651.056C776.869 648.656 776.603 647.189 777.136 641.323C780.469 610.789 781.403 607.856 789.136 603.189C795.136 599.456 798.603 599.589 797.536 603.456ZM851.269 613.189C851.136 629.723 845.936 639.189 842.069 629.856C840.603 626.123 840.869 624.523 844.869 613.856C849.803 600.656 851.403 600.523 851.269 613.189ZM904.069 615.589C902.603 616.656 897.269 619.723 892.203 622.523C887.136 625.323 879.536 630.789 875.269 634.656C867.003 642.256 862.736 644.789 855.136 646.923C850.336 648.256 850.069 648.123 850.069 645.456C850.203 639.723 852.603 631.856 854.869 630.256C856.203 629.323 857.403 627.589 857.536 626.389C857.669 625.189 858.069 624.123 858.336 623.989C858.603 623.856 860.469 622.389 862.603 620.789C864.736 619.189 867.003 617.856 867.803 617.856C868.603 617.856 866.736 619.723 863.669 621.989C860.469 624.256 856.803 624.956 857.069 625.356C857.469 625.756 862.469 625.056 866.069 621.989C874.603 614.789 877.003 614.123 893.403 613.989C904.869 613.856 906.336 614.123 904.069 615.589ZM837.403 624.389C837.803 625.856 837.403 628.923 836.336 631.456L834.469 635.856L833.536 631.589C831.936 624.523 835.403 618.123 837.403 624.389ZM840.869 637.989C835.536 643.056 834.069 640.923 837.536 632.789L839.536 627.856L841.669 631.589C843.536 635.189 843.403 635.589 840.869 637.989ZM832.736 636.923C832.736 640.123 832.336 640.656 831.403 639.189C829.669 636.523 829.669 630.789 831.403 631.856C832.203 632.256 832.736 634.656 832.736 636.923ZM849.536 638.656C849.003 640.523 848.336 641.856 847.936 641.456C847.536 641.189 847.669 639.189 848.203 637.323C848.603 635.323 849.403 633.989 849.669 634.389C850.069 634.789 849.936 636.656 849.536 638.656ZM844.736 639.856C844.736 640.923 844.203 641.856 843.536 641.856C841.803 641.856 840.603 639.723 841.669 638.656C843.136 637.189 844.736 637.856 844.736 639.856ZM807.136 639.989C808.736 640.523 810.069 641.189 810.069 641.723C809.936 642.789 791.136 651.456 790.336 650.656C788.736 649.056 791.803 643.056 795.136 641.323C799.003 639.189 802.336 638.789 807.136 639.989ZM833.936 646.123C837.803 650.256 837.936 650.523 835.269 650.923C832.203 651.456 818.069 645.056 818.069 643.056C818.069 642.389 820.736 641.856 823.936 641.856C829.003 641.856 830.603 642.523 833.936 646.123ZM820.869 647.456C825.269 650.123 830.069 651.856 834.203 652.256C839.803 652.789 840.469 653.189 839.136 654.789C833.403 661.723 813.003 666.523 803.003 663.323C797.269 661.456 791.403 657.056 791.403 654.656C791.403 652.789 808.603 643.723 813.003 643.323C813.536 643.189 817.136 645.056 820.869 647.456ZM842.336 644.789C841.136 645.989 840.336 645.989 839.136 644.789C837.936 643.589 838.203 643.189 840.736 643.189C843.269 643.189 843.536 643.589 842.336 644.789ZM846.069 646.523C845.136 647.723 844.069 648.256 843.803 647.989C842.869 647.056 844.736 644.523 846.336 644.523C847.136 644.523 847.136 645.323 846.069 646.523ZM918.203 687.989C921.403 691.856 916.336 693.856 902.869 693.856C891.536 693.856 890.203 694.123 880.069 699.056C874.203 701.989 867.669 704.789 865.403 705.323L861.403 706.256L866.069 701.323C874.336 692.656 891.936 686.123 908.203 685.989C914.203 685.856 916.869 686.389 918.203 687.989Z" stroke="black" stroke-width="0.4" mask="url(#path-4-outside-2_71_2)"/>
</svg>
