<svg width="400" height="374" viewBox="0 0 400 374" fill="none" xmlns="http://www.w3.org/2000/svg">
<g clip-path="url(#clip0_71_103)">
<path d="M295.067 3.20004C291.2 5.06671 284.4 9.06671 279.867 12.1334C272.667 16.9333 270.267 17.8667 259.467 19.3334C252.8 20.2667 246.267 21.4667 244.933 22C241.6 23.3334 238.267 30.4 239.2 34C239.867 36.6667 239.333 37.0667 233.467 37.7334C225.067 38.8 217.467 42.5334 212.267 48.6667C204.933 56.8 206.667 64 218.533 76.5334C225.467 83.7334 226.667 85.8667 229.2 94.9334C231.733 104.133 231.733 105.467 230 108.933C228.933 110.933 228 114.533 228 116.8C228 120.933 228 120.933 219.467 121.733C214.667 122.133 208.533 123.6 205.733 124.8C202.933 126 198.8 126.933 196.4 126.8C189.733 126.533 174.267 130.133 167.067 133.733C163.467 135.6 157.2 139.867 153.067 143.2L145.733 149.2L141.333 144.667C132.4 135.467 110.8 126.667 97.3333 126.667C84.5333 126.667 69.0666 133.467 61.1999 142.4C57.1999 146.933 43.9999 172.267 43.9999 175.467C43.9999 176.4 39.5999 180.533 34.3999 184.8C19.7333 196.533 9.46659 206.667 5.73326 213.067C2.79993 218 2.53326 219.733 3.19993 225.6C4.66659 236.533 10.6666 245.867 18.9333 250.133L22.6666 252L17.3333 256.8C14.3999 259.467 10.5333 264.8 8.53326 268.8C5.59993 274.933 5.06659 277.2 5.73326 283.067C6.79993 291.467 8.93326 294.533 20.9333 304.267C28.3999 310.267 31.5999 314.133 36.5333 323.067C41.0666 331.2 44.2666 335.067 47.9999 337.467C52.5333 340.133 53.3333 341.333 53.3333 345.333C53.4666 360 70.1333 375.067 83.8666 372.8C86.5333 372.4 95.9999 368.667 105.067 364.667C130.667 353.067 134 352.8 160.933 361.467C178 366.933 182.667 366.4 190.133 358.267C195.067 352.8 198.667 344.933 198.667 339.467C198.667 337.733 199.333 337.333 201.6 338.133C203.333 338.667 208.533 339.067 213.333 339.2C222.533 339.2 232 335.867 236.667 330.667C240.267 326.8 242.533 318.8 242.667 310.133C242.667 302.667 242.933 302.133 249.6 294.8C259.067 284.533 267.6 271.2 269.467 263.867C270.933 258.4 270.8 256.8 268.667 251.2C262.4 234.533 241.733 225.867 211.333 227.067C193.867 227.6 189.6 229.067 168.8 240.667L153.467 249.333L149.867 246L146.4 242.8L153.333 219.867C160.133 197.733 160.267 196.667 159.733 184.933C158.933 172.133 156.667 164.267 151.067 156L147.867 151.333L153.6 146.267C161.467 139.467 176.267 132.4 186.533 130.667C191.067 129.867 195.333 129.467 195.733 129.867C196.133 130.4 194.933 132.4 193.067 134.4C184.267 144 174.933 161.467 171.333 175.333C168.533 186.133 168.8 199.333 171.867 206.133C175.067 213.067 183.867 220.533 191.467 222.667C198.533 224.667 212.133 223.733 222.4 220.667C232.533 217.6 241.733 208.4 243.867 199.2C245.467 192.8 245.2 191.467 238 167.333C231.333 144.667 230 141.467 225.733 137.067C221.067 132.4 218.533 131.067 208.667 128.533C204.8 127.6 204.8 127.467 211.333 125.867C222.933 123.067 227.733 123.467 231.333 127.733C233.067 129.867 236.933 133.2 239.867 135.2C244.667 138.533 245.333 139.733 247.333 148.667C249.867 160.267 252.933 164.8 259.733 166.667C278.4 171.867 297.6 162.533 305.467 144.533L308.133 138.8L312.933 144C315.6 147.067 321.867 151.467 327.733 154.4C336.8 158.8 338.933 159.333 347.867 159.333C356.533 159.333 358.933 158.8 365.067 155.333C376.933 148.933 378.533 142.133 372 128.267C368.4 120.667 368 118.4 368 107.333C368 95.8667 367.733 94.5334 364.667 90.8C361.2 86.8 349.2 81.3334 343.867 81.3334C339.867 81.3334 342 83.6 347.067 84.6667C353.333 86.1334 360.8 90.2667 363.2 93.6C364.8 95.7334 365.333 99.8667 365.333 108.133C365.333 118 365.867 120.8 369.333 128.4C371.6 133.333 373.333 138.533 373.333 140C373.333 149.333 362.133 156.667 347.867 156.667C340.533 156.667 337.733 155.867 329.067 151.733C323.067 148.667 316.933 144.4 314 141.2C309.2 135.867 309.067 135.2 309.733 128.8C310.133 125.067 312 118.267 313.867 113.733C318.533 102.533 318.4 96.1334 313.733 91.0667C311.6 88.9334 308.933 86.5334 307.6 85.8667C305.333 84.5334 305.333 84.2667 308.267 79.6C311.2 74.9334 311.733 74.6667 316.667 75.3334C333.467 77.4667 361.467 80 369.2 80C380.933 80 388.933 76.1334 392.533 68.8C396 61.6 395.867 53.4667 392.133 48.4C389.467 44.9334 387.467 44 376.267 41.4667C369.067 40 360.667 38.2667 357.467 37.8667C353.333 37.2 349.2 35.0667 343.2 30.5334C338.533 26.8 333.333 24 331.6 24C328.933 24 328.133 23.0667 327.467 19.7334C326.267 13.7334 320.8 5.73337 316.133 3.46671C308.933 -0.266632 302.667 -0.399963 295.067 3.20004ZM312.933 5.20004C318.8 8.00003 322 11.7334 324.667 19.4667C326.267 24.1334 326.133 24.4 320.133 30.4C316.133 34.5334 313.333 38.8 312.133 42.6667C303.333 73.2 301.733 75.6 296.933 65.3334C293.733 58.4 284.8 49.6 276.4 45.0667C269.067 41.0667 255.467 37.3334 247.733 37.3334C241.733 37.3334 240.133 34.1334 243.2 28.2667C245.467 23.8667 247.2 23.2 261.333 21.8667C270.533 21.0667 272.267 20.4 282.133 13.8667C299.867 2.13336 303.6 1.06668 312.933 5.20004ZM339.333 31.2C347.333 37.7334 351.867 39.6 370.4 43.2C388.933 46.8 391.867 48.9334 392 57.7334C392.133 70.4 384.133 77.2 369.067 77.3334C361.867 77.3334 327.6 74.1334 317.733 72.5334L313.333 71.8667L316.533 65.6C320.133 58.5334 328 34.5334 328 30.9333C328 25.2 332 25.3334 339.333 31.2ZM322.667 41.6C318.667 54.8 310.667 72 308.533 72C306.133 72 306 72.8 311.6 54.5334C314.933 43.8667 317.867 37.0667 320.533 33.8667C322.667 31.0667 324.8 29.6 325.067 30.4C325.333 31.2 324.133 36.2667 322.667 41.6ZM243.733 45.3334C250.267 56.8 269.333 68 287.6 71.0667C297.6 72.8 297.867 72.9334 299.067 77.2C299.6 79.6 299.867 81.8667 299.6 82.1334C299.333 82.4 297.067 82 294.533 81.3334C278.533 76.6667 252.933 83.6 239.333 96.2667L233.467 101.6L232.533 97.7334C229.6 84.5334 228.8 83.0667 220.8 74.6667C208.4 61.7334 207.867 54.5334 218.8 46.4C223.2 43.0667 231.6 40.1334 236.667 40.1334C240 40 241.2 40.9333 243.733 45.3334ZM258.8 41.8667C268.533 44 277.2 47.8667 283.333 53.0667C287.333 56.2667 296 67.6 296 69.4667C296 71.3334 277.733 66.4 268.4 61.8667C259.2 57.4667 244 44.6667 244 41.3334C244 39.4667 248.4 39.7334 258.8 41.8667ZM308 74.9334C307.867 77.2 302.8 83.8667 302.667 81.7334C302.667 78.9334 305.2 73.3334 306.667 73.3334C307.333 73.3334 308 74.1334 308 74.9334ZM298.267 84.5334C299.733 86 294.133 93.4667 288.133 97.8667C276.667 106.4 270.133 108.533 256.667 108.667C245.6 108.667 236 106.533 236 104.133C236 102 246.533 93.2 252.8 90.1334C263.733 84.6667 273.867 82.6667 286.533 83.3334C292.667 83.6 298 84.1334 298.267 84.5334ZM313.333 94.6667C315.333 98.2667 314.933 103.467 312.4 110.8L310.133 117.2L307.867 104.267C306.667 97.2 305.2 90.1334 304.533 88.8C303.6 86.4 303.867 86.4 307.733 89.2C310.133 90.8 312.667 93.3334 313.333 94.6667ZM306.267 124.667C306 136.533 305.467 138.8 302 145.2C296.667 154.8 288.267 162 279.867 164C273.6 165.6 261.867 165.067 256.933 163.2C254.4 162.267 251.467 155.2 249.467 145.067C248 138 247.333 137.2 240 131.733C235.6 128.533 232 125.333 232 124.533C232 123.867 238 122.4 245.6 121.467C268.8 118.667 289.2 108.8 295.6 97.4667C301.867 86.5334 301.733 86.5334 304.4 99.4667C305.867 107.333 306.533 115.867 306.267 124.667ZM292.133 99.7334C290.533 102.667 272.8 112 263.333 115.067C257.2 117.067 239.067 120 233.2 120C231.333 120 230.667 119.067 230.667 116.533C230.667 113.733 232.4 108.933 234 106.933C234.267 106.667 236.133 107.6 238.133 108.933C241.2 110.8 244.533 111.333 255.333 111.333C267.467 111.333 269.467 110.933 277.333 107.2C282.133 104.933 287.467 101.733 289.333 100.267C293.467 96.8 293.733 96.6667 292.133 99.7334ZM109.867 131.333C114.133 132.4 120.667 134.8 124.4 136.667C132.133 140.267 143.867 149.2 144 151.467C144 152.267 142.4 154.267 140.533 156.133C135.333 160.933 127.2 173.867 124.133 181.733C118 198.4 118 221.733 124.267 236.4C125.733 239.867 126.667 243.067 126.267 243.467C125.867 243.867 123.333 242.667 120.8 240.667C102.533 226.8 56.6666 229.867 30.1333 246.667L24.1333 250.533L18.3999 246.267C15.3333 243.867 11.5999 239.867 10.1333 237.333C6.93326 232 5.19993 220.667 6.79993 216.267C8.53326 211.733 20.5333 199.6 33.4666 189.2C44.2666 180.533 45.1999 179.333 49.3333 169.6C59.4666 145.2 68.1333 136.133 85.4666 131.467C94.9333 128.933 100.4 128.933 109.867 131.333ZM212.8 132.667C224.667 136.133 227.2 140.133 235.467 168.4C239.333 182 242.4 194 242.133 194.933C241.867 195.867 241.2 198.267 240.8 200.4C239.333 206.533 231.333 214.267 222.933 217.333C195.067 227.733 172 216.133 172 191.733C172 176 180.133 155.6 193.333 138.133C199.733 129.733 201.467 129.2 212.8 132.667ZM153.467 166.667C155.067 170.933 156.533 178.667 156.933 185.067C157.733 195.467 157.333 197.2 150.667 219.067L143.6 242L136.267 241.333L129.067 240.667L126.267 234C122.933 225.733 121.733 203.867 123.867 193.2C125.867 183.333 131.6 171.867 139.333 161.467L145.733 153.067L148.267 156.133C149.6 157.867 151.867 162.667 153.467 166.667ZM235.333 231.333C240.4 232.4 247.733 234.933 251.6 236.8C263.2 242.4 269.467 253.6 266.667 263.733C264.933 270.4 256.4 283.333 247.067 293.333C240.4 300.667 240 301.333 240 308.133C240 316.8 237.867 325.067 234.933 328.533C230.933 333.067 222.533 336 213.333 336C200.8 336 198.667 335.2 198.667 330.4C198.667 324.933 195.067 311.467 191.6 304.133C188.667 298 172.533 280.667 158.667 268.933C152.933 264 151.733 262.4 153.067 261.067C154 260.133 154.667 257.6 154.667 255.333C154.667 251.733 155.6 250.8 163.067 246.933C167.6 244.533 175.333 240.4 180.133 237.867C184.933 235.333 191.867 232.4 195.467 231.333C204.267 228.933 223.867 228.933 235.333 231.333ZM107.067 237.333C111.867 238.8 117.067 241.2 118.8 242.533L121.867 245.067L104.667 250.533C83.9999 257.2 71.0666 259.2 56.6666 258.133C45.8666 257.333 30.9333 254.133 28.7999 252C26.2666 249.467 54.1333 238.133 69.3333 235.6C79.4666 233.867 98.7999 234.8 107.067 237.333ZM142.667 245.2C142.667 245.867 142 248.133 141.333 250.133L139.867 253.733L136 250C133.733 247.867 132 245.733 132 245.067C132 244.533 134.4 244 137.333 244C140.267 244 142.667 244.533 142.667 245.2ZM134.133 251.333C137.867 255.2 139.333 257.6 138.4 258.133C137.467 258.667 136.133 258 135.467 256.667C134.667 255.333 132.267 252.267 130.133 249.733C124.667 243.2 127.467 244.4 134.133 251.333ZM129.2 252.267C131.467 255.333 133.333 258.533 133.333 259.2C133.333 260 130.133 262.4 126.133 264.533L118.933 268.4L114.8 265.333C112.4 263.733 110.133 262.8 109.6 263.333C109.067 263.867 110.4 265.467 112.4 266.933L116.133 269.6L102.133 278C84.3999 288.533 71.9999 298.533 64.5333 308.4C59.4666 315.2 57.4666 319.867 53.4666 334.4L52.6666 337.333L48.5333 334.4C46.1333 332.8 41.7333 326.667 38.5333 320.933C33.8666 312.533 30.6666 308.667 22.3999 301.867C10.2666 291.867 8.79993 289.6 8.79993 280.667C8.79993 272.933 12.7999 264.8 20.3999 257.6C24.9333 253.2 25.1999 253.2 28.9333 255.067C34.7999 258.133 52.1333 261.333 62.9333 261.333C77.1999 261.333 87.1999 259.333 106.267 252.8C115.6 249.6 123.733 246.933 124.267 246.8C124.667 246.667 126.933 249.2 129.2 252.267ZM149.067 248.267C151.333 250.533 151.067 251.333 147.2 253.2C142.8 255.2 142.267 254.667 143.867 250.133C145.467 246.267 146.667 245.867 149.067 248.267ZM152 255.6C152 256.933 151.467 258.8 150.8 259.867C149.733 261.467 149.2 261.467 147.467 260.133C146.267 259.067 145.333 257.867 145.333 257.333C145.333 256.667 149.6 254 151.733 253.467C151.867 253.333 152 254.4 152 255.6ZM144.667 266.4C140.933 269.6 138.267 268.533 139.467 264.4C141.333 258.267 141.067 258.4 144.8 260.933L148.267 263.2L144.667 266.4ZM135.733 266.267C135.333 269.6 134.8 270 129.733 270.4C122.667 270.933 122.533 269.6 129.067 265.733C135.467 261.867 136.267 262 135.733 266.267ZM167.733 280.933C181.2 293.2 188.133 302.133 191.733 312.267C195.067 321.067 196.933 333.333 195.067 333.333C193.333 333.333 178 327.067 170.667 323.333C164.667 320.267 155.067 311.067 152.133 305.6C150.8 303.2 141.333 273.067 141.333 271.333C141.333 270.933 142.133 270.667 143.067 270.667C144.133 270.667 146 269.467 147.333 268C149.6 265.467 149.733 265.467 153.2 268.133C155.067 269.6 161.6 275.467 167.733 280.933ZM128.133 273.2L134.667 274L128.8 286C115.733 312.533 92.6666 331.333 66.7999 336.8C61.4666 337.867 56.6666 338.533 56.3999 338.133C55.0666 336.933 58.9333 323.333 62.3999 316.933C66.6666 308.8 78.7999 296.533 89.3333 289.333C102 280.667 119.2 270.933 120.533 271.733C121.067 272 124.533 272.667 128.133 273.2ZM143.467 288.667C145.867 297.2 149.067 306.133 150.667 308.533C157.067 319.067 173.067 329.6 190.533 334.8C196.667 336.667 197.067 337.867 193.867 347.067C191.333 354.533 182.933 362.667 177.867 362.667C175.867 362.667 168.8 360.933 162.133 358.8C140.933 352 134.8 351.2 125.333 353.733C120.8 355.067 109.867 359.333 100.933 363.333C92.1333 367.333 83.1999 370.667 81.0666 370.667C69.3333 370.667 55.9999 356.4 55.9999 343.867C55.9999 342.267 58.6666 341.2 66.6666 339.6C80.2666 336.933 91.5999 331.733 102.667 322.8C119.2 309.6 130 294.133 136.533 274.133C137.067 272.8 137.733 272 138.133 272.4C138.667 272.8 140.933 280.133 143.467 288.667Z" fill="black"/>
</g>
<defs>
<clipPath id="clip0_71_103">
<rect width="400" height="373.333" fill="white"/>
</clipPath>
</defs>
</svg>
